<?xml version="1.0" encoding="utf-8"?>
<!-- Generator: Adobe Illustrator 24.3.0, SVG Export Plug-In . SVG Version: 6.00 Build 0)  -->
<svg version="1.1" id="Слой_1" xmlns="http://www.w3.org/2000/svg" xmlns:xlink="http://www.w3.org/1999/xlink" x="0px" y="0px"
	 viewBox="0 0 1920 1080" style="enable-background:new 0 0 1920 1080;" xml:space="preserve">
<style type="text/css">
	.st0{display:none;fill:#FFFF00;}
	.st1{fill:#FFFFFF;}
	.st2{enable-background:new    ;}
	.st3{clip-path:url(#SVGID_2_);}
	.st4{clip-path:url(#SVGID_4_);}
</style>
<rect class="st0" width="1920" height="1080"/>
<g>
	<path class="st1" d="M553.58,672.78h-42.13l-30.12-80.83H358.37l-28.4,80.83h-42.13l112.47-295.29h40.79L553.58,672.78z
		 M469.51,558.59L424.9,435.83c-1.4-3.94-2.92-10.8-4.58-20.59h-0.95c-1.4,8.9-2.99,15.76-4.77,20.59l-44.23,122.77H469.51z"/>
	<path class="st1" d="M596.28,672.78V377.49h86.74c25.93,0,46.64,6.2,62.15,18.59c15.5,12.39,23.26,28.82,23.26,49.28
		c0,16.27-4.61,30.63-13.82,43.08c-9.22,12.46-21.89,21.29-38.03,26.5v0.76c20.08,2.29,36.12,9.88,48.13,22.78
		c12.01,12.9,18.01,29.26,18.01,49.09c0,25.42-9.12,45.97-27.36,61.67c-18.24,15.7-41.59,23.54-70.06,23.54H596.28z M634.4,410.85
		v92.46h34.69c18.43,0,32.88-4.48,43.37-13.44c10.48-8.96,15.73-21.38,15.73-37.27c0-27.83-18.56-41.75-55.66-41.75H634.4z
		 M634.4,536.48v102.94h45.75c19.95,0,35.36-4.6,46.23-13.82c10.87-9.21,16.3-22.02,16.3-38.41c0-33.8-22.94-50.71-68.82-50.71
		H634.4z"/>
	<path class="st1" d="M822.17,528.66c0-47.66,12.9-85.59,38.7-113.81c25.8-28.21,60.75-42.32,104.85-42.32
		c41.05,0,74.09,13.79,99.13,41.37c25.04,27.58,37.55,63.48,37.55,107.71c0,47.91-12.84,85.91-38.51,114
		c-25.67,28.09-59.99,42.13-102.94,42.13c-41.94,0-75.55-13.79-100.84-41.37C834.82,608.79,822.17,572.89,822.17,528.66z
		 M862.21,525.61c0,35.71,9.12,64.34,27.36,85.88c18.23,21.54,42.03,32.31,71.39,32.31c31.52,0,56.27-10.32,74.25-30.98
		c17.98-20.65,26.97-49.53,26.97-86.64c0-38.13-8.8-67.55-26.4-88.26c-17.6-20.71-41.72-31.07-72.34-31.07
		c-30.12,0-54.52,10.93-73.2,32.79C871.55,461.5,862.21,490.16,862.21,525.61z"/>
	<path class="st1" d="M1378.24,552.49c0,83.5-37.87,125.24-113.62,125.24c-72.57,0-108.85-40.29-108.85-120.86V377.49h38.13v177.67
		c0,59.09,24.78,88.64,74.35,88.64c47.91,0,71.87-28.59,71.87-85.78V377.49h38.13V552.49z"/>
	<path class="st1" d="M1629.3,411.43h-85.21v261.35h-38.32V411.43h-84.83v-33.93h208.36V411.43z"/>
</g>
<g class="st2">
	<defs>
		<path id="SVGID_1_" class="st2" d="M1201.82,673.81c-0.93,4.45-2.11,10.39-3.25,14.79c-1.97,7.66-4.82,17.82-7.1,25.39
			c-2.64,8.77-6.01,17.21-9.9,26.97c-0.05,0.12-4.92,12.14-11.97,25.43c-6.56,12.34-12.11,20.79-14.2,23.85
			c-2.56,3.76-6.06,8.7-8.8,12.33c-2.29,3.03-5.47,6.98-7.95,9.85c-2.46,2.84-5.78,6.6-8.42,9.28c-3.36,3.42-7.94,7.88-11.54,11.04
			c-2.7,2.37-6.35,5.48-9.24,7.61c-4.41,3.26-10.45,7.41-15.08,10.36c-5.74,3.65-13.92,7.67-20.17,10.36
			c-9.09,3.91-18.55,6.47-20.59,6.94c-3.18,0.74-7.42,1.78-10.66,2.27c-4.88,0.74-11.42,1.56-16.35,1.8
			c-15.85,0.77-31.59-1.24-46.76-5.99c-16.82-5.26-32.41-13.77-46.34-25.28c-12.51-10.33-23.47-22.97-32.57-37.55
			c-10.85-17.37-16.41-33.09-18.5-39.01c-1.64-4.65-3.66-10.92-4.83-15.71c-0.93-3.8-2.25-8.84-3.05-12.67
			c-0.94-4.48-2.09-10.47-2.74-15c-1.16-8.07-2.38-18.88-2.85-27.01c-0.74-12.68-0.59-20.3-0.41-29.12
			c0.03-1.34,0.31-13.53,2.15-29.58c1.13-9.82,2.69-19.81,4.65-29.69c-0.05,0.25,4.1,1.33,12.88,3.32
			c-14.51,73.18,3.25,139.17,39.66,147.38c0.39,0.09,0.78,0.17,1.18,0.24c36.12,6.83,76.67-45.49,91.02-117.88
			c14.51-73.18-3.25-139.17-39.66-147.38c-0.39-0.09-0.78-0.17-1.18-0.24c-36.12-6.83-76.67,45.49-91.02,117.88
			c-8.78-1.98-12.93-3.07-12.88-3.32c0,0,0,0,0,0c1.85-7.84,4-18.37,6.17-26.13c2.94-10.52,5.94-19.89,8.91-27.84
			c1.92-5.14,5.5-14.71,11.02-26.37c6.53-13.8,12.2-23.19,13.26-24.93c3.48-5.68,8.75-14.26,15.85-23.48
			c2.32-3.01,5.46-6.99,7.95-9.85c3.24-3.72,7.64-8.63,11.17-12.08c5.15-5.03,12.24-11.57,18.03-15.85
			c4.41-3.26,10.45-7.41,15.08-10.36c2.87-1.83,6.88-4,9.91-5.56c11.1-5.7,20.06-8.55,20.43-8.67c3.11-0.98,7.24-2.34,10.42-3.08
			c4.87-1.13,11.4-2.54,16.37-3.13c6.38-0.76,14.98-0.99,21.41-1.04c3.26-0.03,7.59,0.49,10.84,0.78
			c4.41,0.39,10.23,1.54,14.56,2.46c3.22,0.68,7.43,1.94,10.6,2.85c3.13,0.9,7.25,2.33,10.22,3.66c5.57,2.48,12.86,6.1,18.21,9.01
			c5.76,3.14,12.83,8.42,17.9,12.6c12.5,10.33,23.46,22.97,32.57,37.55c10.85,17.37,16.41,33.09,18.5,39.01
			c1.64,4.65,3.66,10.92,4.83,15.71c0.93,3.8,2.25,8.84,3.05,12.67c0.94,4.48,2.09,10.47,2.74,15c1.16,8.07,2.38,18.88,2.85,27.01
			c0.21,3.63,0.85,14.69,0.41,29.12c-0.11,3.65-0.45,14.76-2.15,29.58C1204.6,660.41,1201.93,673.27,1201.82,673.81z"/>
	</defs>
	<clipPath id="SVGID_2_">
		<use xlink:href="#SVGID_1_"  style="overflow:visible;"/>
	</clipPath>
	<g class="st3">
		<path d="M883.48,694.99c-0.37-2.17-0.7-4.38-0.99-6.62c-2.27,2.26-4.2,4.54-5.8,6.81c0.29,2.2,0.61,4.37,0.96,6.51
			c-1.57,2.47-2.82,4.94-3.74,7.39c-0.38-2.32-0.73-4.68-1.05-7.08c-1.86,4.43-2.47,8.81-1.91,13.01
			c-0.47-4.34-1.18-10.12-1.54-14.47c-0.67-7.8,3.96-16.11,14.44-24c0.45,5.51,1.11,10.84,1.98,15.96L883.48,694.99"/>
		<path d="M878.15,750.21c-1.65-5.68-3.1-11.64-4.32-17.83l-0.74-3.89c-1.97-10.56,2.16-22.33,13.14-33.81
			c0.91,4.98,2.01,9.74,3.31,14.26c-0.78,1.03-1.52,2.06-2.23,3.09c-0.54-1.87-1.04-3.78-1.51-5.73c-2.16,2.88-3.97,5.76-5.46,8.62
			c0.49,2.01,1,3.98,1.55,5.92c-1.45,3.05-2.57,6.08-3.37,9.06c-0.6-2.1-1.16-4.25-1.69-6.43c-0.98,3.26-1.52,6.48-1.66,9.62
			c0.68,2.79,1.4,5.52,2.18,8.19C877.27,744.33,877.54,747.31,878.15,750.21"/>
		<path d="M881.9,745.28c1.64-8.91,5.63-16.12,8.49-20.78c-4.1,8.19-6.4,15.81-7.23,24C882.73,747.44,882.31,746.37,881.9,745.28
			 M884.15,767.46c1.45,3.53,3.01,6.91,4.65,10.13c-1.9-8.95-5.87-27.58,6.68-52.39c-1.69-3.66-3.21-7.58-4.57-11.73
			c-5.06,6.9-15.58,21.24-12.56,37.45c1.18,3.99,2.46,7.85,3.84,11.56c-0.34-2.41-0.71-5.64-0.81-8.07c0.46,1.21,0.92,2.4,1.4,3.58
			C883.09,760.84,883.32,764.71,884.15,767.46"/>
		<path d="M898.29,748.25c-1.62,5.1-1.75,5.52-2.96,3.79c1.21-4.65,2.84-9.36,4.94-14.08c0.98,1.66,0.62,2.85-0.77,6.75
			C899.07,745.89,898.67,747.07,898.29,748.25 M902.46,753.42c0.41-1.41,0.41-1.41,3.4-11.11c-2.95-3.86-5.72-8.02-8.19-12.69
			c-9.26,17.37-11.61,34.61-8.04,49.56c1.64,3.1,3.37,6.04,5.19,8.82c-2.1-8.2-2.6-17.07-1.38-26.3c1.12,1.82,1.12,1.82,0.89,9.42
			c-0.18,6.74,0.57,13.24,2.17,19.37c1.74,2.49,3.55,4.83,5.43,7.02c-1.41-5.04-2.29-10.33-2.61-15.81
			c-0.81-16.74-0.81-16.74-2-19.87C899.51,763.63,899.73,762.86,902.46,753.42"/>
		<path d="M915.02,809.4c-3.77-2.58-7.35-5.68-10.71-9.24c-2.23-9.23-6.87-28.45,3.57-55.95c1.45,1.54,2.96,2.96,4.53,4.24
			c-5.26,15.72-6.54,31.21-4.42,45.38c1.28,1.05,2.6,2.04,3.93,2.95C912.65,801.12,913.69,805.34,915.02,809.4"/>
		<path d="M929.83,816.53c-4.58-1.36-8.95-3.38-13.08-6c-5.88-17.62-6.39-38.16-0.22-59.11c2.77,1.75,5.68,3.11,8.74,4.06
			c-0.35,1.59-0.66,3.18-0.94,4.76c-1.27-0.39-2.51-0.85-3.73-1.38c-0.96,4.69-1.6,9.34-1.95,13.94c1.26,0.54,2.53,1.02,3.84,1.44
			c-0.23,4.65-0.16,9.24,0.19,13.74c-1.42-0.45-2.81-0.97-4.17-1.56c0.28,5.16,0.94,10.21,1.96,15.09c1.74,0.76,3.53,1.41,5.35,1.95
			C926.87,807.96,928.21,812.33,929.83,816.53"/>
		<path d="M944.23,803.03c6.22,21.06-2.66,17.84-6.77,15.47c-8.1-4.66-10.13-15.22-11.22-20.89c-0.27-1.51-0.51-3.04-0.71-4.57
			c0.39,0.1,0.79,0.2,1.19,0.29c1.82,0.41,3.65,0.7,5.49,0.88c0.49,2.88,1.08,5.71,1.79,8.5c0.54,2.05,1.96,7.49,3.56,5.94
			c0.19-0.18,0.55-7.89-5.33-16.87c-5.54-8.46-10.78-16.45-5.19-35.79c0.28,0.07,0.56,0.14,0.84,0.2c0.39,0.09,0.78,0.17,1.18,0.24
			c3.31,0.63,6.66,0.76,10.02,0.42c-0.15,3.18-0.33,6.35-0.44,9.53c-0.03,0.99-0.04,1.98-0.04,2.97c-1.94,0.21-3.89,0.27-5.82,0.19
			c0.08-1.85,0.2-3.71,0.36-5.57c0.48-5.31,0.5-5.52-0.06-6.11c-1.93,0.25-2.47,10.1-1.89,12.45c1.24,5.02,4.61,8.95,6.85,13.46
			C939.29,786.29,939.29,786.29,944.23,803.03"/>
		<path d="M963.52,797.02c10.67,26.34-6.89,19.51-7.07,19.43c-5.15-2.29-8.38-7.35-11.51-18.06c-0.42-1.52-0.81-3.05-1.17-4.59
			c2.26-0.36,4.53-0.89,6.8-1.58c0.78,2.84,1.66,5.65,2.64,8.41c2.72,7.43,3.87,5.91,4.24,4.92c0.02-0.06,0.57-7.95-7.87-16.65
			c-5.22-5.38-11.72-12.07-8.2-32.36c4.05-0.66,8.12-1.99,12.16-3.93c0.2,3.05,0.35,6.1,0.59,9.14c0.08,0.96,0.17,1.92,0.27,2.87
			c-1.94,0.94-3.88,1.76-5.83,2.44c-0.12-1.82-0.2-3.65-0.23-5.48c-0.09-5.06-0.09-5.16-0.61-5.69c-1.93,0.39-1.67,9.92-0.67,12.54
			c0.58,1.52,1.08,2.09,4.31,5.84C956.92,780.73,956.92,780.73,963.52,797.02"/>
		<path d="M993.46,795.94c-4.24,3.86-8.56,7.27-12.92,10.2c-11.31-17.24-18.54-37.32-19.65-57.77c1.89-1.27,3.76-2.66,5.62-4.18
			c1.56,15.18,6.69,30.17,14.42,43.89c1.52-1.25,3.03-2.55,4.54-3.92C987.91,788.2,990.58,792.14,993.46,795.94"/>
		<path d="M988.58,766.01c-6.49-12.58-8.94-23.51-9.75-27.11c2.82,8.75,6.65,16.53,12.08,24.48
			C990.14,764.28,989.36,765.15,988.58,766.01 M1006.2,782.74c2.58-3.02,5.13-6.2,7.63-9.54c-8.03-7.09-24.72-21.83-32.33-44.44
			c-2.76,3.46-5.59,6.64-8.47,9.52c1.63,10.74,4.67,30.74,21.51,56.68c2.72-2.53,5.41-5.25,8.06-8.14
			c-2.24-3.12-5.19-7.31-7.3-10.52c0.86-0.95,1.72-1.92,2.58-2.91C1000.32,776.24,1003.63,780,1006.2,782.74"/>
		<path d="M1011.65,744.98c3.46,3.84,3.98,4.57,2.14,7.93c-4.37-4.57-8.35-9.3-11.84-14.13c2.02-2.71,2.16-2.55,5.67,1.6
			C1008.92,741.93,1010.26,743.46,1011.65,744.98 M995.18,722.34c2.97,5.63,2.97,5.63,1.39,8.32c-2.33-3.9-4.34-7.84-5.96-11.78
			C992.04,716.78,992.16,716.61,995.18,722.34 M1019.22,735.73c-1.48-1.39-2.92-2.78-4.32-4.19c-6.33-6.28-8.35-6.97-12.01-4.11
			c0.93-3.71,1.98-7.92-7.43-19.7c-3.34,5.99-6.88,11.53-10.56,16.57c5.04,16.5,15.92,32.93,30.16,47.22
			c2.81-3.85,5.56-7.89,8.24-12.13C1029.76,748.87,1030.07,745.92,1019.22,735.73"/>
		<path d="M1044.12,719.21c-3.31,7.82-6.84,15.29-10.55,22.37c-15.82-11.75-28.64-25.02-35.8-38.11c2.48-4.73,4.85-9.72,7.07-14.93
			l1.93,2.35c-0.92,2.16-1.87,4.29-2.84,6.37c1.91,2.57,4.08,5.14,6.48,7.71c1-2.15,1.97-4.34,2.93-6.56
			c2.49,2.38,5.22,4.75,8.14,7.1c-1.04,2.42-2.1,4.8-3.18,7.14c3.29,2.94,6.84,5.84,10.63,8.69c1.39-2.99,2.74-6.03,4.05-9.14
			C1036.51,714.59,1040.24,716.93,1044.12,719.21"/>
		<path d="M1054.13,692.37c-2.59,7.91-5.39,15.57-8.39,22.93c-16.86-9.51-30.96-20.01-39.5-30.1c1.3-3.18,2.54-6.44,3.73-9.78
			c7.03,6.52,17.32,13.35,29.56,19.94c0.97-2.73,1.92-5.51,2.84-8.31C1046.12,688.84,1050.06,690.62,1054.13,692.37"/>
		<path d="M1050.05,651.69c21.37,6.04,9.9,29.53,2.98,33.02c-3.12,1.58-6.59,1.71-15.1-2.27c-1.18-0.57-2.34-1.15-3.48-1.72
			c1.3-4.07,2.53-8.22,3.7-12.44c2.17,0.87,4.42,1.74,6.74,2.62c7.46,2.72,6.13-1.55,5.79-2.43c-1.18-3.04-8.87-3.98-8.95-3.99
			c-1.59-0.02-2.12-0.03-7.19,3.77c-6.13,4.59-13.09,9.8-21.89-0.79c2.32-7.29,4.38-14.89,6.12-22.75c1.71,0.2,2.57,0.39,5.1,1.11
			c0.56,0.17,1.12,0.33,1.7,0.5c-0.83,3.77-1.73,7.5-2.69,11.16c-1.05-0.46-2.05-0.91-3.03-1.35c-1.97-0.88-2.47-0.92-2.9-0.67
			c-0.35,0.2-1.01,1.28-0.42,2.55c0.03,0.06,3.3,5.74,8.92,0.63C1034.88,650.06,1037.11,648.03,1050.05,651.69"/>
		<path d="M1026.66,610.92c-0.24,2.62-0.53,5.25-0.86,7.9c2.66-0.13,5.57-0.2,8.69-0.22c0.32-2.6,0.6-5.19,0.85-7.76
			c3.15-0.25,6.52-0.44,10.07-0.56c-0.27,2.8-0.58,5.61-0.93,8.44c7.79,0.2,16.46,0.66,25.67,1.35c-0.65,5.31-1.43,10.67-2.32,16.06
			c-18.74-2.77-35.17-4.93-46.23-5.99c1.05-6.35,1.86-12.62,2.44-18.8C1024.89,611.19,1025.76,611.05,1026.66,610.92"/>
		<path d="M1072.9,578.72c-0.07,8.66-0.47,17.54-1.22,26.58c-19.06-0.15-35.9,0.94-47.41,3.4c0.5-6.05,0.78-11.98,0.84-17.79
			c0.86-0.4,1.74-0.78,2.66-1.16c-0.03,2.41-0.09,4.84-0.18,7.29c2.72-0.88,5.69-1.69,8.87-2.42c0.1-2.53,0.17-5.03,0.2-7.52
			c3.19-0.96,6.6-1.84,10.18-2.64c-0.03,2.7-0.1,5.43-0.21,8.18c4.14-0.68,8.52-1.26,13.09-1.74c0.14-3.51,0.22-6.99,0.25-10.43
			C1064.13,579.8,1068.46,579.21,1072.9,578.72"/>
		<path d="M1050.2,567.37c-7.53,1.87-14.36,3.68-21.75,6.97c6.02-3.93,12.46-7.33,21.52-11.35
			C1050.06,564.44,1050.13,565.9,1050.2,567.37 M1072.26,555.82c-0.31-4.85-0.74-9.6-1.27-14.26
			c-10.03,4.21-30.89,12.98-46.71,27.55c0.46,5.15,0.74,10.47,0.82,15.92c6.81-2.51,19.5-7.19,47.8-7.23
			c0.02-5.15-0.07-10.23-0.28-15.22c-3.51,0.45-8.18,1.08-11.67,1.63c-0.07-1.63-0.16-3.25-0.26-4.86
			C1064.15,558.26,1068.78,556.83,1072.26,555.82"/>
		<path d="M1028.71,544.15c3.79-3.13,4.3-2.85,4.81-0.3c-3.63,2.63-6.96,5.41-9.94,8.33c-0.35-2.36,0.15-3.46,2.69-5.88
			C1027.07,545.58,1027.88,544.86,1028.71,544.15 M1026.66,535.5c-3.61,3.39-5.39,6.06-6.46,7.66c1.37,6.31,2.55,12.79,3.4,19.6
			c11.39-9.99,28.13-18.05,47.11-23.52c-0.56-4.52-1.22-8.94-1.99-13.25c-9.83,3.45-19.03,7.67-27.17,12.56
			c-0.42-2.93-0.29-3.67,5.99-7.21c6.36-3.49,13.24-6.59,20.46-9.26c-0.77-3.95-1.62-7.79-2.56-11.54
			c-5.66,2.42-11.1,5.13-16.24,8.11c-7.74,4.59-12,7.11-12.81,15.09C1035.16,530.87,1033.57,529.01,1026.66,535.5"/>
		<path d="M1058.24,487.98c2.24,5.63,4.24,11.63,5.99,17.95c-18.43,8.31-34.48,19.88-45.13,33.67c-0.76-2.73-1.58-5.38-2.47-7.93
			c7.87-11.59,18.95-21.82,31.88-30.14c-0.73-2.09-1.49-4.14-2.29-6.14C1050.06,492.73,1054.08,490.26,1058.24,487.98"/>
		<path d="M1048.91,468.95c3.03,5.04,5.81,10.56,8.3,16.51c-17.83,10.05-33.15,23.78-43,39.9c-1.67-3.98-3.51-7.68-5.53-11.08
			c0.66-1.32,1.35-2.63,2.06-3.92c0.83,1.4,1.64,2.86,2.42,4.37c2.22-3.71,4.7-7.29,7.41-10.74c-0.8-1.55-1.63-3.06-2.49-4.51
			c2.64-3.59,5.5-7.03,8.56-10.31c0.93,1.58,1.83,3.22,2.7,4.91c3.62-3.65,7.5-7.09,11.59-10.3c-1.11-2.16-2.27-4.23-3.48-6.23
			C1041.12,474.47,1044.94,471.6,1048.91,468.95"/>
		<path d="M1022.28,461.73c14.62-15.38,21.88-4.27,21.96,0.26c0.1,5.75-2.9,8.62-12.85,18.1c-1.13,1.08-2.23,2.17-3.31,3.29
			c-1.47-2.32-3.01-4.52-4.61-6.58c1.94-2.18,3.96-4.3,6.05-6.33c2.36-2.31,5.93-5.8,2.89-5.94c-0.08,0-8.51,0.68-11.61,17.72
			c-1.92,10.57-2.12,11.67-13.29,30.12c-2.64-4.15-5.55-7.79-8.71-10.85c1.07-3.61,2.52-6.86,3.38-8.81
			c0.41-0.88,0.83-1.76,1.25-2.62c1.52,1.46,2.99,3.04,4.41,4.74c-0.86,1.57-1.68,3.15-2.46,4.76c-2.3,4.83-2.14,5.47-1.66,6.19
			c0.83,0.01,5.64-6.23,6.27-14.68C1010.9,479.2,1011.35,473.22,1022.28,461.73"/>
		<path d="M1005.7,450.88c12.19-15.67,22.4-9.87,22.75-4.54c0.28,4.24-1.19,5.99-10.78,17.36c-1.01,1.21-2.01,2.44-2.97,3.7
			c-1.82-1.59-3.7-3.04-5.63-4.34c1.71-2.4,3.51-4.73,5.38-6.97c2.21-2.66,5.24-6.29,2.14-5.65c-0.09,0.02-8.63,2.49-9.55,18.05
			c-0.58,9.89-0.59,10.08-10.06,31.34c-3.26-2.84-6.76-5.1-10.5-6.7c0.69-3.76,1.81-7.24,2.48-9.32c0.32-0.94,0.64-1.88,0.98-2.81
			c1.8,0.76,3.55,1.65,5.25,2.68c-0.7,1.7-1.36,3.43-1.98,5.18c-1.75,5.04-1.69,5.98-0.87,6.3c0.33-0.23,5.09-7.27,4.63-15.54
			C996.37,469.1,996.04,463.3,1005.7,450.88"/>
		<path d="M993.92,435.22c4.42-0.32,8.83-0.08,13.19,0.76c-13.57,14.26-23.6,33.2-27.74,54.97c-0.04-0.01-0.09-0.02-0.13-0.03
			c-1.84-0.35-3.7-0.54-5.56-0.59c2.46-16.8,8.44-31.92,16.92-44.53c-1.56-0.04-3.13,0-4.69,0.12
			C988.35,442.12,991.03,438.54,993.92,435.22"/>
		<path d="M971.68,456.77c-4.49,9.48-7.27,18.35-9.02,28.74c0.63-6.38,2-16.22,6.5-28.02C970,457.23,970.84,456.99,971.68,456.77
			 M980.34,437.95c-2.82,0.92-5.63,2.05-8.43,3.39c-4.73,7.45-14.57,22.94-14.19,52.09c3.05-1.24,6.11-2.11,9.17-2.62
			c2.05-11.88,5.86-33.98,25.91-55.5c-2.84,0.27-5.7,0.77-8.55,1.5c-2.23,2.81-5.14,6.61-7.18,9.57c-0.93,0.25-1.87,0.52-2.8,0.82
			C976.01,444.37,978.4,440.65,980.34,437.95"/>
		<path d="M952.22,461.85c1.82-4.2,2.59-5.06,4.83-6.66c-2.57,4.88-4.63,10.19-6.13,15.87c-1.82,1.02-2.09,0.93-1.18-2.32
			c0.14-0.5,0.35-1.16,0.51-1.66C950.85,465.3,951.51,463.55,952.22,461.85 M946.28,489.29c0.34-6.7,0.89-7.1,2.7-8.41
			c-0.67,4.83-0.96,9.88-0.84,15.11C946.97,496.68,945.87,497.32,946.28,489.29 M945.46,466c-0.67,1.6-1.27,3.25-1.82,4.94
			c-2.96,9.77-0.18,9.32,1.16,9.1c-5.43,6.82-4.74,16.42-3.21,23.28c4.04-3.33,8.17-6.07,12.32-8.16
			c-0.04-21.08,6.14-39.38,16.59-53.13c-3.17,1.59-6.33,3.45-9.46,5.56C956.41,450.78,950.07,455.15,945.46,466"/>
		<path d="M935.3,471.13c4.38-5.13,8.88-9.77,13.45-13.89c-8.6,12.45-12.48,29.15-9.96,48.49c-3.06,2.76-6.07,5.85-9.01,9.26
			L929,511.1c1.22-1.41,2.45-2.77,3.69-4.08c-0.54-3.97-0.78-7.82-0.72-11.52c-1.28,1.35-2.55,2.75-3.81,4.2
			c-0.06-3.58,0.17-7.02,0.69-10.29c1.37-1.58,2.75-3.1,4.14-4.57c0.72-3.93,1.8-7.64,3.22-11.1c-1.77,1.87-3.53,3.82-5.27,5.86
			C932.11,476.57,933.57,473.75,935.3,471.13"/>
		<path d="M921.37,489.65c3.8-5.69,7.72-11.01,11.75-15.91c-7.27,11.05-9.51,26.01-5.2,43.47c-1.74,2.12-3.46,4.35-5.14,6.69
			c-2.23-8.24-5.27-19.53-0.81-32.84c-1.38,1.92-2.74,3.88-4.09,5.9C918.74,494.33,919.92,491.89,921.37,489.65"/>
		<path d="M902.56,524.13c0.52-2.36,1.55-4.51,2.66-6.69c2.79-5.2,6.52-12.13,9.49-17.22l1.87-3.08c0.51-0.81,0.51-0.81,0.76-1.14
			c0.49,2.31-1.02,4.14-1.47,6.23c-0.18,0.9-0.34,1.81-0.45,2.74c-1.93,2.95-3.82,6.01-5.66,9.17c0.13-1.59,0.37-3.12,0.74-4.59
			c0.16-0.65,0.34-1.3,0.5-1.96c-1.34,0.78-3.85,7.69-2.87,8.94c1.58-0.34,2.86-1.45,4.47-1.72c1.24-0.21,1.63,0.26,1.94,0.64
			c0.35,0.42,1.41,1.7,4.37,14.12c-3.45,5.28-6.74,11.02-9.83,17.15c-1.29-1.74-1.87-2.73-3-5.05c-0.25-0.55-0.49-1.09-0.71-1.62
			c1.48-2.95,3-5.82,4.56-8.6c0.36,1.11,0.77,2.24,1.22,3.39c0.9,2.18,1.76,4,2.47,2.33c0.05-0.12,1.08-10.41-5.56-7.98
			C904.04,530.64,900.88,531.8,902.56,524.13"/>
		<path d="M886.9,775.99l3.38,7.65l-2.3-5.53c-2.23-4.85-4.27-10-6.1-15.44C883.37,766.66,885.22,772.06,886.9,775.99"/>
		<path d="M906.49,811.61l-3.01-4.38c-0.9-1.35-1.75-2.73-2.53-4.15c1.39,2.09,2.69,4.24,4.05,6.35
			C905.48,810.16,905.98,810.89,906.49,811.61 M912.7,819.54c-1.37-1.89-1.37-1.89-9.58-15.74c-2.41-4.07-5.22-7.87-7.74-11.86
			c-1.3-2.08-2.55-4.25-3.76-6.5c0.97,2.72,2.14,5.36,3.52,7.88l5.79,9.96c8.37,12.41,8.87,13.15,14.96,20.3l-0.32-0.37
			C914.94,822.45,913.98,821.3,912.7,819.54"/>
		<path d="M935.46,842.41c-4.23-3.65-9.79-8.62-13.79-12.53l-0.58-0.6c-5.18-5.93-9.65-11.05-14.23-22.38
			c2.17,2.26,4.42,4.34,6.75,6.21C918.4,824.73,925.82,834.79,935.46,842.41"/>
		<path d="M979.68,866.01c-0.98-0.28-1.95-0.58-2.91-0.91c-12.32-4.75-14.54-5.6-25.37-11.68l-2.28-1.38
			c-13.07-8.07-23.14-20.13-29.38-34.59c4.12,2.56,8.47,4.53,13.02,5.89c1.92,4.01,4.1,7.84,6.53,11.46
			c-1.91-0.57-3.79-1.24-5.63-2.02c2.22,3.4,4.68,6.61,7.34,9.6c1.79,0.75,3.61,1.41,5.46,1.98c2.73,3.02,5.67,5.82,8.8,8.37
			c-1.91-0.58-3.78-1.26-5.63-2.04c3.56,2.93,7.39,5.53,11.46,7.76c2.22,0.93,4.48,1.73,6.8,2.39
			C971.64,862.89,975.57,864.62,979.68,866.01"/>
		<path d="M990.35,861.66c7.16,4.11,7.16,4.11,7.72,4.62c0.29,0.26,1.65,1.61-0.23,2.18c-1.36,0.41-15.93,0.59-32.79-10.06
			c-1.17-0.76-2.32-1.56-3.45-2.38c0.32,0.08,0.64,0.15,0.96,0.23c2.61,0.59,5.23,0.99,7.87,1.21c2.14,1.54,4.36,2.97,6.63,4.29
			c1.85,1.05,5.69,3.23,7.35,2.7c-0.44-0.65-7.88-5.24-12.96-7.34c-14.84-6.14-19.94-9.38-25.98-16.51
			c-4.96-5.85-11.76-16.84-2-16.52c7.96,0.73,11.09,4.56,20.38,15.92c0.57,0.69,1.15,1.38,1.74,2.05c-2.83,0.33-5.66,0.45-8.47,0.36
			c-1.06-1.26-2.08-2.56-3.08-3.88c-2.68-3.57-3.79-5.04-5.01-4.26c-0.11,1.99,4.07,7.14,6.88,9c1.29,0.85,1.29,0.85,16.88,8.18
			C978.93,854.36,984.48,858.29,990.35,861.66"/>
		<path d="M1014.97,853.76c5.61,3.07,14.99,8.2,3.51,11.44c-8.63,2.43-18.43,0.4-29.15-6.04c-1.23-0.76-2.44-1.56-3.63-2.39
			c2.99-0.51,5.99-1.24,8.98-2.17c2.26,1.53,4.58,2.95,6.95,4.26c1.81,0.98,6.63,3.57,7.55,1.51c-0.02-0.04-4.21-4.81-15.88-7.26
			c-11.96-2.51-17.96-3.78-25.87-12.64c-4.09-4.58-12.55-15.64-2.66-19.3c8.51-2.5,12.7,1.98,21.9,11.81
			c0.63,0.67,1.27,1.34,1.92,1.99c-2.82,1.4-5.65,2.61-8.49,3.63c-1.17-1.24-2.31-2.52-3.43-3.83c-2.28-2.66-4.64-5.41-5.4-3.39
			c-0.38,1.02,3.57,7.24,8.35,9.13c6.46,2.55,13.51,2.89,20.01,5.32C1002.35,846.86,1002.35,846.86,1014.97,853.76"/>
		<path d="M1056.19,840.51c-5.1,4.69-10.28,8.83-15.52,12.4c-21.31-6.77-40.73-21.6-55.05-40.65c2.8-1.9,5.57-4,8.33-6.28
			c12.05,14.78,27.2,26.98,43.76,34.69c1.93-1.59,3.84-3.27,5.74-5.02C1047.63,837.56,1051.88,839.18,1056.19,840.51"/>
		<path d="M1044.88,819.47c-11.3-6.96-20.08-15.74-22.97-18.63c8.63,6.4,16.91,11.21,26.04,15.14
			C1046.93,817.17,1045.9,818.33,1044.88,819.47 M1071.49,824.51c3.1-3.65,6.16-7.5,9.15-11.55c-11.95-2.39-36.82-7.37-65.08-29.31
			c-3.71,4.65-7.52,8.96-11.39,12.9c8.02,9.94,24.7,30.61,53.32,42.75c3.26-3.07,6.49-6.36,9.67-9.87
			c-3.34-1.36-7.76-3.23-11.02-4.76c1.09-1.21,2.18-2.45,3.26-3.71C1063,822.11,1067.83,823.56,1071.49,824.51"/>
		<path d="M1076.03,788.04c5.12,2.14,5.69,2.57,3.42,6.66c-6.12-2.24-12.19-4.9-18.14-7.92c2.75-3.79,2.99-3.83,8.64-1.35
			C1071.97,786.35,1074,787.22,1076.03,788.04 M1047.58,773.45c6.27,4.06,6.27,4.06,3.96,7.99c-4.58-2.69-9.04-5.59-13.35-8.65
			C1040.25,769.75,1040.74,769.03,1047.58,773.45 M1085.92,775.08c-2.06-0.75-4.11-1.55-6.15-2.38c-9.44-3.68-12.87-3.36-18.36,1.73
			c3.53-15.4-22-19.33-26-16.93c-2.73,1.64-5.43,5.75-6.87,7.96c-2.4,3.74-4.84,7.34-7.34,10.78c17.5,15.82,39.09,28.45,60.93,34.68
			c3.37-4.65,6.67-9.55,9.89-14.67C1099.48,784.04,1100.82,780.61,1085.92,775.08"/>
		<path d="M1116.93,747.77c-3.96,9.43-8.18,18.44-12.63,26.98c-22.13-5.77-44.88-16.5-64.08-29.55c3.67-7.05,7.16-14.48,10.45-22.23
			c4.03,2.21,8.19,4.36,12.45,6.42c-1.38,3.26-2.8,6.47-4.25,9.62c3.98,2.09,8.04,4.09,12.17,5.98c1.41-3.06,2.79-6.17,4.13-9.34
			c4.18,1.79,8.42,3.5,12.68,5.09c-1.39,3.26-2.81,6.47-4.26,9.62c4.89,1.94,9.82,3.71,14.75,5.3c1.74-3.79,3.44-7.66,5.1-11.6
			C1107.95,745.45,1112.46,746.69,1116.93,747.77"/>
		<path d="M1128.91,715.39c-3.09,9.54-6.44,18.77-10.03,27.65c-22.32-5.36-45.83-14.43-66.15-25.04c1.91-4.74,3.75-9.59,5.5-14.55
			c16.65,7.45,35.23,14.17,53.47,19.2c1.23-3.47,2.42-6.99,3.57-10.56C1119.86,713.28,1124.42,714.38,1128.91,715.39"/>
		<path d="M1125.06,667.35c24.67,5.9,9.98,35.48,1.71,40.24c-3.27,1.88-7.25,2.54-17,0.04c-1.51-0.41-3.02-0.83-4.52-1.26
			c1.71-5.39,3.32-10.89,4.85-16.47c2.83,0.72,5.66,1.41,8.47,2.09c10.01,2.27,6.83-4.21,6.79-4.28c-1.47-2.66-8.91-3.51-11.53-3.14
			c-0.98,0.14-1.91,0.27-8.52,5.96c-10.44,8.99-14.76,12.71-28.2,7.43c-5.48-2.16-15.69-6.17-11.54-23.05
			c5.08-17.61,14.07-15.7,23.58-13.68c0.91,0.21,1.83,0.41,2.74,0.61c-1.2,5.52-2.5,10.95-3.88,16.3c-1.7-0.46-3.38-0.93-5.06-1.4
			c-9.03-2.43-5.73,3.32-5.69,3.38c0.05,0.08,6.17,7.41,14.84-0.83C1105.56,666.49,1108.76,663.45,1125.06,667.35"/>
		<path d="M1092.73,608.96c-0.36,3.93-0.77,7.89-1.25,11.87c4.43,0.44,8.92,0.91,13.42,1.43c0.44-3.68,0.83-7.34,1.18-10.97
			c4.53,0.39,9.08,0.84,13.61,1.33c-0.35,3.75-0.76,7.51-1.21,11.3c10,1.31,19.95,2.79,29.48,4.42c-0.77,6.38-1.68,12.81-2.74,19.29
			c-22.66-4.13-47.55-8.2-69.9-11.49c1.54-9.41,2.71-18.71,3.54-27.85C1083.4,608.45,1088.04,608.68,1092.73,608.96"/>
		<path d="M1151.11,578.71c-0.05,10.4-0.5,21.05-1.37,31.91c-22.72-3.65-47.85-5.78-70.54-6.23c0.72-8.96,1.11-17.75,1.17-26.35
			c4.56-0.38,9.22-0.67,13.94-0.85c-0.03,3.61-0.11,7.26-0.25,10.94c4.47-0.02,8.99,0.03,13.52,0.17c0.13-3.58,0.22-7.13,0.25-10.64
			c4.55,0.01,9.12,0.12,13.67,0.32c-0.03,3.62-0.12,7.28-0.26,10.97c5.26,0.34,10.5,0.78,15.67,1.34c0.16-4.44,0.26-8.83,0.28-13.18
			C1141.91,577.52,1146.56,578.06,1151.11,578.71"/>
		<path d="M1125.62,556.68c-12.84-1.15-19.28-1.73-30.23-1.92c9.7-1.64,18.37-2.75,29.91-3.85
			C1125.42,552.82,1125.53,554.74,1125.62,556.68 M1150.27,551.22c-0.39-5.82-0.92-11.52-1.58-17.1
			c-11.24,0.46-34.63,1.41-69.55,12.77c0.62,6.94,1.01,14.08,1.17,21.39c12.04,0.08,37.11,0.26,70.81,9.34
			c0.01-6.19-0.12-12.28-0.39-18.26c-3.74-0.73-8.74-1.67-12.51-2.3c-0.1-2.04-0.21-4.07-0.34-6.09
			C1141.59,551,1146.55,551.08,1150.27,551.22"/>
		<path d="M1096.04,513.33c5.59-1,6.4-0.63,7.19,3.25c-5.26,0.78-10.48,1.78-15.62,2.99c-0.53-3.45,0.29-4.42,4.57-5.45
			C1093.47,513.85,1094.75,513.58,1096.04,513.33 M1093.02,500.68c-19.97,4.16-18.78,11.45-16.42,25.97c0.52,3.19,1,6.43,1.41,9.72
			c22.58-5.64,47.64-7.66,70.34-5.03c-0.69-5.42-1.5-10.72-2.44-15.89c-10.22-1.09-20.91-1.12-31.61-0.18
			c-0.6-3.96-0.14-4.63,7.57-5.1c7.85-0.37,15.62-0.19,23.16,0.6c-0.94-4.72-1.98-9.33-3.12-13.8c-5.97-0.58-12.08-0.74-18.25-0.51
			c-9.89,0.46-15.34,0.71-16.37,9.47C1105.18,500.57,1102.73,498.66,1093.02,500.68"/>
		<path d="M1133.15,469.93c2.72,6.74,5.14,13.92,7.27,21.49c-22.6-2.12-47.24,2-69.21,10.7c-1.13-4.04-2.37-7.95-3.7-11.72
			c17.31-7.8,36.39-12.45,54.87-13c-0.93-2.64-1.91-5.22-2.92-7.73C1124.07,469.48,1128.65,469.56,1133.15,469.93"/>
		<path d="M1121.85,447.19c3.67,6.01,7.03,12.61,10.05,19.73c-22.49-1.8-46.68,3.6-68,14.18c-2.49-5.88-5.25-11.33-8.26-16.33
			c4.12-2.41,8.36-4.59,12.7-6.53c1.26,2.1,2.48,4.27,3.66,6.52c4.16-1.75,8.39-3.28,12.67-4.59c-1.15-2.19-2.33-4.31-3.55-6.35
			c4.25-1.38,8.54-2.52,12.86-3.42c1.26,2.11,2.48,4.29,3.66,6.55c5.03-0.97,10.07-1.61,15.09-1.9c-1.42-2.71-2.9-5.33-4.43-7.84
			C1112.85,446.89,1117.38,446.88,1121.85,447.19"/>
		<path d="M1088.85,425.61c19.78-2.09,30.64,11.51,26.25,16.26c-1.75,1.89-4.47,2.25-14.59,3.59c-1.49,0.2-2.97,0.43-4.46,0.69
			c-1.96-3.05-4-5.93-6.13-8.63c2.73-0.53,5.47-0.94,8.21-1.24c4.19-0.46,6.49-0.72,4.27-2.43c-2.76-2.13-10.77-0.22-11.98,0.25
			c-1.6,0.63-2.2,0.86-4.43,6.17c-2.99,7.12-4.23,10.07-21.93,16.39c-6.15,2.19-12.52,3.43-17.51-2.32
			c-7.08-9.37,3.56-14.84,9.91-18.11c0.82-0.41,1.65-0.8,2.48-1.19c2.23,2.1,4.38,4.38,6.45,6.83c-1.59,0.69-3.16,1.41-4.72,2.18
			c-2.03,1.01-6.24,3.12-3.48,4.19c0.09,0.03,9.8-0.12,12.06-7.94C1071.69,431.91,1073.03,427.29,1088.85,425.61"/>
		<path d="M1067.6,412c17.12-2.3,31.93,5.13,29.16,8.94c-0.9,1.24-0.9,1.24-14.16,3.45c-1.44,0.25-2.89,0.53-4.32,0.84
			c-2.41-2.08-4.9-3.96-7.47-5.65c2.64-0.61,5.29-1.11,7.96-1.47c3.77-0.52,3.91-0.55,4.58-0.82c0.04-0.12,0.09-0.27,0.13-0.38
			c-0.11-0.11-12.71-5.17-16.14,5.01c-4.1,12.15-29.21,22.01-37.71,17.04c-8.87-6.01,2.02-12.5,7.26-15.62
			c0.77-0.44,1.54-0.87,2.32-1.29c2.63,1.07,5.19,2.35,7.67,3.82c-1.49,0.77-2.98,1.57-4.44,2.42c-2.03,1.2-5.44,3.21-3.12,3.77
			c0.72,0.18,10.24-2.21,11.21-7.95C1051.59,417.85,1052.24,414.07,1067.6,412"/>
		<path d="M1046.1,407.51c5.18-0.22,12.09-0.42,17.27-0.31c2.67,0.12,5.34,0.42,7.99,0.9c-21.71-1.04-42.73,7.44-59.4,22.53
			c-2.8-0.51-5.61-0.78-8.44-0.82c12.73-12.13,28.4-20.02,45.2-22.16c-1.98-0.03-3.96,0.04-5.95,0.21
			C1043.87,407.71,1044.98,407.6,1046.1,407.51"/>
		<path d="M1020.9,411.99c0.15-0.04,0.3-0.08,0.45-0.12c-11.62,3.2-19.66,8.07-24.7,11.46c6.12-4.5,12.15-7.6,18.97-9.78
			L1020.9,411.99 M1003,418.21l-2.23,0.96c-6.73,3.4-12.05,6.08-20.28,15.19c4.11-1.65,8.23-2.87,12.34-3.63
			c11.04-9.53,23.87-19.14,48.22-22.71l-1.14,0.14C1026.96,410.36,1018.4,411.81,1003,418.21"/>
		<path d="M978.05,431.59c-6.59,4.78-6.59,4.78-7.02,5.01c0.11-0.23,1.76-1.41,2.26-1.77L978.05,431.59 M973.28,434.84
			c-3.38,2.57-7.93,5.93-11.2,8.63l-0.65,0.55c-1.48,1.33-1.65,1.58-1.72,1.93c0.43-0.04,0.43-0.04,6.06-3.76
			c2.79-1.84,5.6-3.48,8.42-4.93c5.51-6.01,11.94-10.91,19.1-14.51C981.12,429.49,978.92,430.71,973.28,434.84"/>
		<path d="M938.61,466.76c3.29-3.62,7.64-8.47,11.07-11.96l6.72-6.39c-1.64,1.48-3.19,3.06-4.64,4.73c-4.54,4.13-9,8.75-13.34,13.84
			C938.48,466.91,938.55,466.84,938.61,466.76"/>
		<path d="M1031.3,871.61c-2.04,0.28-4.08,0.46-6.11,0.55l-6.76,0.09c-0.35,0-0.71-0.01-1.06-0.02c-2.39-0.08-4.77-0.36-7.17-0.37
			c0.44,0.07,0.44,0.07,1.24,0.13c-4.76-0.5-11.12-1.19-15.85-1.97c-0.11-0.02-0.26-0.06-0.37-0.08c0.24-0.16,0.24-0.16,4.07,0
			c9.84,0.4,19.63,1.64,29.49,1.73C1029.62,871.65,1030.46,871.64,1031.3,871.61"/>
		<path d="M1083.79,856.58c0.51-0.24,1.17-0.58,1.67-0.83c-3.39,1.62-7.86,3.87-11.3,5.34l-5.25,2.1
			c-31.03,11.6-50.02,8.21-48.71,5.07c0.39-0.94,2.92-1.86,4.14-2.31c8.19-2.77,8.19-2.77,29.37-2.49c0.82,0,1.64-0.01,2.46-0.03
			c-3.04,1.57-6.1,2.94-9.16,4.1c-1.54,0.05-3.1,0.05-4.66,0c-5.16-0.17-6.24-0.21-7.16,0.53
			C1040.09,871.9,1072.79,861.84,1083.79,856.58"/>
		<path d="M1119.42,831.84c-3.03,2.85-6.1,5.49-9.19,7.91l-6.35,4.72l-0.67,0.47c-13.6,9.51-31.28,13.38-50.97,9.66
			c-1.04-0.2-2.07-0.41-3.1-0.65c3.26-2.28,6.5-4.79,9.71-7.52c1.03,0.23,2.07,0.45,3.11,0.65c16.42,3.11,31.22,1.11,43.24-4.91
			c1.82-1.55,3.64-3.17,5.44-4.87C1113.78,835.75,1116.71,833.92,1119.42,831.84"/>
		<path d="M1113.83,829.1c-8.63,2.11-16.55,1.23-21.76,0.38c9.17,0.04,17.05-1.19,24.78-3.89
			C1115.85,826.79,1114.85,827.95,1113.83,829.1 M1133.17,817.17c2.79-3.34,5.53-6.86,8.22-10.56c-7.6,5.4-23.4,16.64-57.38,13.28
			c-4.32,5.51-8.75,10.62-13.26,15.31c10.87,3.06,31.12,8.76,49.83-4.46c2.94-2.82,5.84-5.84,8.7-9.05
			c-2.03,1.29-4.79,2.93-6.94,4.01c1.02-1.16,2.04-2.34,3.05-3.55C1127.78,820.73,1131.14,819.05,1133.17,817.17"/>
		<path d="M1142.73,793.94c3.05-0.91,3.35-0.88,2.02,1.57c-0.19,0.35-0.47,0.82-0.68,1.17c-3.76,1.6-8.01,2.76-12.69,3.45
			c2.75-4.1,2.92-4.14,7.15-5.08C1139.99,794.72,1141.39,794.35,1142.73,793.94 M1119.84,796.37c5.76,0.38,5.76,0.38,3.33,4.44
			c-4.1,0.11-8.45-0.09-13.05-0.63C1112.43,796.65,1112.91,795.92,1119.84,796.37 M1151.57,780.23c-1.27,0.37-2.59,0.7-3.96,0.99
			c-7.06,1.55-9.85,3.33-14.91,9.56c1.49-4.55,1.11-6.22-1.56-6.87c-0.11-0.03-11.66-2.53-20.15,1.64
			c-4.17,2.05-6.83,4.92-11.88,12.81c-2.78,4.42-5.63,8.67-8.53,12.74c1.04,0.23,2.08,0.44,3.12,0.64c20.8,3.93,37.77,1.02,49.04-7
			c3.03-4.25,5.99-8.71,8.87-13.38c7.07-11.62,6.93-12.91,2.59-11.86C1153.38,779.7,1152.11,780.07,1151.57,780.23"/>
		<path d="M1173.9,747.25c-3.53,8.57-7.31,16.77-11.29,24.55c-9.88,5.71-26.02,7.24-46.82,3.31c-1.04-0.2-2.08-0.4-3.12-0.62
			c4.26-8.31,8.3-17.06,12.1-26.19c1.05,0.22,2.09,0.42,3.13,0.62c3.33,0.63,6.53,1.15,9.6,1.55c-1.52,3.65-3.07,7.23-4.67,10.75
			c3.82,0.48,7.43,0.77,10.83,0.88c1.48-3.26,2.92-6.57,4.33-9.94c3.38,0.16,6.54,0.16,9.46,0c-1.38,3.3-2.8,6.55-4.24,9.75
			c3.42-0.27,6.53-0.77,9.31-1.49c1.64-3.63,3.25-7.34,4.8-11.12C1169.78,748.78,1171.98,748.09,1173.9,747.25"/>
		<path d="M1184.57,717.87c-2.75,8.66-5.73,17.03-8.94,25.09c-8.98,3.7-24.56,4.01-45.36,0.08c-1.04-0.2-2.08-0.4-3.13-0.62
			c2.21-5.57,4.33-11.28,6.36-17.11c1.05,0.21,2.09,0.41,3.13,0.61c16.42,3.11,29.45,3.97,38.43,2.9c1.15-3.32,2.27-6.68,3.35-10.09
			C1180.75,718.57,1182.81,718.28,1184.57,717.87"/>
		<path d="M1188.46,676.26c12.4,2.71-2.07,35.29-6.08,38.15c-2.29,1.63-5.08,1.74-6.58,1.8c-0.85,0.01-1.74,0-2.65-0.02
			c1.66-5.37,3.24-10.83,4.72-16.39c1.67,0.13,3.24,0.22,4.7,0.27c5.46,0.06,3.74-5.8,3.69-5.86c-1.04-1.34-4.71-0.68-5.62-0.11
			c-0.91,0.56-1.15,0.72-5.87,7.24c-8.21,11.35-11.96,16.54-25.25,12.73c-7.92-2.26-10.41-9.69-7.39-22.06
			c5.81-20.83,14.81-19.36,22.75-18.06c0.75,0.13,1.48,0.27,2.21,0.39c-1.27,5.98-2.64,11.87-4.1,17.68
			c-1.37-0.21-2.77-0.44-4.21-0.68c-7.99-1.22-5.31,4.52-5.27,4.58c1.11,1.67,5.53,2.46,8.01,1.43c1.65-0.69,3.46-3.12,6.73-7.55
			C1176.79,678.23,1179.67,674.34,1188.46,676.26"/>
		<path d="M1169.66,616.42c-0.37,4.35-0.81,8.73-1.31,13.14c3.74,0.79,7.22,1.58,10.43,2.36c0.45-3.89,0.84-7.75,1.18-11.59
			c3.21,0.85,6.16,1.7,8.84,2.57c-0.33,3.77-0.72,7.55-1.15,11.36c5.93,1.71,10.52,3.37,13.68,4.93
			c-0.66,5.74-1.44,11.53-2.36,17.37c-7.35-2.33-21.95-5.66-42.75-9.59c-1.04-0.2-2.08-0.39-3.13-0.59
			c1.73-10.97,3.04-21.82,3.94-32.48c1.05,0.19,2.1,0.38,3.14,0.58C1163.49,615.12,1166.66,615.76,1169.66,616.42"/>
		<path d="M1203.9,594.56c0.01,9.34-0.34,18.92-1.06,28.69c-7.08-4.65-21.52-9.39-42.31-13.32c-1.04-0.2-2.08-0.39-3.14-0.58
			c0.78-10.44,1.17-20.69,1.18-30.69c1.05,0.18,2.1,0.37,3.14,0.57c3.33,0.63,6.5,1.31,9.5,2.04c-0.01,3.99-0.07,8.02-0.2,12.08
			c3.73,0.87,7.2,1.8,10.4,2.77c0.12-3.76,0.18-7.49,0.19-11.19c3.21,1.03,6.14,2.12,8.8,3.26c-0.01,3.62-0.08,7.28-0.19,10.97
			c3.08,1.21,5.79,2.48,8.11,3.77c0.13-4.19,0.19-8.35,0.19-12.46C1200.63,591.79,1202.43,593.16,1203.9,594.56"/>
		<path d="M1192.43,568.12c-5.83-3.87-11.58-7.24-20.64-11.1c7.95,1.45,14.21,3.13,20.28,5.43
			C1192.21,564.32,1192.33,566.22,1192.43,568.12 M1202.99,569.88c-0.39-5.22-0.89-10.34-1.52-15.34
			c-4.23-3.6-13.03-11.08-44.56-12.11c0.78,8.07,1.28,16.37,1.52,24.88c10,3.29,33.43,10.98,45.47,26.28
			c-0.02-5.56-0.17-11.03-0.45-16.4c-1.38-1.64-3.29-3.77-4.81-5.28c-0.1-1.93-0.23-3.84-0.36-5.75
			C1199.73,567.21,1201.65,568.67,1202.99,569.88"/>
		<path d="M1170.58,514.37c4.38,1.67,4.87,2.51,5.68,6.47c-3.77-1.6-7.9-3-12.38-4.18c-0.63-3.75,0.04-4.37,3.62-3.33
			C1168.54,513.66,1169.57,514.01,1170.58,514.37 M1167.26,500.7c-17.82-7.14-16.1,2.94-13.48,18.2c0.64,3.7,1.21,7.46,1.72,11.29
			c1.05,0.17,2.1,0.36,3.13,0.56c20.8,3.93,35.31,11.67,42.5,21.29c-0.65-4.86-1.41-9.61-2.29-14.24
			c-3.48-5.03-8.59-9.54-15.21-13.32c-0.4-2.31-0.28-2.61-0.05-3.2c0.42-0.14,0.94-0.32,4.08,1.88c4.3,3.13,7.77,6.65,10.36,10.45
			c-0.87-4.23-1.84-8.36-2.9-12.37c-2.11-3.26-4.77-6.31-7.95-9.1c-6.05-5.13-8.92-6.36-8.88,0.51
			C1176.37,506.57,1174.41,503.56,1167.26,500.7"/>
		<path d="M1187.07,497.09c2.49,6.01,4.73,12.42,6.69,19.19c-7.71-12.12-22.53-21.36-43.33-25.29c-1.04-0.2-2.08-0.38-3.13-0.54
			c-1.36-4.68-2.83-9.21-4.42-13.57c1.05,0.16,2.09,0.34,3.13,0.54c16.42,3.11,29.23,9.85,37.82,18.93
			c-0.9-2.48-1.85-4.91-2.83-7.27C1183.33,491.59,1185.35,494.27,1187.07,497.09"/>
		<path d="M1176.05,475.74l0.18,0.28l2.02,3.31c2.77,4.66,5.33,9.7,7.68,15.07c-8.26-13.64-23.41-23.81-44.21-27.74
			c-1.04-0.2-2.08-0.38-3.13-0.54c-2.97-6.79-6.24-13.1-9.81-18.85c1.05,0.16,2.09,0.34,3.13,0.53c3.33,0.63,6.53,1.44,9.59,2.41
			c1.42,2.3,2.8,4.68,4.13,7.15c3.79,1.2,7.36,2.64,10.69,4.3c-1.23-2.28-2.5-4.49-3.81-6.62c3.36,1.7,6.48,3.64,9.37,5.78
			c1.28,2.09,2.53,4.26,3.73,6.49c3.3,2.42,6.28,5.11,8.91,8.03c-1.37-2.54-2.79-4.99-4.27-7.34
			C1172.4,470.44,1174.34,473.02,1176.05,475.74"/>
		<g>
			<path d="M1171.97,469.55c-2.41-3.28-5.46-6.23-6.76-7.49c-0.89-0.84-1.81-1.66-2.75-2.46c-1.96-2.96-4-5.76-6.13-8.39
				c1.79,1.53,3.49,3.14,5.09,4.84c0.6,0.65,1.43,1.53,2.42,2.71C1166.29,461.99,1169.64,466.24,1171.97,469.55"/>
			<path d="M1155.49,449.42l4.52,4.88c-5.24-5.81-5.47-5.29-5.94-4.26c-0.66,1.45-1.56,3.42-21.78-5.51
				c-5.59-2.47-10.35-5.96-14.15-10.37c-5.47-6.77-1.5-7.03,0.47-6.82c3.18,0.33,7.23,1.84,8.96,2.49c0.77,0.3,1.54,0.62,2.29,0.94
				c2.43,2.22,4.78,4.63,7.05,7.22c-1.4-0.6-2.84-1.16-4.31-1.68c-3.63-1.24-3.83-1.02-4.06-0.77c0.65,1.49,10.55,6.43,11.63,4.23
				c1.22-2.48,1.51-3.07,7.5,2.15L1155.49,449.42"/>
		</g>
		<path d="M1111.08,418.36c1.9,0.84,3.77,1.77,5.59,2.8c-1.44-0.63-2.9-1.21-4.39-1.74c-2.52-0.89-3.35-1.08-3.87-1.17
			c0.46,1.06,11.58,4.55,11.67,4.54c0.01-0.02,0.02-0.05,0.03-0.07l5.63,3.16l9.18,5.94l-26.64-10.19
			c-5.18-2.14-8.01-3.74-10.26-5.07c-3.6-2.2-3.77-2.61-3.77-3.19c1.64-0.85,9.83,2.16,10.76,2.51L1111.08,418.36"/>
		<path d="M1078.24,408.72c-0.33-0.05-0.65-0.1-0.98-0.15c-0.26-0.04-0.53-0.08-0.79-0.12L1078.24,408.72"/>
		<path d="M1130.12,821.81c4.67-5.14,10.76-12.14,15.16-17.52c-1.36,1.57-3.14,3.69-4.61,5.16c-3.79,4.83-7.67,9.31-11.62,13.42
			L1130.12,821.81"/>
		<path d="M1159.24,784.32c-0.28,0.45-0.58,0.89-0.89,1.32c1.12-1.79,2.29-3.55,3.38-5.36L1159.24,784.32 M1162.45,779.09l6-10.56
			l-0.09,0.16c-4.4,7.57-9.81,14.47-14.46,21.88c-2.44,3.88-4.93,7.6-7.48,11.17c1.74-1.61,3.3-3.37,4.66-5.27
			C1154.58,791.32,1159.27,784.45,1162.45,779.09"/>
		<path d="M1180.28,743.16c-1.26,3.04-2.56,6.02-3.89,8.95c0.54-0.75,0.99-1.55,1.37-2.38l-2.05,4.43l-4.32,8.78
			c-2.44,3.85-2.59,4.08-5.6,6.69c3.73-7.29,7.28-14.95,10.61-22.96C1177.99,745.65,1179.29,744.48,1180.28,743.16"/>
		<path d="M1188.84,721.9l-2.1,5.89l-3.09,8.09c-1.36,2.45-2.1,3.81-5.16,5.66c1.94-4.88,3.8-9.89,5.57-15
			C1186.56,725.35,1188.17,723.8,1188.84,721.9"/>
		<path d="M1200.7,678.73c-1.03,4.85-2.14,9.63-3.33,14.34c-0.12,0.16-0.29,0.31-0.5,0.45c-1.5,1.09-1.89,4.78-1.73,5.25
			c0.05,0.03,0.12,0.06,0.18,0.09c0.56-0.28,0.83-0.66,2.24-6.12l-1.9,7.21l-3.21,10.98c-1.02,3.04-2.08,2.21-2.23,1.93
			c-0.35-0.64-0.84-3.41,2.2-15.23c4.71-17.74,6.91-18.45,8.1-18.83C1200.58,678.78,1200.65,678.76,1200.7,678.73"/>
		<path d="M1207.07,631.53c-0.31,3.62-0.67,7.27-1.09,10.94c0.39,0.53,0.56,1.04,0.5,1.52l-0.02,0.13
			c-0.62,4.54-1.35,10.6-2.06,15.12c0.06-0.47-1.02-1.12-3.18-1.92c1.52-9.62,2.66-19.13,3.46-28.48
			C1205.81,629.77,1206.61,630.66,1207.07,631.53"/>
		<path d="M1208.36,602.26c-0.01,3.32-0.06,6.68-0.17,10.06c0.3,0.87,0.44,1.73,0.42,2.6l0,0.12c-0.23,4.45-0.46,10.38-0.79,14.82
			c0.11-1.61-0.85-3.28-2.82-4.98c0.68-9.15,1.02-18.14,1.04-26.91C1207.15,599.37,1207.92,600.81,1208.36,602.26"/>
		<path d="M1208.18,585.01c-0.07-1.1-0.16-1.71-0.3-2.6c0.14,0.66,0.19,1,0.25,1.7L1208.18,585.01 M1208.27,586.48
			c-0.34-4.28-0.7-10-1.14-14.27c-0.77-3.35-0.81-3.56-2.54-6.02c0.68,7.07,1.13,14.36,1.33,21.81c2.26,5.03,2.26,5.03,2.79,9.95
			L1208.27,586.48"/>
		<path d="M1203.8,549.33c-0.1-0.52-0.22-1.05-0.35-1.56c-0.35-1.85-0.45-2.41-0.47-2.53c0.01,0.03,0.02,0.08,0.03,0.12
			L1203.8,549.33 M1205.36,558.42c-3.07-17.16-3.13-17.49-5.35-26l-0.16-0.58c-0.19-0.57-0.24-0.71-0.4-0.97
			c-0.16,0.18-0.16,0.18,2.4,14.71c0.56,3.24,1.06,6.54,1.51,9.9c1.45,2.65,2.38,5.42,2.77,8.28L1205.36,558.42"/>
		<path d="M1193.65,512c1.42,4.27,3.38,9.94,4.66,14.26c-0.56-1.93-1.28-3.8-2.15-5.63c-1.19-4.1-2.48-8.07-3.87-11.89
			C1192.78,509.8,1193.24,510.89,1193.65,512"/>
		<path d="M1188.86,500.06c-0.11-0.25-0.22-0.5-0.34-0.75c-0.3-0.68-0.6-1.36-0.9-2.03L1188.86,500.06"/>
	</g>
</g>
<g class="st2">
	<defs>
		<path id="SVGID_3_" class="st2" d="M707.28,405.74c0.94-4.45,2.14-10.39,3.28-14.79c1.99-7.65,4.86-17.8,7.16-25.37
			c2.67-8.77,6.05-17.19,9.97-26.95c0.05-0.12,4.95-12.13,12.04-25.4c6.59-12.33,12.16-20.76,14.26-23.81
			c2.57-3.75,6.08-8.69,8.83-12.31c2.3-3.03,5.49-6.96,7.98-9.83c2.46-2.84,5.8-6.58,8.44-9.26c3.37-3.41,7.96-7.86,11.57-11.01
			c2.7-2.36,6.36-5.46,9.26-7.59c4.42-3.25,10.47-7.39,15.1-10.32c5.75-3.64,13.94-7.64,20.19-10.31c9.1-3.89,18.57-6.43,20.61-6.89
			c3.19-0.73,7.43-1.76,10.66-2.24c4.88-0.72,11.42-1.54,16.35-1.76c15.86-0.73,31.58,1.32,46.75,6.1
			c16.81,5.3,32.37,13.85,46.28,25.39c12.48,10.36,23.41,23.02,32.48,37.63c10.81,17.4,16.33,33.13,18.41,39.06
			c1.63,4.65,3.63,10.93,4.8,15.73c0.92,3.8,2.23,8.85,3.02,12.68c0.93,4.48,2.07,10.48,2.71,15.01c1.14,8.07,2.33,18.88,2.79,27.02
			c0.71,12.68,0.54,20.3,0.34,29.12c-0.03,1.34-0.35,13.53-2.23,29.57c-1.15,9.82-2.74,19.8-4.72,29.67
			c0.05-0.25-4.09-1.34-12.87-3.35c14.69-73.15-2.9-139.17-39.29-147.48c-0.39-0.09-0.78-0.17-1.18-0.25
			c-36.1-6.92-76.78,45.3-91.31,117.65c-14.69,73.15,2.9,139.17,39.29,147.48c0.39,0.09,0.78,0.17,1.18,0.25
			c36.1,6.92,76.78-45.3,91.31-117.65c8.78,2,12.92,3.1,12.87,3.35c0,0,0,0,0,0c-1.87,7.84-4.05,18.36-6.23,26.12
			c-2.97,10.51-5.99,19.87-8.98,27.82c-1.93,5.14-5.54,14.69-11.09,26.35c-6.57,13.78-12.25,23.16-13.33,24.9
			c-3.5,5.67-8.79,14.24-15.91,23.44c-2.33,3-5.47,6.98-7.98,9.83c-3.25,3.71-7.66,8.61-11.2,12.05
			c-5.16,5.02-12.26,11.54-18.07,15.81c-4.42,3.25-10.47,7.38-15.1,10.32c-2.88,1.82-6.89,3.98-9.92,5.53
			c-11.11,5.67-20.08,8.5-20.46,8.62c-3.11,0.97-7.25,2.33-10.43,3.05c-4.87,1.12-11.41,2.51-16.38,3.09
			c-6.39,0.75-14.98,0.95-21.41,0.99c-3.26,0.02-7.59-0.51-10.84-0.81c-4.41-0.4-10.23-1.57-14.56-2.49
			c-3.22-0.69-7.43-1.95-10.59-2.88c-3.13-0.91-7.24-2.35-10.21-3.69c-5.56-2.5-12.85-6.13-18.19-9.06
			c-5.76-3.16-12.81-8.45-17.86-12.64c-12.48-10.36-23.41-23.02-32.48-37.63c-10.81-17.4-16.33-33.13-18.41-39.06
			c-1.63-4.65-3.63-10.93-4.8-15.73c-0.92-3.8-2.23-8.85-3.02-12.68c-0.93-4.48-2.07-10.48-2.71-15.01
			c-1.14-8.07-2.33-18.88-2.79-27.02c-0.2-3.63-0.82-14.69-0.34-29.12c0.12-3.65,0.49-14.75,2.23-29.57
			C704.47,419.13,707.17,406.28,707.28,405.74z"/>
	</defs>
	<clipPath id="SVGID_4_">
		<use xlink:href="#SVGID_3_"  style="overflow:visible;"/>
	</clipPath>
	<g class="st4">
		<path d="M1025.67,385.35c0.36,2.17,0.69,4.38,0.98,6.62c2.27-2.26,4.21-4.53,5.82-6.8c-0.28-2.2-0.6-4.37-0.95-6.51
			c1.58-2.47,2.83-4.94,3.75-7.38c0.38,2.33,0.72,4.69,1.03,7.08c1.87-4.43,2.49-8.8,1.94-13c0.46,4.34,1.15,10.12,1.51,14.48
			c0.65,7.8-4,16.1-14.5,23.96c-0.44-5.51-1.08-10.85-1.94-15.96L1025.67,385.35"/>
		<path d="M1031.14,330.14c1.64,5.69,3.07,11.64,4.28,17.84l0.73,3.89c1.94,10.56-2.21,22.32-13.23,33.78
			c-0.9-4.98-1.99-9.75-3.27-14.27c0.78-1.03,1.53-2.05,2.23-3.08c0.53,1.87,1.03,3.78,1.5,5.74c2.16-2.87,3.99-5.75,5.49-8.61
			c-0.48-2.01-0.99-3.99-1.54-5.92c1.45-3.04,2.58-6.07,3.39-9.06c0.59,2.1,1.15,4.25,1.67,6.44c0.98-3.26,1.54-6.48,1.68-9.62
			c-0.67-2.79-1.39-5.53-2.16-8.2C1032,336.02,1031.73,333.04,1031.14,330.14"/>
		<path d="M1027.38,335.06c-1.66,8.9-5.67,16.11-8.54,20.76c4.12-8.18,6.44-15.8,7.29-23.98
			C1026.55,332.89,1026.97,333.97,1027.38,335.06 M1025.18,312.88c-1.45-3.53-2.99-6.92-4.63-10.14c1.88,8.96,5.8,27.6-6.81,52.38
			c1.68,3.66,3.19,7.59,4.54,11.75c5.08-6.88,15.64-21.2,12.65-37.42c-1.17-4-2.44-7.86-3.81-11.57c0.34,2.41,0.7,5.64,0.79,8.08
			c-0.45-1.21-0.92-2.41-1.39-3.58C1026.22,319.5,1026,315.63,1025.18,312.88"/>
		<path d="M1010.99,332.05c1.63-5.1,1.77-5.51,2.97-3.78c-1.22,4.65-2.87,9.35-4.97,14.07c-0.98-1.66-0.62-2.86,0.79-6.75
			C1010.2,334.41,1010.61,333.23,1010.99,332.05 M1006.83,326.87c-0.41,1.41-0.41,1.41-3.43,11.1c2.94,3.87,5.7,8.03,8.16,12.71
			c9.3-17.35,11.7-34.58,8.16-49.54c-1.63-3.1-3.35-6.05-5.16-8.83c2.08,8.21,2.56,17.08,1.31,26.3c-1.12-1.82-1.12-1.82-0.87-9.42
			c0.19-6.74-0.53-13.24-2.12-19.37c-1.73-2.49-3.54-4.84-5.41-7.03c1.4,5.05,2.27,10.34,2.57,15.81
			c0.76,16.74,0.76,16.74,1.95,19.87C1009.81,316.67,1009.58,317.44,1006.83,326.87"/>
		<path d="M994.41,270.86c3.77,2.59,7.33,5.7,10.69,9.27c2.21,9.24,6.8,28.47-3.71,55.94c-1.45-1.54-2.96-2.96-4.52-4.25
			c5.3-15.7,6.62-31.2,4.54-45.36c-1.28-1.05-2.59-2.04-3.93-2.96C996.76,279.15,995.73,274.93,994.41,270.86"/>
		<path d="M979.62,263.69c4.58,1.37,8.94,3.4,13.07,6.03c5.84,17.63,6.29,38.17,0.07,59.11c-2.76-1.76-5.67-3.13-8.73-4.08
			c0.35-1.59,0.67-3.18,0.95-4.76c1.27,0.4,2.51,0.86,3.73,1.39c0.97-4.68,1.63-9.34,1.98-13.93c-1.25-0.55-2.53-1.03-3.83-1.45
			c0.24-4.65,0.18-9.24-0.15-13.74c1.41,0.45,2.8,0.98,4.17,1.57c-0.27-5.16-0.92-10.21-1.93-15.1c-1.74-0.76-3.52-1.42-5.34-1.96
			C982.56,272.27,981.23,267.9,979.62,263.69"/>
		<path d="M965.19,277.16c-6.16-21.08,2.7-17.83,6.8-15.46c8.09,4.68,10.09,15.25,11.17,20.92c0.27,1.51,0.5,3.04,0.7,4.58
			c-0.39-0.1-0.79-0.2-1.19-0.29c-1.82-0.42-3.65-0.71-5.49-0.89c-0.48-2.88-1.07-5.71-1.76-8.51c-0.53-2.05-1.94-7.49-3.54-5.95
			c-0.19,0.18-0.57,7.89,5.29,16.88c5.52,8.47,10.74,16.48,5.1,35.8c-0.28-0.07-0.56-0.14-0.84-0.2c-0.39-0.09-0.78-0.17-1.18-0.25
			c-3.31-0.63-6.66-0.77-10.02-0.44c0.16-3.18,0.35-6.35,0.46-9.53c0.03-0.99,0.05-1.98,0.05-2.97c1.94-0.2,3.89-0.26,5.82-0.18
			c-0.08,1.85-0.21,3.71-0.38,5.57c-0.49,5.31-0.51,5.51,0.05,6.11c1.93-0.25,2.49-10.09,1.92-12.45
			c-1.23-5.02-4.58-8.96-6.82-13.48C970.08,293.9,970.08,293.9,965.19,277.16"/>
		<path d="M945.88,283.12c-10.61-26.37,6.94-19.49,7.12-19.41c5.14,2.3,8.36,7.37,11.46,18.09c0.42,1.52,0.8,3.05,1.16,4.6
			c-2.27,0.36-4.53,0.88-6.8,1.56c-0.77-2.85-1.65-5.65-2.62-8.42c-2.7-7.44-3.86-5.92-4.23-4.93c-0.02,0.06-0.59,7.95,7.83,16.67
			c5.21,5.39,11.69,12.1,8.12,32.38c-4.06,0.65-8.12,1.97-12.17,3.9c-0.19-3.05-0.34-6.1-0.56-9.14c-0.08-0.96-0.16-1.92-0.27-2.87
			c1.94-0.94,3.89-1.75,5.84-2.42c0.12,1.82,0.19,3.65,0.22,5.48c0.07,5.06,0.08,5.16,0.6,5.69c1.94-0.39,1.7-9.92,0.7-12.54
			c-0.58-1.52-1.07-2.1-4.3-5.85C952.44,299.43,952.44,299.43,945.88,283.12"/>
		<path d="M915.94,284.13c4.25-3.85,8.58-7.25,12.94-10.17c11.26,17.27,18.45,37.37,19.5,57.82c-1.89,1.26-3.77,2.65-5.63,4.17
			c-1.52-15.18-6.61-30.19-14.31-43.93c-1.52,1.24-3.04,2.55-4.55,3.91C921.47,291.88,918.81,287.93,915.94,284.13"/>
		<path d="M920.74,314.07c6.46,12.6,8.89,23.54,9.68,27.13c-2.79-8.76-6.61-16.55-12.02-24.51
			C919.18,315.79,919.96,314.92,920.74,314.07 M903.17,297.29c-2.59,3.01-5.15,6.19-7.65,9.52c8.01,7.11,24.67,21.89,32.22,44.52
			c2.77-3.45,5.61-6.62,8.5-9.5c-1.61-10.75-4.6-30.75-21.37-56.73c-2.72,2.52-5.42,5.23-8.08,8.12c2.23,3.12,5.17,7.32,7.27,10.53
			c-0.87,0.95-1.73,1.92-2.59,2.91C909.03,303.81,905.73,300.04,903.17,297.29"/>
		<path d="M897.62,335.04c-3.45-3.85-3.97-4.58-2.12-7.94c4.36,4.58,8.32,9.32,11.81,14.16c-2.03,2.71-2.17,2.55-5.67-1.61
			C900.35,338.1,899.01,336.56,897.62,335.04 M914.04,357.72c-2.96-5.64-2.96-5.64-1.37-8.33c2.33,3.91,4.32,7.85,5.93,11.8
			C917.16,363.29,917.05,363.46,914.04,357.72 M890.03,344.28c1.48,1.39,2.92,2.79,4.3,4.2c6.31,6.3,8.33,6.99,12,4.14
			c-0.94,3.71-2,7.91,7.38,19.72c3.36-5.98,6.9-11.51,10.6-16.54c-5-16.51-15.84-32.97-30.05-47.3c-2.82,3.84-5.58,7.88-8.27,12.11
			C879.53,331.11,879.2,334.05,890.03,344.28"/>
		<path d="M865.09,360.73c3.33-7.81,6.88-15.28,10.61-22.35c15.79,11.79,28.58,25.09,35.7,38.2c-2.5,4.73-4.87,9.71-7.11,14.91
			l-1.92-2.36c0.93-2.16,1.88-4.28,2.85-6.36c-1.9-2.57-4.06-5.15-6.46-7.73c-1,2.15-1.98,4.33-2.94,6.55
			c-2.49-2.38-5.2-4.76-8.12-7.12c1.04-2.42,2.11-4.79,3.2-7.13c-3.28-2.95-6.83-5.86-10.61-8.71c-1.39,2.98-2.75,6.03-4.07,9.13
			C872.68,365.37,868.96,363.02,865.09,360.73"/>
		<path d="M855.01,387.54c2.61-7.91,5.43-15.55,8.45-22.9c16.83,9.55,30.91,20.09,39.43,30.2c-1.3,3.18-2.56,6.44-3.75,9.77
			c-7.02-6.54-17.29-13.39-29.51-20.01c-0.98,2.73-1.94,5.5-2.86,8.31C863.01,391.1,859.08,389.3,855.01,387.54"/>
		<path d="M858.99,428.24c-21.35-6.09-9.82-29.55-2.9-33.03c3.13-1.57,6.6-1.69,15.09,2.3c1.18,0.58,2.34,1.15,3.47,1.73
			c-1.31,4.07-2.56,8.21-3.73,12.43c-2.17-0.87-4.42-1.75-6.73-2.63c-7.46-2.74-6.14,1.53-5.8,2.42c1.17,3.05,8.86,4.01,8.94,4.01
			c1.59,0.03,2.12,0.03,7.2-3.75c6.15-4.58,13.11-9.77,21.89,0.84c-2.34,7.29-4.41,14.88-6.18,22.74c-1.71-0.2-2.57-0.39-5.1-1.12
			c-0.56-0.17-1.12-0.34-1.7-0.51c0.84-3.77,1.75-7.49,2.72-11.15c1.04,0.46,2.05,0.91,3.02,1.36c1.96,0.88,2.46,0.92,2.9,0.68
			c0.35-0.2,1.01-1.28,0.42-2.55c-0.03-0.06-3.29-5.75-8.92-0.65C874.16,429.9,871.92,431.93,858.99,428.24"/>
		<path d="M882.28,469.07c0.25-2.62,0.54-5.25,0.88-7.9c-2.66,0.12-5.57,0.19-8.69,0.2c-0.33,2.6-0.62,5.19-0.87,7.76
			c-3.15,0.24-6.52,0.42-10.07,0.54c0.28-2.8,0.59-5.61,0.95-8.44c-7.79-0.22-16.46-0.71-25.67-1.41
			c0.67-5.31,1.45-10.66,2.36-16.05c18.73,2.82,35.16,5.01,46.22,6.1c-1.07,6.34-1.9,12.62-2.49,18.79
			C884.06,468.79,883.18,468.93,882.28,469.07"/>
		<path d="M835.96,501.14c0.09-8.66,0.51-17.54,1.28-26.58c19.06,0.2,35.91-0.86,47.41-3.28c-0.52,6.04-0.81,11.98-0.88,17.78
			c-0.86,0.39-1.74,0.78-2.66,1.15c0.03-2.41,0.1-4.84,0.2-7.29c-2.72,0.87-5.69,1.67-8.87,2.4c-0.11,2.53-0.18,5.03-0.22,7.52
			c-3.19,0.95-6.6,1.82-10.19,2.62c0.04-2.7,0.12-5.43,0.23-8.17c-4.14,0.67-8.52,1.24-13.1,1.71c-0.15,3.51-0.24,6.98-0.27,10.42
			C844.74,500.09,840.41,500.67,835.96,501.14"/>
		<path d="M858.64,512.56c7.53-1.85,14.37-3.64,21.77-6.92c-6.03,3.92-12.48,7.29-21.55,11.29
			C858.77,515.48,858.7,514.02,858.64,512.56 M836.54,524.05c0.3,4.85,0.71,9.61,1.24,14.26c10.04-4.19,30.92-12.91,46.78-27.44
			c-0.45-5.15-0.72-10.47-0.78-15.93c-6.82,2.49-19.51,7.14-47.82,7.11c-0.04,5.15,0.04,10.23,0.24,15.22
			c3.51-0.44,8.18-1.06,11.67-1.6c0.07,1.63,0.15,3.25,0.25,4.86C844.66,521.63,840.03,523.05,836.54,524.05"/>
		<path d="M880.06,535.83c-3.8,3.12-4.3,2.84-4.81,0.29c3.63-2.62,6.97-5.39,9.96-8.31c0.35,2.37-0.16,3.46-2.71,5.87
			C881.71,534.4,880.9,535.12,880.06,535.83 M882.09,544.48c3.62-3.38,5.41-6.05,6.48-7.65c-1.36-6.31-2.52-12.8-3.35-19.61
			c-11.42,9.96-28.17,17.98-47.17,23.4c0.55,4.52,1.2,8.95,1.95,13.26c9.84-3.42,19.05-7.63,27.2-12.5
			c0.42,2.93,0.29,3.67-6.01,7.19c-6.37,3.47-13.26,6.56-20.48,9.21c0.76,3.95,1.6,7.8,2.53,11.54c5.67-2.4,11.12-5.1,16.26-8.07
			c7.75-4.57,12.02-7.08,12.84-15.06C873.59,549.09,875.17,550.96,882.09,544.48"/>
		<path d="M850.4,591.93c-2.23-5.64-4.21-11.64-5.94-17.97c18.45-8.26,34.53-19.79,45.22-33.55c0.75,2.74,1.57,5.38,2.45,7.94
			c-7.9,11.57-19,21.77-31.95,30.06c0.72,2.1,1.48,4.14,2.27,6.14C858.59,587.19,854.56,589.66,850.4,591.93"/>
		<path d="M859.68,610.98c-3.02-5.04-5.78-10.57-8.26-16.53c17.86-10,33.21-23.7,43.1-39.79c1.66,3.99,3.49,7.69,5.5,11.09
			c-0.66,1.32-1.35,2.62-2.07,3.91c-0.83-1.41-1.63-2.86-2.41-4.37c-2.23,3.7-4.72,7.28-7.44,10.72c0.8,1.55,1.62,3.06,2.48,4.52
			c-2.64,3.58-5.52,7.01-8.58,10.29c-0.93-1.58-1.83-3.22-2.69-4.91c-3.63,3.64-7.52,7.07-11.62,10.27
			c1.11,2.16,2.26,4.24,3.46,6.24C867.49,605.47,863.66,608.34,859.68,610.98"/>
		<path d="M886.3,618.27c-14.66,15.34-21.89,4.22-21.96-0.32c-0.09-5.76,2.92-8.61,12.89-18.07c1.13-1.07,2.24-2.17,3.32-3.28
			c1.46,2.32,2.99,4.52,4.59,6.59c-1.95,2.18-3.97,4.29-6.07,6.32c-2.37,2.31-5.95,5.79-2.9,5.94c0.08,0,8.51-0.66,11.66-17.69
			c1.95-10.56,2.15-11.66,13.36-30.09c2.63,4.16,5.53,7.8,8.68,10.87c-1.08,3.61-2.53,6.86-3.41,8.8c-0.41,0.88-0.83,1.75-1.26,2.62
			c-1.52-1.46-2.98-3.05-4.4-4.75c0.86-1.56,1.69-3.15,2.47-4.76c2.31-4.83,2.15-5.47,1.68-6.19c-0.83-0.01-5.65,6.22-6.31,14.66
			C897.72,600.82,897.25,606.8,886.3,618.27"/>
		<path d="M902.84,629.15c-12.23,15.64-22.42,9.82-22.76,4.48c-0.27-4.24,1.21-5.99,10.82-17.34c1.02-1.21,2.01-2.44,2.98-3.69
			c1.81,1.6,3.69,3.05,5.62,4.36c-1.72,2.4-3.52,4.72-5.39,6.96c-2.22,2.65-5.25,6.28-2.16,5.64c0.09-0.02,8.64-2.47,9.59-18.03
			c0.61-9.89,0.62-10.08,10.14-31.32c3.25,2.85,6.75,5.12,10.49,6.73c-0.7,3.76-1.83,7.23-2.5,9.31c-0.32,0.94-0.65,1.88-0.99,2.8
			c-1.8-0.76-3.55-1.66-5.24-2.69c0.7-1.7,1.37-3.43,2-5.18c1.76-5.03,1.7-5.98,0.88-6.3c-0.33,0.23-5.11,7.26-4.66,15.53
			C912.22,610.95,912.53,616.76,902.84,629.15"/>
		<path d="M914.59,644.84c-4.43,0.31-8.83,0.06-13.19-0.79c13.6-14.22,23.68-33.15,27.87-54.9c0.04,0.01,0.09,0.02,0.13,0.03
			c1.84,0.35,3.69,0.55,5.56,0.6c-2.5,16.79-8.52,31.9-17.03,44.49c1.56,0.04,3.13,0.01,4.7-0.1
			C920.17,637.96,917.48,641.53,914.59,644.84"/>
		<path d="M936.88,623.35c4.52-9.47,7.32-18.33,9.09-28.72c-0.65,6.38-2.04,16.22-6.56,28
			C938.56,622.89,937.72,623.13,936.88,623.35 M928.17,642.15c2.82-0.91,5.64-2.04,8.44-3.37c4.75-7.43,14.63-22.9,14.32-52.05
			c-3.05,1.23-6.12,2.1-9.17,2.59c-2.08,11.87-5.94,33.97-26.04,55.44c2.85-0.26,5.7-0.76,8.55-1.48c2.24-2.8,5.16-6.6,7.21-9.55
			c0.94-0.24,1.87-0.51,2.81-0.81C932.52,635.73,930.12,639.46,928.17,642.15"/>
		<path d="M956.35,618.31c-1.83,4.2-2.6,5.06-4.85,6.65c2.58-4.87,4.66-10.18,6.17-15.86c1.82-1.01,2.1-0.93,1.17,2.32
			c-0.14,0.5-0.36,1.16-0.51,1.66C957.73,614.87,957.07,616.61,956.35,618.31 M962.36,590.89c-0.35,6.7-0.9,7.1-2.72,8.4
			c0.68-4.83,0.98-9.88,0.88-15.11C961.69,583.5,962.79,582.86,962.36,590.89 M963.12,614.19c0.67-1.6,1.28-3.25,1.83-4.94
			c2.99-9.77,0.2-9.32-1.14-9.1c5.45-6.8,4.78-16.41,3.27-23.27c-4.05,3.32-8.18,6.05-12.34,8.13
			c-0.01,21.08-6.23,39.37-16.72,53.09c3.18-1.59,6.34-3.44,9.48-5.54C952.14,629.37,958.49,625.02,963.12,614.19"/>
		<path d="M973.3,609.08c-4.39,5.12-8.9,9.75-13.49,13.86c8.63-12.43,12.56-29.12,10.08-48.47c3.07-2.75,6.09-5.83,9.03-9.23
			l0.77,3.9c-1.22,1.41-2.46,2.77-3.7,4.07c0.53,3.98,0.76,7.82,0.7,11.52c1.28-1.34,2.56-2.74,3.82-4.19
			c0.05,3.58-0.19,7.02-0.71,10.29c-1.37,1.57-2.76,3.09-4.15,4.55c-0.73,3.93-1.82,7.63-3.25,11.1c1.78-1.86,3.54-3.81,5.29-5.84
			C976.5,603.64,975.03,606.47,973.3,609.08"/>
		<path d="M987.27,590.6c-3.81,5.68-7.75,10.99-11.79,15.89c7.3-11.03,9.57-25.99,5.31-43.46c1.75-2.12,3.47-4.34,5.16-6.68
			c2.2,8.25,5.22,19.54,0.73,32.85c1.38-1.91,2.75-3.88,4.1-5.89C989.91,585.92,988.73,588.35,987.27,590.6"/>
		<path d="M1006.17,556.16c-0.52,2.35-1.56,4.51-2.67,6.68c-2.8,5.19-6.55,12.11-9.54,17.2l-1.87,3.07
			c-0.51,0.81-0.51,0.81-0.76,1.14c-0.49-2.31,1.03-4.14,1.49-6.23c0.19-0.9,0.34-1.81,0.46-2.74c1.93-2.94,3.83-6,5.68-9.15
			c-0.13,1.59-0.38,3.12-0.75,4.59c-0.17,0.65-0.35,1.3-0.51,1.96c1.34-0.77,3.87-7.68,2.89-8.93c-1.58,0.34-2.87,1.44-4.48,1.71
			c-1.24,0.21-1.63-0.26-1.94-0.64c-0.35-0.42-1.4-1.7-4.34-14.13c3.46-5.28,6.77-11,9.87-17.13c1.28,1.74,1.87,2.73,2.99,5.06
			c0.25,0.55,0.48,1.09,0.7,1.63c-1.49,2.95-3.02,5.81-4.58,8.58c-0.36-1.11-0.76-2.24-1.21-3.39c-0.89-2.18-1.75-4-2.47-2.34
			c-0.05,0.12-1.1,10.4,5.54,8C1004.7,549.64,1007.87,548.5,1006.17,556.16"/>
		<path d="M1022.45,304.34l-3.36-7.66l2.28,5.54c2.22,4.85,4.24,10.01,6.07,15.46C1025.96,313.67,1024.12,308.28,1022.45,304.34"/>
		<path d="M1002.94,268.67l3,4.39c0.9,1.35,1.74,2.73,2.52,4.15c-1.38-2.1-2.68-4.25-4.04-6.36
			C1003.95,270.12,1003.46,269.39,1002.94,268.67 M996.76,260.73c1.36,1.9,1.36,1.9,9.54,15.76c2.4,4.07,5.2,7.89,7.71,11.88
			c1.29,2.09,2.54,4.26,3.74,6.51c-0.96-2.73-2.13-5.36-3.5-7.89l-5.77-9.98c-8.33-12.43-8.83-13.17-14.91-20.33l0.32,0.37
			C994.53,257.81,995.48,258.96,996.76,260.73"/>
		<path d="M974.06,237.8c4.23,3.66,9.77,8.64,13.76,12.57l0.58,0.6c5.16,5.94,9.62,11.08,14.17,22.41
			c-2.16-2.27-4.41-4.35-6.74-6.23C991.07,255.52,983.67,245.45,974.06,237.8"/>
		<path d="M929.89,214.09c0.98,0.28,1.95,0.59,2.91,0.92c12.31,4.78,14.52,5.64,25.34,11.74l2.28,1.39
			c13.05,8.1,23.09,20.18,29.29,34.66c-4.12-2.57-8.46-4.56-13.01-5.92c-1.91-4.02-4.08-7.85-6.5-11.47
			c1.91,0.57,3.79,1.25,5.63,2.03c-2.22-3.4-4.66-6.62-7.32-9.62c-1.79-0.76-3.61-1.42-5.46-1.99c-2.72-3.03-5.65-5.83-8.78-8.39
			c1.91,0.59,3.78,1.27,5.62,2.05c-3.56-2.94-7.38-5.55-11.44-7.79c-2.22-0.94-4.48-1.75-6.79-2.41
			C937.93,217.23,933.99,215.49,929.89,214.09"/>
		<path d="M919.21,218.41c-7.15-4.13-7.15-4.13-7.7-4.63c-0.29-0.27-1.64-1.62,0.24-2.18c1.36-0.4,15.93-0.55,32.77,10.14
			c1.17,0.76,2.32,1.56,3.44,2.39c-0.32-0.08-0.64-0.15-0.96-0.23c-2.61-0.6-5.23-1-7.86-1.23c-2.14-1.55-4.35-2.98-6.62-4.31
			c-1.84-1.05-5.68-3.24-7.35-2.72c0.44,0.65,7.87,5.26,12.94,7.37c14.83,6.17,19.92,9.42,25.94,16.57
			c4.95,5.86,11.72,16.86,1.96,16.52c-7.96-0.75-11.08-4.59-20.34-15.98c-0.57-0.69-1.15-1.38-1.73-2.05
			c2.83-0.32,5.66-0.44,8.48-0.34c1.05,1.27,2.08,2.56,3.07,3.89c2.67,3.57,3.78,5.05,5,4.27c0.12-1.99-4.05-7.15-6.86-9.02
			c-1.29-0.86-1.29-0.86-16.86-8.22C930.61,225.75,925.08,221.8,919.21,218.41"/>
		<path d="M894.58,226.25c-5.6-3.08-14.97-8.24-3.48-11.44c8.63-2.41,18.43-0.35,29.13,6.11c1.23,0.77,2.43,1.57,3.62,2.39
			c-2.99,0.5-5.99,1.22-8.99,2.15c-2.26-1.53-4.57-2.96-6.94-4.27c-1.81-0.98-6.62-3.59-7.54-1.53c0.02,0.04,4.19,4.82,15.86,7.3
			c11.95,2.54,17.95,3.82,25.84,12.7c4.08,4.59,12.51,15.67,2.61,19.31c-8.51,2.48-12.7-2.02-21.87-11.86
			c-0.63-0.67-1.27-1.34-1.91-2c2.82-1.39,5.66-2.6,8.49-3.61c1.17,1.25,2.31,2.53,3.42,3.83c2.28,2.67,4.63,5.43,5.39,3.4
			c0.38-1.02-3.55-7.25-8.32-9.15c-6.46-2.57-13.51-2.92-19.99-5.37C907.18,233.19,907.18,233.19,894.58,226.25"/>
		<path d="M853.32,239.4c5.11-4.68,10.3-8.81,15.55-12.36c21.3,6.83,40.68,21.7,54.95,40.78c-2.8,1.9-5.58,3.99-8.34,6.26
			c-12.01-14.81-27.14-27.05-43.67-34.8c-1.93,1.59-3.85,3.26-5.75,5C861.87,242.38,857.62,240.74,853.32,239.4"/>
		<path d="M864.58,260.47c11.28,6.98,20.04,15.79,22.92,18.69c-8.62-6.42-16.88-11.25-26-15.21
			C862.52,262.77,863.55,261.61,864.58,260.47 M837.98,255.36c-3.11,3.64-6.17,7.49-9.18,11.53c11.95,2.42,36.81,7.46,65.01,29.47
			c3.73-4.64,7.54-8.94,11.42-12.87c-7.99-9.96-24.62-30.68-53.21-42.88c-3.27,3.06-6.51,6.35-9.7,9.84
			c3.33,1.36,7.76,3.25,11.01,4.79c-1.09,1.21-2.18,2.44-3.27,3.7C846.47,257.79,841.64,256.32,837.98,255.36"/>
		<path d="M833.35,291.82c-5.12-2.15-5.68-2.58-3.4-6.67c6.12,2.25,12.18,4.93,18.12,7.96c-2.76,3.79-3,3.82-8.64,1.33
			C837.4,293.52,835.38,292.65,833.35,291.82 M861.76,306.48c-6.26-4.07-6.26-4.07-3.94-8c4.57,2.71,9.03,5.61,13.33,8.69
			C869.08,310.2,868.59,310.92,861.76,306.48 M823.43,304.76c2.05,0.76,4.1,1.56,6.15,2.39c9.43,3.7,12.86,3.39,18.36-1.68
			c-3.56,15.39,21.95,19.38,25.96,16.99c2.74-1.63,5.44-5.74,6.89-7.94c2.4-3.74,4.86-7.33,7.37-10.76
			c-17.46-15.87-39.02-28.55-60.85-34.84c-3.38,4.64-6.7,9.53-9.92,14.64C809.89,295.77,808.55,299.19,823.43,304.76"/>
		<path d="M792.35,331.99c3.98-9.42,8.22-18.42,12.69-26.95c22.12,5.82,44.84,16.61,64.01,29.71c-3.69,7.04-7.2,14.46-10.5,22.21
			c-4.03-2.22-8.18-4.38-12.43-6.45c1.39-3.26,2.81-6.46,4.27-9.61c-3.97-2.1-8.03-4.11-12.15-6.01c-1.42,3.06-2.8,6.17-4.16,9.33
			c-4.18-1.8-8.41-3.52-12.67-5.12c1.4-3.26,2.82-6.46,4.28-9.61c-4.88-1.95-9.81-3.73-14.73-5.33c-1.75,3.78-3.46,7.65-5.13,11.58
			C801.32,334.33,796.81,333.08,792.35,331.99"/>
		<path d="M780.29,364.35c3.11-9.54,6.49-18.76,10.1-27.62c22.31,5.41,45.8,14.54,66.09,25.21c-1.93,4.73-3.77,9.58-5.54,14.54
			c-16.63-7.49-35.2-14.26-53.42-19.33c-1.24,3.47-2.44,6.99-3.6,10.55C789.34,366.48,784.78,365.36,780.29,364.35"/>
		<path d="M784.02,412.39c-24.66-5.96-9.89-35.5-1.61-40.24c3.27-1.87,7.26-2.52,17,0.01c1.51,0.42,3.01,0.84,4.52,1.27
			c-1.72,5.39-3.35,10.88-4.89,16.46c-2.83-0.72-5.65-1.43-8.47-2.11c-10.01-2.29-6.84,4.19-6.8,4.26c1.46,2.66,8.9,3.53,11.53,3.17
			c0.98-0.14,1.91-0.26,8.53-5.94c10.46-8.97,14.79-12.68,28.21-7.36c5.48,2.17,15.68,6.21,11.48,23.08
			c-5.13,17.6-14.11,15.67-23.61,13.62c-0.91-0.21-1.82-0.41-2.74-0.62c1.21-5.51,2.52-10.95,3.92-16.29
			c1.69,0.47,3.38,0.94,5.06,1.41c9.02,2.45,5.73-3.31,5.69-3.37c-0.05-0.08-6.15-7.43-14.84,0.8
			C803.52,413.3,800.31,416.33,784.02,412.39"/>
		<path d="M816.21,470.86c0.37-3.93,0.79-7.89,1.28-11.87c-4.43-0.45-8.91-0.93-13.42-1.46c-0.45,3.68-0.85,7.33-1.2,10.97
			c-4.53-0.4-9.08-0.86-13.61-1.37c0.36-3.74,0.77-7.51,1.24-11.3c-10-1.33-19.94-2.84-29.47-4.5c0.78-6.38,1.71-12.81,2.78-19.28
			c22.65,4.19,47.53,8.32,69.87,11.67c-1.56,9.4-2.76,18.7-3.61,27.84C825.53,471.39,820.9,471.15,816.21,470.86"/>
		<path d="M757.75,500.97c0.07-10.4,0.55-21.05,1.45-31.91c22.71,3.71,47.83,5.9,70.52,6.41c-0.74,8.95-1.15,17.75-1.24,26.34
			c-4.56,0.37-9.22,0.64-13.94,0.82c0.04-3.61,0.13-7.26,0.27-10.94c-4.47,0.01-8.99-0.06-13.52-0.2
			c-0.14,3.58-0.23,7.13-0.28,10.64c-4.55-0.03-9.11-0.14-13.67-0.35c0.04-3.62,0.14-7.28,0.28-10.96
			c-5.26-0.35-10.5-0.81-15.67-1.38c-0.18,4.44-0.28,8.83-0.31,13.18C766.95,502.18,762.3,501.63,757.75,500.97"/>
		<path d="M783.19,523.06c12.84,1.18,19.28,1.77,30.23,1.99c-9.71,1.62-18.38,2.71-29.92,3.78
			C783.37,526.92,783.27,525,783.19,523.06 M758.53,528.45c0.38,5.82,0.89,11.52,1.54,17.1c11.24-0.43,34.63-1.33,69.58-12.59
			c-0.6-6.94-0.98-14.08-1.11-21.39c-12.04-0.11-37.11-0.35-70.78-9.51c-0.03,6.19,0.09,12.28,0.35,18.26
			c3.74,0.74,8.74,1.7,12.5,2.33c0.09,2.04,0.2,4.08,0.33,6.09C767.2,528.7,762.24,528.61,758.53,528.45"/>
		<path d="M812.66,566.48c-5.59,0.98-6.4,0.62-7.18-3.27c5.26-0.77,10.49-1.76,15.63-2.96c0.52,3.45-0.3,4.42-4.59,5.43
			C815.24,565.97,813.95,566.23,812.66,566.48 M815.65,579.14c19.98-4.11,18.81-11.4,16.49-25.93c-0.52-3.19-0.98-6.43-1.39-9.72
			c-22.6,5.58-47.66,7.54-70.35,4.85c0.67,5.42,1.47,10.73,2.4,15.9c10.22,1.12,20.9,1.17,31.61,0.26c0.59,3.97,0.12,4.63-7.58,5.08
			c-7.85,0.35-15.62,0.15-23.15-0.66c0.92,4.72,1.95,9.33,3.08,13.81c5.96,0.59,12.08,0.77,18.25,0.55
			c9.89-0.44,15.34-0.68,16.4-9.43C803.49,579.22,805.93,581.14,815.65,579.14"/>
		<path d="M775.44,609.79c-2.7-6.74-5.11-13.93-7.22-21.51c22.59,2.17,47.25-1.88,69.24-10.53c1.12,4.04,2.35,7.95,3.67,11.73
			c-17.33,7.75-36.42,12.36-54.91,12.87c0.93,2.64,1.89,5.22,2.9,7.74C784.52,610.26,779.95,610.17,775.44,609.79"/>
		<path d="M786.68,632.56c-3.66-6.02-7-12.63-10-19.76c22.49,1.86,46.69-3.48,68.04-14.01c2.48,5.88,5.22,11.35,8.22,16.35
			c-4.13,2.4-8.38,4.57-12.71,6.5c-1.26-2.1-2.47-4.28-3.65-6.53c-4.16,1.74-8.4,3.26-12.69,4.56c1.14,2.19,2.32,4.31,3.54,6.36
			c-4.25,1.37-8.55,2.5-12.87,3.39c-1.25-2.11-2.47-4.3-3.64-6.56c-5.03,0.96-10.08,1.58-15.1,1.86c1.41,2.72,2.89,5.33,4.41,7.85
			C795.69,632.88,791.16,632.88,786.68,632.56"/>
		<path d="M819.64,654.22c-19.79,2.04-30.61-11.59-26.21-16.33c1.75-1.89,4.47-2.24,14.6-3.55c1.49-0.19,2.97-0.42,4.46-0.67
			c1.95,3.05,3.99,5.94,6.11,8.65c-2.73,0.52-5.47,0.93-8.21,1.22c-4.19,0.45-6.49,0.7-4.28,2.42c2.76,2.14,10.77,0.25,11.98-0.22
			c1.6-0.62,2.2-0.85,4.44-6.16c3.01-7.12,4.25-10.06,21.97-16.33c6.15-2.18,12.53-3.4,17.5,2.36c7.05,9.38-3.6,14.83-9.96,18.09
			c-0.82,0.41-1.65,0.8-2.48,1.18c-2.22-2.11-4.37-4.39-6.43-6.85c1.59-0.68,3.16-1.41,4.73-2.16c2.03-1.01,6.25-3.11,3.5-4.19
			c-0.09-0.03-9.8,0.1-12.08,7.91C836.81,647.96,835.46,652.58,819.64,654.22"/>
		<path d="M840.85,667.88c-17.12,2.26-31.92-5.2-29.14-9.01c0.91-1.24,0.91-1.24,14.16-3.41c1.44-0.24,2.89-0.52,4.33-0.83
			c2.4,2.08,4.89,3.97,7.45,5.67c-2.64,0.61-5.29,1.09-7.96,1.45c-3.77,0.51-3.91,0.54-4.59,0.81c-0.04,0.11-0.09,0.27-0.13,0.38
			c0.11,0.11,12.7,5.2,16.16-4.97c4.13-12.14,29.26-21.94,37.76-16.95c8.86,6.04-2.05,12.5-7.3,15.6c-0.77,0.44-1.55,0.87-2.33,1.29
			c-2.63-1.08-5.18-2.36-7.66-3.84c1.5-0.76,2.98-1.57,4.45-2.41c2.04-1.19,5.45-3.19,3.13-3.76c-0.72-0.18-10.24,2.18-11.23,7.92
			C856.87,662.07,856.22,665.85,840.85,667.88"/>
		<path d="M862.34,672.43c-5.18,0.21-12.09,0.39-17.28,0.27c-2.67-0.13-5.34-0.43-7.99-0.92c21.71,1.1,42.75-7.33,59.46-22.38
			c2.8,0.52,5.61,0.79,8.44,0.84c-12.76,12.1-28.45,19.95-45.26,22.05c1.98,0.03,3.96-0.03,5.95-0.19
			C864.57,672.23,863.46,672.34,862.34,672.43"/>
		<path d="M887.55,668.01c-0.15,0.04-0.3,0.08-0.45,0.12c11.63-3.17,19.68-8.02,24.73-11.4c-6.13,4.48-12.17,7.57-18.99,9.73
			L887.55,668.01 M905.47,661.83l2.23-0.96c6.74-3.38,12.06-6.05,20.32-15.14c-4.11,1.64-8.23,2.85-12.35,3.6
			c-11.07,9.51-23.91,19.08-48.28,22.59l1.14-0.14C881.49,669.62,890.05,668.19,905.47,661.83"/>
		<path d="M930.45,648.52c6.61-4.76,6.61-4.76,7.03-4.99c-0.11,0.23-1.76,1.41-2.26,1.76L930.45,648.52 M935.23,645.27
			c3.38-2.56,7.94-5.91,11.22-8.6l0.65-0.55c1.49-1.32,1.65-1.58,1.72-1.92c-0.43,0.04-0.43,0.04-6.06,3.75
			c-2.8,1.83-5.61,3.47-8.43,4.91c-5.52,5.99-11.97,10.88-19.13,14.47C927.38,650.6,929.57,649.39,935.23,645.27"/>
		<path d="M969.97,613.44c-3.3,3.61-7.66,8.45-11.1,11.93l-6.74,6.38c1.65-1.47,3.2-3.05,4.65-4.72c4.55-4.12,9.02-8.73,13.38-13.81
			C970.1,613.29,970.04,613.36,969.97,613.44"/>
		<path d="M878.29,208.37c2.04-0.28,4.08-0.45,6.11-0.53l6.76-0.07c0.35,0.01,0.71,0.01,1.06,0.02c2.39,0.08,4.77,0.37,7.17,0.39
			c-0.44-0.08-0.44-0.08-1.24-0.13c4.76,0.51,11.12,1.21,15.84,2.01c0.11,0.02,0.26,0.06,0.37,0.08c-0.24,0.16-0.24,0.16-4.07-0.01
			c-9.84-0.42-19.63-1.69-29.49-1.81C879.96,208.32,879.12,208.34,878.29,208.37"/>
		<path d="M825.76,223.26c-0.51,0.24-1.17,0.57-1.67,0.83c3.39-1.61,7.86-3.85,11.32-5.31l5.26-2.09
			c31.06-11.52,50.04-8.09,48.73-4.95c-0.39,0.93-2.93,1.86-4.15,2.3c-8.19,2.75-8.19,2.75-29.38,2.42c-0.82-0.01-1.64,0-2.46,0.02
			c3.05-1.56,6.1-2.93,9.17-4.08c1.54-0.05,3.1-0.05,4.66,0.01c5.16,0.19,6.24,0.23,7.16-0.51
			C869.5,208.06,836.77,218.03,825.76,223.26"/>
		<path d="M790.06,247.91c3.04-2.84,6.11-5.47,9.21-7.88l6.37-4.7l0.67-0.47c13.62-9.48,31.31-13.31,50.99-9.53
			c1.04,0.2,2.07,0.42,3.1,0.65c-3.27,2.28-6.51,4.78-9.73,7.49c-1.03-0.24-2.07-0.45-3.11-0.65c-16.42-3.15-31.21-1.18-43.26,4.81
			c-1.83,1.54-3.65,3.16-5.45,4.85C795.72,244.02,792.78,245.84,790.06,247.91"/>
		<path d="M795.65,250.67c8.63-2.09,16.55-1.19,21.76-0.33c-9.17-0.07-17.05,1.15-24.79,3.83
			C793.62,252.98,794.63,251.81,795.65,250.67 M776.28,262.55c-2.8,3.34-5.55,6.85-8.25,10.54c7.61-5.38,23.44-16.58,57.41-13.14
			c4.34-5.5,8.77-10.6,13.3-15.28c-10.87-3.09-31.09-8.84-49.84,4.34c-2.94,2.81-5.85,5.83-8.72,9.03c2.03-1.28,4.8-2.92,6.95-3.99
			c-1.03,1.16-2.05,2.34-3.06,3.54C781.68,259,778.31,260.67,776.28,262.55"/>
		<path d="M766.66,285.76c-3.05,0.9-3.36,0.87-2.01-1.57c0.19-0.35,0.47-0.82,0.68-1.16c3.77-1.59,8.01-2.74,12.7-3.42
			c-2.76,4.1-2.93,4.13-7.16,5.07C769.41,284.99,768.01,285.35,766.66,285.76 M789.56,283.39c-5.76-0.39-5.76-0.39-3.32-4.45
			c4.1-0.1,8.45,0.11,13.05,0.66C796.97,283.12,796.49,283.85,789.56,283.39 M757.79,299.44c1.27-0.37,2.59-0.7,3.96-0.98
			c7.07-1.53,9.86-3.31,14.94-9.53c-1.5,4.55-1.12,6.22,1.55,6.87c0.11,0.03,11.65,2.55,20.15-1.59c4.17-2.04,6.84-4.9,11.91-12.78
			c2.79-4.41,5.65-8.66,8.56-12.72c-1.04-0.23-2.08-0.44-3.11-0.64c-20.79-3.99-37.77-1.11-49.06,6.87
			c-3.04,4.24-6.01,8.7-8.9,13.36c-7.1,11.61-6.96,12.89-2.62,11.86C755.98,299.97,757.25,299.6,757.79,299.44"/>
		<path d="M735.38,332.37c3.56-8.56,7.35-16.75,11.35-24.52c9.9-5.69,26.04-7.18,46.83-3.19c1.04,0.2,2.08,0.41,3.12,0.63
			c-4.28,8.3-8.34,17.03-12.16,26.16c-1.05-0.22-2.09-0.43-3.12-0.63c-3.33-0.64-6.53-1.16-9.59-1.57
			c1.53-3.64,3.09-7.22,4.69-10.74c-3.82-0.49-7.43-0.79-10.83-0.91c-1.48,3.25-2.93,6.57-4.35,9.93c-3.38-0.17-6.54-0.18-9.46-0.03
			c1.39-3.3,2.81-6.55,4.27-9.74c-3.42,0.26-6.53,0.76-9.31,1.47c-1.65,3.63-3.27,7.33-4.83,11.11
			C739.5,330.86,737.3,331.54,735.38,332.37"/>
		<path d="M724.64,361.72c2.77-8.65,5.78-17.02,9-25.07c8.98-3.68,24.57-3.95,45.36,0.03c1.04,0.2,2.08,0.41,3.13,0.62
			c-2.23,5.57-4.36,11.27-6.4,17.1c-1.05-0.21-2.09-0.42-3.13-0.62c-16.42-3.15-29.44-4.04-38.42-3c-1.16,3.32-2.28,6.68-3.37,10.08
			C728.46,361.03,726.4,361.32,724.64,361.72"/>
		<path d="M720.65,403.32c-12.39-2.74,2.16-35.28,6.17-38.13c2.29-1.63,5.09-1.73,6.59-1.78c0.85-0.01,1.74,0,2.65,0.02
			c-1.68,5.36-3.27,10.82-4.76,16.38c-1.67-0.13-3.24-0.22-4.7-0.28c-5.46-0.07-3.75,5.79-3.71,5.85c1.03,1.34,4.7,0.69,5.62,0.13
			c0.91-0.56,1.16-0.71,5.89-7.22c8.24-11.33,12-16.51,25.29-12.67c7.91,2.28,10.38,9.71,7.34,22.08
			c-5.86,20.82-14.86,19.32-22.79,18.01c-0.75-0.14-1.48-0.27-2.21-0.4c1.28-5.98,2.66-11.87,4.15-17.67
			c1.36,0.22,2.77,0.45,4.21,0.69c7.99,1.24,5.32-4.51,5.28-4.57c-1.11-1.67-5.52-2.47-8.01-1.45c-1.65,0.68-3.47,3.12-6.75,7.53
			C732.32,401.38,729.43,405.27,720.65,403.32"/>
		<path d="M739.29,463.21c0.38-4.35,0.83-8.73,1.34-13.14c-3.73-0.8-7.21-1.6-10.43-2.39c-0.45,3.88-0.86,7.75-1.2,11.59
			c-3.21-0.85-6.16-1.72-8.83-2.59c0.34-3.76,0.73-7.55,1.18-11.36c-5.92-1.72-10.51-3.4-13.67-4.96
			c0.67-5.74,1.47-11.53,2.41-17.36c7.34,2.35,21.94,5.71,42.72,9.7c1.04,0.2,2.08,0.4,3.13,0.6c-1.76,10.97-3.09,21.81-4.02,32.47
			c-1.05-0.19-2.1-0.39-3.13-0.59C745.46,464.53,742.29,463.87,739.29,463.21"/>
		<path d="M705,484.99c0.01-9.34,0.38-18.92,1.14-28.69c7.07,4.67,21.5,9.44,42.28,13.43c1.04,0.2,2.08,0.39,3.13,0.59
			c-0.8,10.44-1.22,20.68-1.26,30.69c-1.05-0.19-2.1-0.38-3.13-0.58c-3.33-0.64-6.5-1.33-9.5-2.06c0.02-3.99,0.09-8.02,0.23-12.08
			c-3.73-0.88-7.19-1.82-10.39-2.8c-0.13,3.76-0.2,7.49-0.22,11.19c-3.2-1.04-6.14-2.13-8.8-3.28c0.02-3.62,0.09-7.28,0.22-10.97
			c-3.07-1.22-5.78-2.49-8.1-3.79c-0.14,4.19-0.21,8.35-0.22,12.46C708.27,487.76,706.47,486.39,705,484.99"/>
		<path d="M716.4,511.45c5.82,3.88,11.56,7.27,20.61,11.16c-7.95-1.47-14.2-3.16-20.27-5.48
			C716.61,515.25,716.5,513.36,716.4,511.45 M705.85,509.67c0.37,5.22,0.87,10.34,1.48,15.35c4.22,3.61,13,11.11,44.53,12.22
			c-0.76-8.07-1.24-16.38-1.45-24.88c-9.99-3.31-33.4-11.06-45.41-26.39c0.01,5.56,0.15,11.03,0.41,16.4
			c1.38,1.64,3.28,3.78,4.8,5.29c0.1,1.93,0.22,3.85,0.35,5.75C709.1,512.35,707.19,510.88,705.85,509.67"/>
		<path d="M738.13,565.26c-4.37-1.68-4.87-2.52-5.66-6.48c3.77,1.61,7.9,3.02,12.37,4.21c0.62,3.75-0.06,4.37-3.63,3.32
			C740.16,565.97,739.13,565.62,738.13,565.26 M741.41,578.93c17.81,7.19,16.1-2.9,13.52-18.17c-0.63-3.7-1.19-7.47-1.7-11.29
			c-1.05-0.18-2.1-0.36-3.13-0.56c-20.79-3.99-35.28-11.76-42.45-21.4c0.64,4.86,1.39,9.62,2.25,14.25
			c3.47,5.03,8.57,9.56,15.18,13.36c0.39,2.31,0.28,2.61,0.04,3.2c-0.42,0.14-0.94,0.32-4.08-1.89c-4.29-3.14-7.75-6.66-10.33-10.48
			c0.86,4.24,1.82,8.37,2.87,12.38c2.1,3.26,4.75,6.32,7.92,9.12c6.03,5.14,8.9,6.38,8.88-0.49
			C732.32,573.04,734.27,576.05,741.41,578.93"/>
		<path d="M721.59,582.49c-2.48-6.02-4.7-12.44-6.64-19.21c7.68,12.14,22.48,21.41,43.27,25.4c1.04,0.2,2.08,0.38,3.13,0.55
			c1.35,4.68,2.81,9.21,4.38,13.58c-1.05-0.17-2.09-0.35-3.13-0.55c-16.42-3.15-29.2-9.92-37.77-19.03c0.9,2.48,1.83,4.91,2.81,7.28
			C725.32,588.01,723.3,585.33,721.59,582.49"/>
		<path d="M732.56,603.87l-0.18-0.28l-2.01-3.31c-2.76-4.67-5.31-9.71-7.64-15.09c8.22,13.66,23.35,23.87,44.14,27.85
			c1.04,0.2,2.08,0.38,3.13,0.55c2.95,6.8,6.21,13.11,9.76,18.88c-1.05-0.16-2.09-0.34-3.13-0.54c-3.33-0.64-6.53-1.46-9.58-2.44
			c-1.42-2.3-2.79-4.69-4.11-7.16c-3.79-1.2-7.35-2.65-10.68-4.33c1.22,2.28,2.49,4.49,3.79,6.63c-3.35-1.71-6.47-3.65-9.36-5.8
			c-1.28-2.09-2.52-4.26-3.72-6.5c-3.3-2.43-6.26-5.12-8.89-8.05c1.36,2.55,2.78,5,4.25,7.35
			C736.2,609.18,734.26,606.6,732.56,603.87"/>
		<g>
			<path d="M736.63,610.07c2.4,3.28,5.44,6.24,6.74,7.5c0.89,0.84,1.8,1.67,2.75,2.46c1.95,2.97,3.99,5.77,6.11,8.4
				c-1.79-1.53-3.49-3.15-5.08-4.85c-0.6-0.65-1.43-1.54-2.41-2.72C742.28,617.65,738.94,613.39,736.63,610.07"/>
			<path d="M753.06,630.24l-4.51-4.89c5.22,5.82,5.46,5.3,5.93,4.28c0.66-1.44,1.57-3.42,21.77,5.56
				c5.58,2.48,10.34,5.98,14.13,10.4c5.46,6.78,1.48,7.03-0.48,6.82c-3.18-0.34-7.22-1.86-8.95-2.51c-0.77-0.3-1.54-0.62-2.29-0.95
				c-2.43-2.22-4.77-4.64-7.03-7.24c1.4,0.6,2.84,1.17,4.3,1.69c3.62,1.25,3.82,1.03,4.06,0.78c-0.65-1.49-10.54-6.45-11.62-4.25
				c-1.22,2.48-1.51,3.07-7.49-2.17L753.06,630.24"/>
		</g>
		<path d="M797.38,661.42c-1.9-0.84-3.76-1.78-5.59-2.82c1.43,0.63,2.9,1.21,4.38,1.75c2.51,0.89,3.34,1.09,3.87,1.18
			c-0.46-1.06-11.56-4.57-11.66-4.57c-0.01,0.02-0.02,0.05-0.03,0.07l-5.62-3.17l-9.16-5.96l26.62,10.25c5.17,2.16,8,3.76,10.25,5.1
			c3.6,2.21,3.76,2.62,3.76,3.2c-1.65,0.85-9.82-2.18-10.75-2.53L797.38,661.42"/>
		<path d="M830.2,671.13c0.33,0.05,0.65,0.1,0.98,0.15c0.26,0.04,0.53,0.08,0.79,0.12L830.2,671.13"/>
		<path d="M779.34,257.92c-4.69,5.13-10.79,12.11-15.2,17.49c1.36-1.56,3.15-3.68,4.62-5.15c3.8-4.82,7.69-9.29,11.66-13.39
			L779.34,257.92"/>
		<path d="M750.13,295.34c0.29-0.45,0.58-0.89,0.89-1.32c-1.13,1.78-2.29,3.55-3.39,5.35L750.13,295.34 M746.91,300.55l-6.03,10.54
			l0.09-0.16c4.42-7.56,9.84-14.45,14.51-21.84c2.45-3.87,4.95-7.59,7.5-11.15c-1.74,1.6-3.3,3.36-4.67,5.26
			C754.81,288.35,750.1,295.2,746.91,300.55"/>
		<path d="M728.99,336.45c1.27-3.03,2.57-6.02,3.91-8.94c-0.54,0.75-1,1.54-1.38,2.37l2.06-4.43l4.34-8.77
			c2.45-3.85,2.6-4.08,5.62-6.68c-3.75,7.28-7.31,14.93-10.66,22.93C731.28,333.96,729.98,335.13,728.99,336.45"/>
		<path d="M720.38,357.68l2.12-5.88l3.11-8.08c1.36-2.45,2.11-3.8,5.17-5.65c-1.95,4.88-3.82,9.88-5.61,14.99
			C722.66,354.24,721.05,355.79,720.38,357.68"/>
		<path d="M708.41,400.82c1.04-4.85,2.16-9.62,3.36-14.33c0.12-0.16,0.29-0.31,0.5-0.45c1.5-1.09,1.9-4.78,1.74-5.25
			c-0.05-0.03-0.12-0.06-0.18-0.09c-0.57,0.28-0.83,0.66-2.25,6.12l1.92-7.21l3.24-10.97c1.03-3.04,2.08-2.21,2.23-1.93
			c0.35,0.64,0.83,3.41-2.24,15.22c-4.75,17.73-6.96,18.43-8.14,18.81C708.53,400.77,708.46,400.79,708.41,400.82"/>
		<path d="M701.92,448.01c0.32-3.62,0.69-7.27,1.12-10.94c-0.39-0.53-0.55-1.04-0.5-1.52l0.02-0.13c0.63-4.54,1.38-10.6,2.1-15.12
			c-0.06,0.47,1.02,1.12,3.17,1.92c-1.54,9.62-2.71,19.12-3.53,28.47C703.17,449.77,702.38,448.88,701.92,448.01"/>
		<path d="M700.56,477.28c0.01-3.32,0.08-6.67,0.19-10.06c-0.3-0.87-0.44-1.73-0.41-2.6l0-0.12c0.24-4.45,0.48-10.38,0.82-14.82
			c-0.11,1.61,0.84,3.28,2.81,4.99c-0.7,9.15-1.07,18.13-1.1,26.9C701.77,480.17,700.99,478.73,700.56,477.28"/>
		<path d="M700.69,494.53c0.07,1.1,0.16,1.71,0.3,2.6c-0.14-0.66-0.19-1-0.24-1.7L700.69,494.53 M700.61,493.06
			c0.33,4.28,0.68,10,1.11,14.27c0.76,3.36,0.8,3.56,2.53,6.02c-0.66-7.08-1.09-14.36-1.28-21.82c-2.25-5.04-2.25-5.04-2.77-9.95
			L700.61,493.06"/>
		<path d="M704.99,530.22c0.1,0.52,0.21,1.05,0.34,1.56c0.34,1.85,0.45,2.41,0.46,2.54c-0.01-0.03-0.02-0.08-0.03-0.12
			L704.99,530.22 M703.46,521.12c3.03,17.17,3.09,17.5,5.29,26.02l0.16,0.58c0.19,0.57,0.23,0.71,0.39,0.98
			c0.16-0.18,0.16-0.18-2.36-14.72c-0.55-3.24-1.05-6.55-1.49-9.9c-1.44-2.66-2.36-5.43-2.75-8.28L703.46,521.12"/>
		<path d="M715.05,567.57c-1.41-4.27-3.36-9.95-4.62-14.27c0.56,1.93,1.27,3.81,2.13,5.64c1.18,4.11,2.46,8.08,3.84,11.9
			C715.91,569.77,715.46,568.68,715.05,567.57"/>
		<path d="M719.8,579.53c0.11,0.25,0.22,0.5,0.34,0.76c0.3,0.68,0.6,1.36,0.9,2.03L719.8,579.53"/>
	</g>
</g>
</svg>
