<?xml version="1.0" encoding="utf-8"?>
<!-- Generator: Adobe Illustrator 24.3.0, SVG Export Plug-In . SVG Version: 6.00 Build 0)  -->
<svg version="1.1" id="Слой_1" xmlns="http://www.w3.org/2000/svg" xmlns:xlink="http://www.w3.org/1999/xlink" x="0px" y="0px"
	 viewBox="0 0 1920 1080" style="enable-background:new 0 0 1920 1080;" xml:space="preserve">
<style type="text/css">
	.st0{display:none;}
	.st1{enable-background:new    ;}
	.st2{fill:#919191;}
	.st3{fill:#B7B7B7;}
	.st4{clip-path:url(#SVGID_2_);enable-background:new    ;}
	.st5{clip-path:url(#SVGID_4_);enable-background:new    ;}
	.st6{clip-path:url(#SVGID_6_);enable-background:new    ;}
	.st7{fill:#B3B3B3;}
	.st8{fill:#B8B8B8;}
	.st9{clip-path:url(#SVGID_8_);enable-background:new    ;}
	.st10{fill:#ADADAD;}
	.st11{fill:#A8A8A8;}
	.st12{fill:#A3A3A3;}
	.st13{fill:#C4C4C4;}
	.st14{fill:#A9A9A9;}
	.st15{fill:#DCDCDC;}
	.st16{fill:#C5C5C5;}
	.st17{fill:none;}
	.st18{clip-path:url(#SVGID_10_);enable-background:new    ;}
	.st19{clip-path:url(#SVGID_12_);enable-background:new    ;}
	.st20{clip-path:url(#SVGID_14_);enable-background:new    ;}
	.st21{clip-path:url(#SVGID_16_);enable-background:new    ;}
	.st22{clip-path:url(#SVGID_18_);}
	.st23{fill:#FFFFFF;}
</style>
<rect class="st0" width="1920" height="1080"/>
<g>
	<g>
		<g class="st1">
			<g>
				<polygon class="st2" points="920.19,528.22 920.35,530.62 870.4,514.4 870.24,512 				"/>
			</g>
			<g>
				<polygon points="865.26,547.46 865.42,549.86 863.76,551.18 863.6,548.77 				"/>
			</g>
			<g>
				<polygon points="871.01,549.32 871.16,551.73 865.42,549.86 865.26,547.46 				"/>
			</g>
			<g>
				<polygon class="st3" points="871.01,549.32 871.16,551.73 870.26,553.27 870.1,550.87 				"/>
			</g>
			<g class="st1">
				<defs>
					<path id="SVGID_1_" class="st1" d="M850.02,561.43c-0.05-0.8-0.11-1.6-0.16-2.4c4.13-2.8,8.72-6.23,13.74-10.26l0.16,2.4
						C858.74,555.2,854.14,558.63,850.02,561.43z"/>
				</defs>
				<clipPath id="SVGID_2_">
					<use xlink:href="#SVGID_1_"  style="overflow:visible;"/>
				</clipPath>
				<g class="st4">
					<path d="M863.6,548.77l0.16,2.4c-3.12,2.5-6.07,4.77-8.85,6.8l-0.16-2.4C857.53,553.54,860.48,551.27,863.6,548.77"/>
					<path d="M854.75,555.58l0.16,2.4c-4.82,3.52-9.11,6.33-12.83,8.39l-0.16-2.4C845.65,561.91,849.94,559.1,854.75,555.58"/>
				</g>
			</g>
			<g class="st1">
				<defs>
					<path id="SVGID_3_" class="st1" d="M850.02,561.43c-2.88,1.95-5.52,3.6-7.93,4.93l-0.16-2.4c2.41-1.33,5.06-2.98,7.93-4.93
						C849.91,559.83,849.97,560.63,850.02,561.43z"/>
				</defs>
				<clipPath id="SVGID_4_">
					<use xlink:href="#SVGID_3_"  style="overflow:visible;"/>
				</clipPath>
				<g class="st5">
					<path d="M854.75,555.58l0.16,2.4c-4.82,3.52-9.11,6.33-12.83,8.39l-0.16-2.4C845.65,561.91,849.94,559.1,854.75,555.58"/>
				</g>
			</g>
			<g class="st1">
				<defs>
					<path id="SVGID_5_" class="st1" d="M859.91,557.53l0.16,2.4c-5.27,3.88-9.97,6.96-14.08,9.22l-0.16-2.4
						C849.93,564.49,854.64,561.41,859.91,557.53z"/>
				</defs>
				<clipPath id="SVGID_6_">
					<use xlink:href="#SVGID_5_"  style="overflow:visible;"/>
				</clipPath>
				<g class="st6">
					<path class="st7" d="M859.91,557.53l0.16,2.4c-0.16,0.12-0.33,0.24-0.49,0.36l-0.16-2.4
						C859.58,557.77,859.74,557.65,859.91,557.53"/>
					<path class="st8" d="M859.42,557.89l0.16,2.4c-5.07,3.71-9.61,6.67-13.59,8.86l-0.16-2.4
						C849.81,564.56,854.35,561.6,859.42,557.89"/>
				</g>
			</g>
			<g class="st1">
				<defs>
					<path id="SVGID_7_" class="st1" d="M870.1,550.87l0.16,2.4c-5.29,8.88-8.55,15.3-9.69,19.12l-0.16-2.4
						C861.56,566.17,864.81,559.74,870.1,550.87z"/>
				</defs>
				<clipPath id="SVGID_8_">
					<use xlink:href="#SVGID_7_"  style="overflow:visible;"/>
				</clipPath>
				<g class="st9">
					<path class="st10" d="M870.1,550.87l0.16,2.4c-0.98,1.65-1.9,3.22-2.74,4.7l-0.16-2.4
						C868.21,554.08,869.12,552.52,870.1,550.87"/>
					<path class="st11" d="M867.36,555.57l0.16,2.4c-3.09,5.43-5.23,9.71-6.39,12.78l-0.16-2.4
						C862.13,565.28,864.27,561,867.36,555.57"/>
					<path class="st12" d="M860.97,568.35l0.16,2.4c-0.22,0.59-0.41,1.14-0.56,1.64l-0.16-2.4
						C860.56,569.49,860.75,568.94,860.97,568.35"/>
				</g>
			</g>
			<g>
				<polygon class="st13" points="845.82,566.75 845.98,569.15 696.82,652.71 696.66,650.31 				"/>
			</g>
			<g>
				<polygon points="841.93,563.96 842.08,566.37 686.17,653.7 686.02,651.3 				"/>
			</g>
			<g>
				<polygon class="st13" points="870.24,512 870.4,514.4 500.62,714.55 500.46,712.15 				"/>
			</g>
			<g>
				<polygon class="st14" points="860.41,569.99 860.57,572.39 823.96,698.44 823.8,696.04 				"/>
			</g>
			<g>
				<path class="st15" d="M696.66,650.31l122.69,39.84l35.03-120.62c0.84-2.84,2.67-6.8,5.52-12c-5.27,3.88-9.97,6.96-14.08,9.22
					L696.66,650.31 M870.1,550.87c-5.29,8.88-8.55,15.3-9.69,19.12L823.8,696.04L686.02,651.3l155.91-87.34
					c5.87-3.24,13.15-8.36,21.68-15.19l1.66-1.32l5.75,1.87L870.1,550.87z"/>
			</g>
			<g>
				<polygon class="st2" points="823.8,696.04 823.96,698.44 686.17,653.7 686.02,651.3 				"/>
			</g>
			<g>
				<polygon points="649.6,671.7 649.75,674.1 550.26,730.67 550.1,728.27 				"/>
			</g>
			<g>
				<polygon points="550.1,728.27 550.26,730.67 500.62,714.55 500.46,712.15 				"/>
			</g>
			<g>
				<polygon class="st2" points="550.75,732.91 550.91,735.31 489.85,715.48 489.69,713.08 				"/>
			</g>
			<g>
				<polygon class="st16" points="650.23,676.35 650.38,678.76 550.91,735.31 550.75,732.91 				"/>
			</g>
			<g>
				<polygon points="814.85,725.36 815.01,727.76 649.75,674.1 649.6,671.7 				"/>
			</g>
			<g>
				<polygon class="st2" points="808.04,727.6 808.2,730 650.38,678.76 650.23,676.35 				"/>
			</g>
			<g>
				<polygon class="st11" points="814.85,725.36 815.01,727.76 792.39,809.29 792.23,806.89 				"/>
			</g>
			<g>
				<polygon points="920.19,528.22 920.35,530.62 842.05,825.41 841.89,823.01 				"/>
			</g>
			<g>
				<polygon points="841.89,823.01 842.05,825.41 792.39,809.29 792.23,806.89 				"/>
			</g>
			<g>
				<path class="st15" d="M814.85,725.36l-22.62,81.53l49.66,16.13l78.3-294.79L870.24,512L500.46,712.15l49.64,16.12l99.49-56.57
					L814.85,725.36 M926.94,525.98l-80.44,302.96l-61.04-19.82l22.58-81.52l-157.82-51.24l-99.48,56.55l-61.06-19.83l380-205.69
					L926.94,525.98z"/>
			</g>
			<g>
				<path d="M686.02,651.3l137.79,44.74l36.61-126.05c1.14-3.82,4.4-10.24,9.69-19.12l0.9-1.54l-5.75-1.87l-1.66,1.32
					c-8.53,6.83-15.81,11.95-21.68,15.19L686.02,651.3 M920.19,528.22l-78.3,294.79l-49.66-16.13l22.62-81.53L649.6,671.7
					l-99.49,56.57l-49.64-16.12L870.24,512L920.19,528.22z"/>
			</g>
			<g>
				<polygon class="st2" points="846.49,828.94 846.65,831.34 785.61,811.52 785.46,809.12 				"/>
			</g>
			<g>
				<polygon class="st11" points="926.94,525.98 927.1,528.38 846.65,831.34 846.49,828.94 				"/>
			</g>
		</g>
	</g>
	<g>
		<polygon class="st2" points="990.08,523.11 990.24,525.51 940.29,509.29 940.13,506.89 		"/>
		<polygon points="935.15,542.35 935.31,544.75 933.66,546.07 933.5,543.67 		"/>
		<polygon points="940.9,544.21 941.06,546.62 935.31,544.75 935.15,542.35 		"/>
		<polygon class="st3" points="940.9,544.21 941.06,546.62 940.15,548.16 940,545.76 		"/>
		<g class="st1">
			<path class="st17" d="M919.91,556.32c-0.05-0.8-0.11-1.6-0.16-2.4c4.13-2.8,8.72-6.23,13.74-10.26l0.16,2.4
				C928.63,550.09,924.04,553.52,919.91,556.32z"/>
			<g class="st1">
				<path d="M933.5,543.67l0.16,2.4c-3.12,2.5-6.07,4.77-8.85,6.8l-0.16-2.4C927.42,548.43,930.38,546.16,933.5,543.67"/>
				<path d="M924.65,550.47l0.16,2.4c-4.82,3.52-9.11,6.33-12.83,8.39l-0.16-2.4C915.54,556.8,919.83,553.99,924.65,550.47"/>
			</g>
		</g>
		<g class="st1">
			<path class="st17" d="M919.91,556.32c-2.88,1.95-5.52,3.6-7.93,4.93l-0.16-2.4c2.41-1.33,5.06-2.98,7.93-4.93
				C919.81,554.72,919.86,555.52,919.91,556.32z"/>
			<path d="M924.65,550.47l0.16,2.4c-4.82,3.52-9.11,6.33-12.83,8.39l-0.16-2.4C915.54,556.8,919.83,553.99,924.65,550.47"/>
		</g>
		<g class="st1">
			<path class="st17" d="M929.8,552.42l0.16,2.4c-5.27,3.88-9.97,6.96-14.08,9.22l-0.16-2.4
				C919.83,559.38,924.53,556.3,929.8,552.42z"/>
			<g class="st1">
				<path class="st7" d="M929.8,552.42l0.16,2.4c-0.16,0.12-0.33,0.24-0.49,0.36l-0.16-2.4
					C929.47,552.66,929.63,552.54,929.8,552.42"/>
				<path class="st8" d="M929.31,552.78l0.16,2.4c-5.07,3.71-9.61,6.67-13.59,8.86l-0.16-2.4
					C919.7,559.45,924.24,556.49,929.31,552.78"/>
			</g>
		</g>
		<g class="st1">
			<path class="st17" d="M940,545.76l0.16,2.4c-5.29,8.88-8.55,15.3-9.69,19.12l-0.16-2.4C931.45,561.06,934.71,554.63,940,545.76z"
				/>
			<g class="st1">
				<path class="st10" d="M940,545.76l0.16,2.4c-0.98,1.65-1.9,3.22-2.74,4.7l-0.16-2.4C938.1,548.98,939.01,547.41,940,545.76"/>
				<path class="st11" d="M937.26,550.46l0.16,2.4c-3.09,5.43-5.23,9.71-6.39,12.78l-0.16-2.4
					C932.02,560.17,934.16,555.89,937.26,550.46"/>
				<path class="st12" d="M930.87,563.24l0.16,2.4c-0.22,0.59-0.41,1.14-0.56,1.64l-0.16-2.4
					C930.46,564.38,930.64,563.83,930.87,563.24"/>
			</g>
		</g>
		<polygon class="st13" points="915.72,561.64 915.88,564.04 766.71,647.6 766.56,645.2 		"/>
		<polygon points="911.82,558.85 911.98,561.26 756.07,648.59 755.91,646.19 		"/>
		<polygon class="st13" points="940.13,506.89 940.29,509.29 570.51,709.44 570.36,707.04 		"/>
		<polygon class="st14" points="930.31,564.88 930.46,567.28 893.85,693.33 893.7,690.93 		"/>
		<g>
			<path class="st15" d="M766.56,645.2l122.69,39.84l35.03-120.62c0.84-2.84,2.67-6.8,5.52-12c-5.27,3.88-9.97,6.96-14.08,9.22
				L766.56,645.2 M940,545.76c-5.29,8.88-8.55,15.3-9.69,19.12L893.7,690.93l-137.79-44.74l155.91-87.34
				c5.87-3.24,13.15-8.36,21.68-15.19l1.66-1.32l5.75,1.87L940,545.76z"/>
		</g>
		<polygon class="st2" points="893.7,690.93 893.85,693.33 756.07,648.59 755.91,646.19 		"/>
		<polygon points="719.49,666.59 719.65,668.99 620.16,725.56 620,723.16 		"/>
		<polygon points="620,723.16 620.16,725.56 570.52,709.44 570.36,707.04 		"/>
		<polygon class="st2" points="620.64,727.8 620.8,730.2 559.74,710.37 559.58,707.97 		"/>
		<polygon class="st16" points="720.12,671.24 720.28,673.65 620.8,730.2 620.64,727.8 		"/>
		<polygon points="884.74,720.25 884.9,722.65 719.65,668.99 719.49,666.59 		"/>
		<polygon class="st2" points="877.93,722.49 878.09,724.89 720.28,673.65 720.12,671.24 		"/>
		<polygon class="st11" points="884.74,720.25 884.9,722.65 862.28,804.18 862.12,801.78 		"/>
		<polygon points="990.08,523.11 990.24,525.51 911.94,820.3 911.79,817.9 		"/>
		<polygon points="911.79,817.9 911.94,820.3 862.28,804.18 862.12,801.78 		"/>
		<g>
			<path class="st15" d="M884.74,720.25l-22.62,81.53l49.66,16.13l78.3-294.79l-49.95-16.22L570.36,707.04L620,723.16l99.49-56.57
				L884.74,720.25 M996.83,520.87l-80.44,302.96l-61.04-19.82l22.58-81.52l-157.82-51.24l-99.48,56.55l-61.06-19.83l380-205.69
				L996.83,520.87z"/>
		</g>
		<g>
			<path d="M755.91,646.19l137.79,44.74l36.61-126.05c1.14-3.82,4.4-10.24,9.69-19.12l0.9-1.54l-5.75-1.87l-1.66,1.32
				c-8.53,6.83-15.81,11.95-21.68,15.19L755.91,646.19 M990.08,523.11l-78.3,294.79l-49.66-16.13l22.62-81.53l-165.25-53.66
				L620,723.16l-49.64-16.12l369.78-200.15L990.08,523.11z"/>
		</g>
		<polygon class="st2" points="916.39,823.83 916.55,826.23 855.51,806.41 855.35,804.01 		"/>
		<polygon class="st11" points="996.83,520.87 996.99,523.27 916.55,826.23 916.39,823.83 		"/>
	</g>
	<g>
		<polygon class="st2" points="955.24,488.23 955.4,490.63 905.45,474.41 905.29,472.01 		"/>
		<polygon points="900.31,507.47 900.47,509.87 898.81,511.19 898.65,508.79 		"/>
		<polygon points="906.05,509.33 906.21,511.74 900.47,509.87 900.31,507.47 		"/>
		<polygon class="st3" points="906.05,509.33 906.21,511.74 905.31,513.28 905.15,510.88 		"/>
		<g class="st1">
			<path class="st17" d="M885.07,521.44c-0.05-0.8-0.11-1.6-0.16-2.4c4.13-2.8,8.72-6.23,13.74-10.26l0.16,2.4
				C893.79,515.21,889.19,518.64,885.07,521.44z"/>
			<g class="st1">
				<path d="M898.65,508.79l0.16,2.4c-3.12,2.5-6.07,4.77-8.85,6.8l-0.16-2.4C892.58,513.55,895.53,511.28,898.65,508.79"/>
				<path d="M889.8,515.59l0.16,2.4c-4.82,3.52-9.11,6.33-12.83,8.39l-0.16-2.4C880.69,521.92,884.98,519.11,889.8,515.59"/>
			</g>
		</g>
		<g class="st1">
			<path class="st17" d="M885.07,521.44c-2.88,1.95-5.52,3.6-7.93,4.93l-0.16-2.4c2.41-1.33,5.06-2.98,7.93-4.93
				C884.96,519.84,885.01,520.64,885.07,521.44z"/>
			<path d="M889.8,515.59l0.16,2.4c-4.82,3.52-9.11,6.33-12.83,8.39l-0.16-2.4C880.69,521.92,884.98,519.11,889.8,515.59"/>
		</g>
		<g class="st1">
			<path class="st17" d="M894.95,517.54l0.16,2.4c-5.27,3.88-9.97,6.96-14.08,9.22l-0.16-2.4
				C884.98,524.5,889.69,521.42,894.95,517.54z"/>
			<g class="st1">
				<path class="st7" d="M894.95,517.54l0.16,2.4c-0.16,0.12-0.33,0.24-0.49,0.36l-0.16-2.4
					C894.63,517.78,894.79,517.66,894.95,517.54"/>
				<path class="st8" d="M894.46,517.9l0.16,2.4c-5.07,3.71-9.61,6.67-13.59,8.86l-0.16-2.4
					C884.85,524.57,889.39,521.61,894.46,517.9"/>
			</g>
		</g>
		<g class="st1">
			<path class="st17" d="M905.15,510.88l0.16,2.4c-5.29,8.88-8.55,15.3-9.69,19.12l-0.16-2.4
				C896.61,526.18,899.86,519.75,905.15,510.88z"/>
			<g class="st1">
				<path class="st10" d="M905.15,510.88l0.16,2.4c-0.98,1.65-1.9,3.22-2.74,4.7l-0.16-2.4
					C903.25,514.1,904.17,512.53,905.15,510.88"/>
				<path class="st11" d="M902.41,515.58l0.16,2.4c-3.09,5.43-5.23,9.71-6.39,12.78l-0.16-2.4
					C897.18,525.29,899.32,521.01,902.41,515.58"/>
				<path class="st12" d="M896.02,528.36l0.16,2.4c-0.22,0.59-0.41,1.14-0.56,1.64l-0.16-2.4
					C895.61,529.5,895.8,528.95,896.02,528.36"/>
			</g>
		</g>
		<polygon class="st13" points="880.87,526.76 881.03,529.16 731.87,612.72 731.71,610.32 		"/>
		<polygon points="876.97,523.97 877.13,526.38 721.22,613.71 721.06,611.31 		"/>
		<polygon class="st13" points="905.29,472.01 905.45,474.41 535.67,674.56 535.51,672.16 		"/>
		<polygon class="st14" points="895.46,530 895.62,532.4 859.01,658.45 858.85,656.05 		"/>
		<g>
			<path class="st15" d="M731.71,610.32l122.69,39.84l35.03-120.62c0.84-2.84,2.67-6.8,5.52-12c-5.27,3.88-9.97,6.96-14.08,9.22
				L731.71,610.32 M905.15,510.88c-5.29,8.88-8.55,15.3-9.69,19.12l-36.61,126.05l-137.79-44.74l155.91-87.34
				c5.87-3.24,13.15-8.36,21.68-15.19l1.66-1.32l5.75,1.87L905.15,510.88z"/>
		</g>
		<polygon class="st2" points="858.85,656.05 859.01,658.45 721.22,613.71 721.06,611.31 		"/>
		<polygon points="684.64,631.71 684.8,634.11 585.31,690.68 585.15,688.28 		"/>
		<polygon points="585.15,688.28 585.31,690.68 535.67,674.56 535.51,672.16 		"/>
		<polygon class="st2" points="585.8,692.92 585.95,695.32 524.89,675.49 524.74,673.09 		"/>
		<polygon class="st16" points="685.27,636.36 685.43,638.77 585.95,695.32 585.8,692.92 		"/>
		<polygon points="849.9,685.37 850.05,687.77 684.8,634.11 684.64,631.71 		"/>
		<polygon class="st2" points="843.09,687.61 843.25,690.01 685.43,638.77 685.27,636.36 		"/>
		<polygon class="st11" points="849.9,685.37 850.05,687.77 827.43,769.3 827.28,766.9 		"/>
		<polygon points="955.24,488.23 955.4,490.63 877.1,785.43 876.94,783.02 		"/>
		<polygon points="876.94,783.02 877.1,785.43 827.43,769.3 827.28,766.9 		"/>
		<g>
			<path class="st15" d="M849.9,685.37l-22.62,81.53l49.66,16.13l78.3-294.79l-49.95-16.22L535.51,672.16l49.64,16.12l99.49-56.57
				L849.9,685.37 M961.99,485.99l-80.44,302.96l-61.04-19.82l22.58-81.52l-157.82-51.24l-99.48,56.55l-61.06-19.83l380-205.69
				L961.99,485.99z"/>
		</g>
		<g>
			<path d="M721.06,611.31l137.79,44.74L895.46,530c1.14-3.82,4.4-10.24,9.69-19.12l0.9-1.54l-5.75-1.87l-1.66,1.32
				c-8.53,6.83-15.81,11.95-21.68,15.19L721.06,611.31 M955.24,488.23l-78.3,294.79l-49.66-16.13l22.62-81.53l-165.25-53.66
				l-99.49,56.57l-49.64-16.12l369.78-200.15L955.24,488.23z"/>
		</g>
		<polygon class="st2" points="881.54,788.95 881.7,791.35 820.66,771.53 820.5,769.13 		"/>
		<polygon class="st11" points="961.99,485.99 962.14,488.39 881.7,791.35 881.54,788.95 		"/>
	</g>
	<g>
		<polygon class="st2" points="979.69,469.44 979.85,471.84 929.9,455.62 929.74,453.22 		"/>
		<polygon points="924.76,488.67 924.92,491.08 923.26,492.39 923.1,489.99 		"/>
		<polygon points="930.5,490.54 930.66,492.94 924.92,491.08 924.76,488.67 		"/>
		<polygon class="st3" points="930.5,490.54 930.66,492.94 929.76,494.49 929.6,492.08 		"/>
		<g class="st1">
			<path class="st17" d="M909.52,502.65c-0.05-0.8-0.11-1.6-0.16-2.4c4.13-2.8,8.72-6.23,13.74-10.26l0.16,2.4
				C918.24,496.42,913.64,499.85,909.52,502.65z"/>
			<g class="st1">
				<path d="M923.1,489.99l0.16,2.4c-3.12,2.5-6.07,4.77-8.85,6.8l-0.16-2.4C917.03,494.76,919.98,492.49,923.1,489.99"/>
				<path d="M914.25,496.79l0.16,2.4c-4.82,3.52-9.11,6.33-12.83,8.39l-0.16-2.4C905.14,503.12,909.43,500.32,914.25,496.79"/>
			</g>
		</g>
		<g class="st1">
			<path class="st17" d="M909.52,502.65c-2.88,1.95-5.52,3.6-7.93,4.93l-0.16-2.4c2.41-1.33,5.06-2.98,7.93-4.93
				C909.41,501.05,909.46,501.85,909.52,502.65z"/>
			<path d="M914.25,496.79l0.16,2.4c-4.82,3.52-9.11,6.33-12.83,8.39l-0.16-2.4C905.14,503.12,909.43,500.32,914.25,496.79"/>
		</g>
		<g class="st1">
			<path class="st17" d="M919.4,498.75l0.16,2.4c-5.27,3.88-9.97,6.96-14.08,9.22l-0.16-2.4
				C909.43,505.71,914.14,502.62,919.4,498.75z"/>
			<g class="st1">
				<path class="st7" d="M919.4,498.75l0.16,2.4c-0.16,0.12-0.33,0.24-0.49,0.36l-0.16-2.4
					C919.08,498.99,919.24,498.87,919.4,498.75"/>
				<path class="st8" d="M918.91,499.11l0.16,2.4c-5.07,3.71-9.61,6.67-13.59,8.86l-0.16-2.4
					C909.3,505.78,913.84,502.82,918.91,499.11"/>
			</g>
		</g>
		<g class="st1">
			<path class="st17" d="M929.6,492.08l0.16,2.4c-5.29,8.88-8.55,15.3-9.69,19.12l-0.16-2.4
				C921.06,507.39,924.31,500.96,929.6,492.08z"/>
			<g class="st1">
				<path class="st10" d="M929.6,492.08l0.16,2.4c-0.98,1.65-1.9,3.22-2.74,4.7l-0.16-2.4C927.7,495.3,928.62,493.73,929.6,492.08"
					/>
				<path class="st11" d="M926.86,496.78l0.16,2.4c-3.09,5.43-5.23,9.71-6.39,12.78l-0.16-2.4
					C921.63,506.5,923.77,502.22,926.86,496.78"/>
				<path class="st12" d="M920.47,509.57l0.16,2.4c-0.22,0.59-0.41,1.14-0.56,1.64l-0.16-2.4
					C920.06,510.7,920.25,510.16,920.47,509.57"/>
			</g>
		</g>
		<polygon class="st13" points="905.32,507.96 905.48,510.37 756.32,593.93 756.16,591.52 		"/>
		<polygon points="901.42,505.18 901.58,507.58 745.67,594.92 745.51,592.52 		"/>
		<polygon class="st13" points="929.74,453.22 929.9,455.62 560.12,655.77 559.96,653.37 		"/>
		<polygon class="st14" points="919.91,511.2 920.07,513.61 883.46,639.66 883.3,637.26 		"/>
		<g>
			<path class="st15" d="M756.16,591.52l122.69,39.84l35.03-120.62c0.84-2.84,2.67-6.8,5.52-12c-5.27,3.88-9.97,6.96-14.08,9.22
				L756.16,591.52 M929.6,492.08c-5.29,8.88-8.55,15.3-9.69,19.12L883.3,637.26l-137.79-44.74l155.91-87.34
				c5.87-3.24,13.15-8.36,21.68-15.19l1.66-1.32l5.75,1.87L929.6,492.08z"/>
		</g>
		<polygon class="st2" points="883.3,637.26 883.46,639.66 745.67,594.92 745.51,592.52 		"/>
		<polygon points="709.09,612.92 709.25,615.32 609.76,671.89 609.6,669.49 		"/>
		<polygon points="609.6,669.49 609.76,671.89 560.12,655.77 559.96,653.37 		"/>
		<polygon class="st2" points="610.25,674.12 610.4,676.53 549.34,656.7 549.19,654.3 		"/>
		<polygon class="st16" points="709.72,617.57 709.88,619.97 610.4,676.53 610.25,674.12 		"/>
		<polygon points="874.35,666.57 874.5,668.98 709.25,615.32 709.09,612.92 		"/>
		<polygon class="st2" points="867.54,668.81 867.7,671.22 709.88,619.97 709.72,617.57 		"/>
		<polygon class="st11" points="874.35,666.57 874.5,668.98 851.88,750.51 851.73,748.1 		"/>
		<polygon points="979.69,469.44 979.85,471.84 901.55,766.63 901.39,764.23 		"/>
		<polygon points="901.39,764.23 901.55,766.63 851.88,750.51 851.73,748.1 		"/>
		<g>
			<path class="st15" d="M874.35,666.57l-22.62,81.53l49.66,16.13l78.3-294.79l-49.95-16.22L559.96,653.37l49.64,16.12l99.49-56.57
				L874.35,666.57 M986.44,467.2l-80.44,302.96l-61.04-19.82l22.58-81.52l-157.82-51.24l-99.48,56.55l-61.06-19.83l380-205.69
				L986.44,467.2z"/>
		</g>
		<g>
			<path d="M745.51,592.52l137.79,44.74l36.61-126.05c1.14-3.82,4.4-10.24,9.69-19.12l0.9-1.54l-5.75-1.87l-1.66,1.32
				c-8.53,6.83-15.81,11.95-21.68,15.19L745.51,592.52 M979.69,469.44l-78.3,294.79l-49.66-16.13l22.62-81.53l-165.25-53.66
				l-99.49,56.57l-49.64-16.12l369.78-200.15L979.69,469.44z"/>
		</g>
		<polygon class="st2" points="905.99,770.15 906.15,772.56 845.11,752.74 844.95,750.33 		"/>
		<polygon class="st11" points="986.44,467.2 986.59,469.6 906.15,772.56 905.99,770.15 		"/>
	</g>
	<g>
		<polygon class="st2" points="1000.51,459.81 1000.67,462.21 950.72,445.99 950.56,443.59 		"/>
		<polygon points="945.58,479.05 945.74,481.45 944.08,482.77 943.92,480.37 		"/>
		<polygon points="951.32,480.91 951.48,483.32 945.74,481.45 945.58,479.05 		"/>
		<polygon class="st3" points="951.32,480.91 951.48,483.32 950.58,484.86 950.42,482.46 		"/>
		<g class="st1">
			<path class="st17" d="M930.34,493.03c-0.05-0.8-0.11-1.6-0.16-2.4c4.13-2.8,8.72-6.23,13.74-10.26l0.16,2.4
				C939.06,486.79,934.46,490.22,930.34,493.03z"/>
			<g class="st1">
				<path d="M943.92,480.37l0.16,2.4c-3.12,2.5-6.07,4.77-8.85,6.8l-0.16-2.4C937.85,485.14,940.8,482.87,943.92,480.37"/>
				<path d="M935.07,487.17l0.16,2.4c-4.82,3.52-9.11,6.33-12.83,8.39l-0.16-2.4C925.96,493.5,930.25,490.69,935.07,487.17"/>
			</g>
		</g>
		<g class="st1">
			<path class="st17" d="M930.34,493.03c-2.88,1.95-5.52,3.6-7.93,4.93l-0.16-2.4c2.41-1.33,5.06-2.98,7.93-4.93
				C930.23,491.42,930.28,492.22,930.34,493.03z"/>
			<path d="M935.07,487.17l0.16,2.4c-4.82,3.52-9.11,6.33-12.83,8.39l-0.16-2.4C925.96,493.5,930.25,490.69,935.07,487.17"/>
		</g>
		<g class="st1">
			<path class="st17" d="M940.22,489.12l0.16,2.4c-5.27,3.88-9.97,6.96-14.08,9.22l-0.16-2.4
				C930.25,496.08,934.96,493,940.22,489.12z"/>
			<g class="st1">
				<path class="st7" d="M940.22,489.12l0.16,2.4c-0.16,0.12-0.33,0.24-0.49,0.36l-0.16-2.4
					C939.9,489.36,940.06,489.24,940.22,489.12"/>
				<path class="st8" d="M939.73,489.48l0.16,2.4c-5.07,3.71-9.61,6.67-13.59,8.86l-0.16-2.4
					C930.12,496.15,934.66,493.19,939.73,489.48"/>
			</g>
		</g>
		<g class="st1">
			<path class="st17" d="M950.42,482.46l0.16,2.4c-5.29,8.88-8.55,15.3-9.69,19.12l-0.16-2.4
				C941.88,497.76,945.13,491.33,950.42,482.46z"/>
			<g class="st1">
				<path class="st10" d="M950.42,482.46l0.16,2.4c-0.98,1.65-1.9,3.22-2.74,4.7l-0.16-2.4
					C948.52,485.68,949.44,484.11,950.42,482.46"/>
				<path class="st11" d="M947.68,487.16l0.16,2.4c-3.09,5.43-5.23,9.71-6.39,12.78l-0.16-2.4
					C942.45,496.87,944.59,492.59,947.68,487.16"/>
				<path class="st12" d="M941.29,499.94l0.16,2.4c-0.22,0.59-0.41,1.14-0.56,1.64l-0.16-2.4
					C940.88,501.08,941.07,500.53,941.29,499.94"/>
			</g>
		</g>
		<polygon class="st13" points="926.14,498.34 926.3,500.74 777.14,584.3 776.98,581.9 		"/>
		<polygon points="922.24,495.56 922.4,497.96 766.49,585.29 766.33,582.89 		"/>
		<polygon class="st13" points="950.56,443.59 950.72,445.99 580.94,646.14 580.78,643.74 		"/>
		<polygon class="st14" points="940.73,501.58 940.89,503.98 904.28,630.03 904.12,627.63 		"/>
		<g>
			<path class="st15" d="M776.98,581.9l122.69,39.84l35.03-120.62c0.84-2.84,2.67-6.8,5.52-12c-5.27,3.88-9.97,6.96-14.08,9.22
				L776.98,581.9 M950.42,482.46c-5.29,8.88-8.55,15.3-9.69,19.12l-36.61,126.05l-137.79-44.74l155.91-87.34
				c5.87-3.24,13.15-8.36,21.68-15.19l1.66-1.32l5.75,1.87L950.42,482.46z"/>
		</g>
		<polygon class="st2" points="904.12,627.63 904.28,630.03 766.49,585.29 766.33,582.89 		"/>
		<polygon points="729.91,603.29 730.07,605.69 630.58,662.26 630.42,659.86 		"/>
		<polygon points="630.42,659.86 630.58,662.26 580.94,646.14 580.78,643.74 		"/>
		<polygon class="st2" points="631.07,664.5 631.22,666.9 570.16,647.08 570.01,644.67 		"/>
		<polygon class="st16" points="730.54,607.95 730.7,610.35 631.22,666.9 631.07,664.5 		"/>
		<polygon points="895.17,656.95 895.33,659.35 730.07,605.69 729.91,603.29 		"/>
		<polygon class="st2" points="888.36,659.19 888.52,661.59 730.7,610.35 730.54,607.95 		"/>
		<polygon class="st11" points="895.17,656.95 895.32,659.35 872.7,740.88 872.55,738.48 		"/>
		<polygon points="1000.51,459.81 1000.67,462.21 922.37,757.01 922.21,754.6 		"/>
		<polygon points="922.21,754.6 922.37,757.01 872.7,740.88 872.55,738.48 		"/>
		<g>
			<path class="st15" d="M895.17,656.95l-22.62,81.53l49.66,16.13l78.3-294.79l-49.95-16.22L580.78,643.74l49.64,16.12l99.49-56.57
				L895.17,656.95 M1007.26,457.57l-80.44,302.96l-61.04-19.82l22.58-81.52l-157.82-51.24l-99.48,56.55l-61.06-19.83l380-205.69
				L1007.26,457.57z"/>
		</g>
		<g>
			<path d="M766.33,582.89l137.79,44.74l36.61-126.05c1.14-3.82,4.4-10.24,9.69-19.12l0.9-1.54l-5.75-1.87l-1.66,1.32
				c-8.53,6.83-15.81,11.95-21.68,15.19L766.33,582.89 M1000.51,459.81l-78.3,294.79l-49.66-16.13l22.62-81.53l-165.25-53.66
				l-99.49,56.57l-49.64-16.12l369.78-200.15L1000.51,459.81z"/>
		</g>
		<polygon class="st2" points="926.81,760.53 926.97,762.93 865.93,743.11 865.78,740.71 		"/>
		<polygon class="st11" points="1007.26,457.57 1007.41,459.97 926.97,762.93 926.81,760.53 		"/>
	</g>
	<g>
		<polygon class="st2" points="979.39,429.45 979.55,431.85 929.6,415.63 929.44,413.23 		"/>
		<polygon points="924.46,448.68 924.62,451.09 922.96,452.41 922.8,450 		"/>
		<polygon points="930.21,450.55 930.36,452.95 924.62,451.09 924.46,448.68 		"/>
		<polygon class="st3" points="930.21,450.55 930.36,452.95 929.46,454.5 929.3,452.09 		"/>
		<g class="st1">
			<path class="st17" d="M909.22,462.66c-0.05-0.8-0.11-1.6-0.16-2.4c4.13-2.8,8.72-6.23,13.74-10.26l0.16,2.4
				C917.94,456.43,913.34,459.86,909.22,462.66z"/>
			<g class="st1">
				<path d="M922.8,450l0.16,2.4c-3.12,2.5-6.07,4.77-8.85,6.8l-0.16-2.4C916.73,454.77,919.68,452.5,922.8,450"/>
				<path d="M913.95,456.8l0.16,2.4c-4.82,3.52-9.11,6.33-12.83,8.39l-0.16-2.4C904.85,463.14,909.14,460.33,913.95,456.8"/>
			</g>
		</g>
		<g class="st1">
			<path class="st17" d="M909.22,462.66c-2.88,1.95-5.52,3.6-7.93,4.93l-0.16-2.4c2.41-1.33,5.06-2.98,7.93-4.93
				C909.11,461.06,909.17,461.86,909.22,462.66z"/>
			<path d="M913.95,456.8l0.16,2.4c-4.82,3.52-9.11,6.33-12.83,8.39l-0.16-2.4C904.85,463.14,909.14,460.33,913.95,456.8"/>
		</g>
		<g class="st1">
			<path class="st17" d="M919.1,458.76l0.16,2.4c-5.27,3.88-9.97,6.96-14.08,9.22l-0.16-2.4
				C909.13,465.72,913.84,462.63,919.1,458.76z"/>
			<g class="st1">
				<path class="st7" d="M919.1,458.76l0.16,2.4c-0.16,0.12-0.33,0.24-0.49,0.36l-0.16-2.4C918.78,459,918.94,458.88,919.1,458.76"
					/>
				<path class="st8" d="M918.61,459.12l0.16,2.4c-5.07,3.71-9.61,6.67-13.59,8.86l-0.16-2.4
					C909.01,465.79,913.55,462.83,918.61,459.12"/>
			</g>
		</g>
		<g class="st1">
			<path class="st17" d="M929.3,452.09l0.16,2.4c-5.29,8.88-8.55,15.3-9.69,19.12l-0.16-2.4
				C920.76,467.4,924.01,460.97,929.3,452.09z"/>
			<g class="st1">
				<path class="st10" d="M929.3,452.09l0.16,2.4c-0.98,1.65-1.9,3.22-2.74,4.7l-0.16-2.4C927.4,455.31,928.32,453.75,929.3,452.09"
					/>
				<path class="st11" d="M926.56,456.79l0.16,2.4c-3.09,5.43-5.23,9.71-6.39,12.78l-0.16-2.4
					C921.33,466.51,923.47,462.23,926.56,456.79"/>
				<path class="st12" d="M920.17,469.58l0.16,2.4c-0.22,0.59-0.41,1.14-0.56,1.64l-0.16-2.4
					C919.76,470.71,919.95,470.17,920.17,469.58"/>
			</g>
		</g>
		<polygon class="st13" points="905.02,467.97 905.18,470.38 756.02,553.94 755.86,551.54 		"/>
		<polygon points="901.13,465.19 901.28,467.59 745.37,554.93 745.22,552.53 		"/>
		<polygon class="st13" points="929.44,413.23 929.6,415.63 559.82,615.78 559.66,613.38 		"/>
		<polygon class="st14" points="919.61,471.21 919.77,473.62 883.16,599.67 883,597.27 		"/>
		<g>
			<path class="st15" d="M755.86,551.54l122.69,39.84l35.03-120.62c0.84-2.84,2.67-6.8,5.52-12c-5.27,3.88-9.97,6.96-14.08,9.22
				L755.86,551.54 M929.3,452.09c-5.29,8.88-8.55,15.3-9.69,19.12L883,597.27l-137.79-44.74l155.91-87.34
				c5.87-3.24,13.15-8.36,21.68-15.19l1.66-1.32l5.75,1.87L929.3,452.09z"/>
		</g>
		<polygon class="st2" points="883,597.27 883.16,599.67 745.37,554.93 745.22,552.53 		"/>
		<polygon points="708.79,572.93 708.95,575.33 609.46,631.9 609.3,629.5 		"/>
		<polygon points="609.3,629.5 609.46,631.9 559.82,615.78 559.66,613.38 		"/>
		<polygon class="st2" points="609.95,634.13 610.11,636.54 549.05,616.71 548.89,614.31 		"/>
		<polygon class="st16" points="709.43,577.58 709.58,579.98 610.11,636.54 609.95,634.13 		"/>
		<polygon points="874.05,626.58 874.21,628.99 708.95,575.33 708.79,572.93 		"/>
		<polygon class="st2" points="867.24,628.82 867.4,631.23 709.58,579.98 709.43,577.58 		"/>
		<polygon class="st11" points="874.05,626.58 874.21,628.99 851.59,710.52 851.43,708.11 		"/>
		<polygon points="979.39,429.45 979.55,431.85 901.25,726.64 901.09,724.24 		"/>
		<polygon points="901.09,724.24 901.25,726.64 851.59,710.52 851.43,708.11 		"/>
		<g>
			<path class="st15" d="M874.05,626.58l-22.62,81.53l49.66,16.13l78.3-294.79l-49.95-16.22L559.66,613.38l49.64,16.12l99.49-56.57
				L874.05,626.58 M986.14,427.21l-80.44,302.96l-61.04-19.82l22.58-81.52l-157.82-51.24l-99.48,56.55l-61.06-19.83l380-205.69
				L986.14,427.21z"/>
		</g>
		<g>
			<path d="M745.22,552.53L883,597.27l36.61-126.05c1.14-3.82,4.4-10.24,9.69-19.12l0.9-1.54l-5.75-1.87L922.8,450
				c-8.53,6.83-15.81,11.95-21.68,15.19L745.22,552.53 M979.39,429.45l-78.3,294.79l-49.66-16.13l22.62-81.53l-165.25-53.66
				L609.3,629.5l-49.64-16.12l369.78-200.15L979.39,429.45z"/>
		</g>
		<polygon class="st2" points="905.69,730.16 905.85,732.57 844.81,712.75 844.66,710.34 		"/>
		<polygon class="st11" points="986.14,427.21 986.3,429.61 905.85,732.57 905.69,730.16 		"/>
	</g>
	<g>
		<polygon class="st2" points="931.29,432.63 931.45,435.03 881.49,418.81 881.34,416.41 		"/>
		<polygon points="876.36,451.87 876.52,454.27 874.86,455.59 874.7,453.18 		"/>
		<polygon points="882.1,453.73 882.26,456.14 876.52,454.27 876.36,451.87 		"/>
		<polygon class="st3" points="882.1,453.73 882.26,456.14 881.36,457.68 881.2,455.28 		"/>
		<g class="st1">
			<path class="st17" d="M861.12,465.84c-0.05-0.8-0.11-1.6-0.16-2.4c4.13-2.8,8.72-6.23,13.74-10.26l0.16,2.4
				C869.83,459.61,865.24,463.04,861.12,465.84z"/>
			<g class="st1">
				<path d="M874.7,453.18l0.16,2.4c-3.12,2.5-6.07,4.77-8.85,6.8l-0.16-2.4C868.63,457.95,871.58,455.68,874.7,453.18"/>
				<path d="M865.85,459.99l0.16,2.4c-4.82,3.52-9.11,6.33-12.83,8.39l-0.16-2.4C856.74,466.32,861.03,463.51,865.85,459.99"/>
			</g>
		</g>
		<g class="st1">
			<path class="st17" d="M861.12,465.84c-2.88,1.95-5.52,3.6-7.93,4.93l-0.16-2.4c2.41-1.33,5.06-2.98,7.93-4.93
				C861.01,464.24,861.06,465.04,861.12,465.84z"/>
			<path d="M865.85,459.99l0.16,2.4c-4.82,3.52-9.11,6.33-12.83,8.39l-0.16-2.4C856.74,466.32,861.03,463.51,865.85,459.99"/>
		</g>
		<g class="st1">
			<path class="st17" d="M871,461.94l0.16,2.4c-5.27,3.88-9.97,6.96-14.08,9.22l-0.16-2.4C861.03,468.9,865.73,465.82,871,461.94z"
				/>
			<g class="st1">
				<path class="st7" d="M871,461.94l0.16,2.4c-0.16,0.12-0.33,0.24-0.49,0.36l-0.16-2.4C870.67,462.18,870.84,462.06,871,461.94"/>
				<path class="st8" d="M870.51,462.3l0.16,2.4c-5.07,3.71-9.61,6.67-13.59,8.86l-0.16-2.4
					C860.9,468.97,865.44,466.01,870.51,462.3"/>
			</g>
		</g>
		<g class="st1">
			<path class="st17" d="M881.2,455.28l0.16,2.4c-5.29,8.88-8.55,15.3-9.69,19.12l-0.16-2.4
				C872.65,470.58,875.91,464.15,881.2,455.28z"/>
			<g class="st1">
				<path class="st10" d="M881.2,455.28l0.16,2.4c-0.98,1.65-1.9,3.22-2.74,4.7l-0.16-2.4C879.3,458.49,880.22,456.93,881.2,455.28"
					/>
				<path class="st11" d="M878.46,459.98l0.16,2.4c-3.09,5.43-5.23,9.71-6.39,12.78l-0.16-2.4
					C873.23,469.69,875.37,465.41,878.46,459.98"/>
				<path class="st12" d="M872.07,472.76l0.16,2.4c-0.22,0.59-0.41,1.14-0.56,1.64l-0.16-2.4
					C871.66,473.9,871.85,473.35,872.07,472.76"/>
			</g>
		</g>
		<polygon class="st13" points="856.92,471.16 857.08,473.56 707.92,557.12 707.76,554.72 		"/>
		<polygon points="853.02,468.37 853.18,470.78 697.27,558.11 697.11,555.71 		"/>
		<polygon class="st13" points="881.34,416.41 881.49,418.81 511.72,618.96 511.56,616.56 		"/>
		<polygon class="st14" points="871.51,474.4 871.67,476.8 835.06,602.85 834.9,600.45 		"/>
		<g>
			<path class="st15" d="M707.76,554.72l122.69,39.84l35.03-120.62c0.84-2.84,2.67-6.8,5.52-12c-5.27,3.88-9.97,6.96-14.08,9.22
				L707.76,554.72 M881.2,455.28c-5.29,8.88-8.55,15.3-9.69,19.12L834.9,600.45l-137.79-44.74l155.91-87.34
				c5.87-3.24,13.15-8.36,21.68-15.19l1.66-1.32l5.75,1.87L881.2,455.28z"/>
		</g>
		<polygon class="st2" points="834.9,600.45 835.06,602.85 697.27,558.11 697.11,555.71 		"/>
		<polygon points="660.69,576.11 660.85,578.51 561.36,635.08 561.2,632.68 		"/>
		<polygon points="561.2,632.68 561.36,635.08 511.72,618.96 511.56,616.56 		"/>
		<polygon class="st2" points="561.85,637.32 562,639.72 500.94,619.89 500.78,617.49 		"/>
		<polygon class="st16" points="661.32,580.76 661.48,583.17 562,639.72 561.85,637.32 		"/>
		<polygon points="825.95,629.77 826.1,632.17 660.85,578.51 660.69,576.11 		"/>
		<polygon class="st2" points="819.14,632.01 819.3,634.41 661.48,583.17 661.32,580.76 		"/>
		<polygon class="st11" points="825.95,629.77 826.1,632.17 803.48,713.7 803.32,711.3 		"/>
		<polygon points="931.29,432.63 931.45,435.03 853.15,729.82 852.99,727.42 		"/>
		<polygon points="852.99,727.42 853.15,729.82 803.48,713.7 803.32,711.3 		"/>
		<g>
			<path class="st15" d="M825.95,629.77l-22.62,81.53l49.66,16.13l78.3-294.79l-49.95-16.22L511.56,616.56l49.64,16.12l99.49-56.57
				L825.95,629.77 M938.03,430.39l-80.44,302.96l-61.04-19.82l22.58-81.52l-157.82-51.24l-99.48,56.55l-61.06-19.83l380-205.69
				L938.03,430.39z"/>
		</g>
		<g>
			<path d="M697.11,555.71l137.79,44.74l36.61-126.05c1.14-3.82,4.4-10.24,9.69-19.12l0.9-1.54l-5.75-1.87l-1.66,1.32
				c-8.53,6.83-15.81,11.95-21.68,15.19L697.11,555.71 M931.29,432.63l-78.3,294.79l-49.66-16.13l22.62-81.53l-165.25-53.66
				l-99.49,56.57l-49.64-16.12l369.78-200.15L931.29,432.63z"/>
		</g>
		<polygon class="st2" points="857.59,733.35 857.75,735.75 796.71,715.93 796.55,713.53 		"/>
		<polygon class="st11" points="938.03,430.39 938.19,432.79 857.75,735.75 857.59,733.35 		"/>
	</g>
	<g>
		<polygon class="st2" points="979.09,389.46 979.25,391.86 929.3,375.64 929.14,373.24 		"/>
		<polygon points="924.16,408.7 924.32,411.1 922.66,412.42 922.51,410.01 		"/>
		<polygon points="929.91,410.56 930.07,412.96 924.32,411.1 924.16,408.7 		"/>
		<polygon class="st3" points="929.91,410.56 930.07,412.96 929.16,414.51 929.01,412.1 		"/>
		<g class="st1">
			<path class="st17" d="M908.92,422.67c-0.05-0.8-0.11-1.6-0.16-2.4c4.13-2.8,8.72-6.23,13.74-10.26l0.16,2.4
				C917.64,416.44,913.05,419.87,908.92,422.67z"/>
			<g class="st1">
				<path d="M922.51,410.01l0.16,2.4c-3.12,2.5-6.07,4.77-8.85,6.8l-0.16-2.4C916.43,414.78,919.39,412.51,922.51,410.01"/>
				<path d="M913.65,416.81l0.16,2.4c-4.82,3.52-9.11,6.33-12.83,8.39l-0.16-2.4C904.55,423.15,908.84,420.34,913.65,416.81"/>
			</g>
		</g>
		<g class="st1">
			<path class="st17" d="M908.92,422.67c-2.88,1.95-5.52,3.6-7.93,4.93l-0.16-2.4c2.41-1.33,5.06-2.98,7.93-4.93
				C908.82,421.07,908.87,421.87,908.92,422.67z"/>
			<path d="M913.65,416.81l0.16,2.4c-4.82,3.52-9.11,6.33-12.83,8.39l-0.16-2.4C904.55,423.15,908.84,420.34,913.65,416.81"/>
		</g>
		<g class="st1">
			<path class="st17" d="M918.81,418.77l0.16,2.4c-5.27,3.88-9.97,6.96-14.08,9.22l-0.16-2.4
				C908.84,425.73,913.54,422.65,918.81,418.77z"/>
			<g class="st1">
				<path class="st7" d="M918.81,418.77l0.16,2.4c-0.16,0.12-0.33,0.24-0.49,0.36l-0.16-2.4
					C918.48,419.01,918.64,418.89,918.81,418.77"/>
				<path class="st8" d="M918.32,419.13l0.16,2.4c-5.07,3.71-9.61,6.67-13.59,8.86l-0.16-2.4
					C908.71,425.8,913.25,422.84,918.32,419.13"/>
			</g>
		</g>
		<g class="st1">
			<path class="st17" d="M929.01,412.1l0.16,2.4c-5.29,8.88-8.55,15.3-9.69,19.12l-0.16-2.4
				C920.46,427.41,923.72,420.98,929.01,412.1z"/>
			<g class="st1">
				<path class="st10" d="M929.01,412.1l0.16,2.4c-0.98,1.65-1.9,3.22-2.74,4.7l-0.16-2.4C927.11,415.32,928.02,413.76,929.01,412.1
					"/>
				<path class="st11" d="M926.26,416.8l0.16,2.4c-3.09,5.43-5.23,9.71-6.39,12.78l-0.16-2.4
					C921.03,426.52,923.17,422.24,926.26,416.8"/>
				<path class="st12" d="M919.87,429.59l0.16,2.4c-0.22,0.59-0.41,1.14-0.56,1.64l-0.16-2.4
					C919.47,430.72,919.65,430.18,919.87,429.59"/>
			</g>
		</g>
		<polygon class="st13" points="904.73,427.98 904.88,430.39 755.72,513.95 755.57,511.55 		"/>
		<polygon points="900.83,425.2 900.99,427.61 745.08,514.94 744.92,512.54 		"/>
		<polygon class="st13" points="929.14,373.24 929.3,375.64 559.52,575.79 559.37,573.39 		"/>
		<polygon class="st14" points="919.32,431.23 919.47,433.63 882.86,559.68 882.71,557.28 		"/>
		<g>
			<path class="st15" d="M755.57,511.55l122.69,39.84l35.03-120.62c0.84-2.84,2.67-6.8,5.52-12c-5.27,3.88-9.97,6.96-14.08,9.22
				L755.57,511.55 M929.01,412.1c-5.29,8.88-8.55,15.3-9.69,19.12l-36.61,126.05l-137.79-44.74l155.91-87.34
				c5.87-3.24,13.15-8.36,21.68-15.19l1.66-1.32l5.75,1.87L929.01,412.1z"/>
		</g>
		<polygon class="st2" points="882.71,557.28 882.86,559.68 745.08,514.94 744.92,512.54 		"/>
		<polygon points="708.5,532.94 708.65,535.34 609.16,591.91 609.01,589.51 		"/>
		<polygon points="609.01,589.51 609.16,591.91 559.52,575.79 559.37,573.39 		"/>
		<polygon class="st2" points="609.65,594.15 609.81,596.55 548.75,576.72 548.59,574.32 		"/>
		<polygon class="st16" points="709.13,537.59 709.29,539.99 609.81,596.55 609.65,594.15 		"/>
		<polygon points="873.75,586.6 873.91,589 708.65,535.34 708.5,532.94 		"/>
		<polygon class="st2" points="866.94,588.83 867.1,591.24 709.29,539.99 709.13,537.59 		"/>
		<polygon class="st11" points="873.75,586.6 873.91,589 851.29,670.53 851.13,668.12 		"/>
		<polygon points="979.09,389.46 979.25,391.86 900.95,686.65 900.79,684.25 		"/>
		<polygon points="900.79,684.25 900.95,686.65 851.29,670.53 851.13,668.12 		"/>
		<g>
			<path class="st15" d="M873.75,586.6l-22.62,81.53l49.66,16.13l78.3-294.79l-49.95-16.22L559.37,573.39l49.64,16.12l99.49-56.57
				L873.75,586.6 M985.84,387.22L905.4,690.17l-61.04-19.82l22.58-81.52l-157.82-51.24l-99.48,56.55l-61.06-19.83l380-205.69
				L985.84,387.22z"/>
		</g>
		<g>
			<path d="M744.92,512.54l137.79,44.74l36.61-126.05c1.14-3.82,4.4-10.24,9.69-19.12l0.9-1.54l-5.75-1.87l-1.66,1.32
				c-8.53,6.83-15.81,11.95-21.68,15.19L744.92,512.54 M979.09,389.46l-78.3,294.79l-49.66-16.13l22.62-81.53L708.5,532.94
				l-99.49,56.57l-49.64-16.12l369.78-200.15L979.09,389.46z"/>
		</g>
		<polygon class="st2" points="905.4,690.17 905.55,692.58 844.52,672.76 844.36,670.36 		"/>
		<polygon class="st11" points="985.84,387.22 986,389.62 905.55,692.58 905.4,690.17 		"/>
	</g>
	<g>
		<polygon class="st2" points="978.94,369.46 979.1,371.86 929.15,355.65 928.99,353.24 		"/>
		<polygon points="924.01,388.7 924.17,391.1 922.52,392.42 922.36,390.02 		"/>
		<polygon points="929.76,390.57 929.92,392.97 924.17,391.1 924.01,388.7 		"/>
		<polygon class="st3" points="929.76,390.57 929.92,392.97 929.01,394.51 928.86,392.11 		"/>
		<g class="st1">
			<path class="st17" d="M908.77,402.68c-0.05-0.8-0.11-1.6-0.16-2.4c4.13-2.8,8.72-6.23,13.74-10.26l0.16,2.4
				C917.49,396.45,912.9,399.88,908.77,402.68z"/>
			<g class="st1">
				<path d="M922.36,390.02l0.16,2.4c-3.12,2.5-6.07,4.77-8.85,6.8l-0.16-2.4C916.28,394.79,919.24,392.52,922.36,390.02"/>
				<path d="M913.5,396.82l0.16,2.4c-4.82,3.52-9.11,6.33-12.83,8.39l-0.16-2.4C904.4,403.15,908.69,400.34,913.5,396.82"/>
			</g>
		</g>
		<g class="st1">
			<path class="st17" d="M908.77,402.68c-2.88,1.95-5.52,3.6-7.93,4.93l-0.16-2.4c2.41-1.33,5.06-2.98,7.93-4.93
				C908.67,401.08,908.72,401.88,908.77,402.68z"/>
			<path d="M913.5,396.82l0.16,2.4c-4.82,3.52-9.11,6.33-12.83,8.39l-0.16-2.4C904.4,403.15,908.69,400.34,913.5,396.82"/>
		</g>
		<g class="st1">
			<path class="st17" d="M918.66,398.77l0.16,2.4c-5.27,3.88-9.97,6.96-14.08,9.22l-0.16-2.4
				C908.69,405.73,913.39,402.65,918.66,398.77z"/>
			<g class="st1">
				<path class="st7" d="M918.66,398.77l0.16,2.4c-0.16,0.12-0.33,0.24-0.49,0.36l-0.16-2.4
					C918.33,399.01,918.49,398.89,918.66,398.77"/>
				<path class="st8" d="M918.17,399.13l0.16,2.4c-5.07,3.71-9.61,6.67-13.59,8.86l-0.16-2.4
					C908.56,405.8,913.1,402.84,918.17,399.13"/>
			</g>
		</g>
		<g class="st1">
			<path class="st17" d="M928.86,392.11l0.16,2.4c-5.29,8.88-8.55,15.3-9.69,19.12l-0.16-2.4
				C920.31,407.41,923.57,400.99,928.86,392.11z"/>
			<g class="st1">
				<path class="st10" d="M928.86,392.11l0.16,2.4c-0.98,1.65-1.9,3.22-2.74,4.7l-0.16-2.4
					C926.96,395.33,927.87,393.76,928.86,392.11"/>
				<path class="st11" d="M926.12,396.81l0.16,2.4c-3.09,5.43-5.23,9.71-6.39,12.78l-0.16-2.4
					C920.88,406.52,923.02,402.24,926.12,396.81"/>
				<path class="st12" d="M919.73,409.59l0.16,2.4c-0.22,0.59-0.41,1.14-0.56,1.64l-0.16-2.4
					C919.32,410.73,919.5,410.18,919.73,409.59"/>
			</g>
		</g>
		<polygon class="st13" points="904.58,407.99 904.74,410.39 755.57,493.95 755.42,491.55 		"/>
		<polygon points="900.68,405.21 900.84,407.61 744.93,494.95 744.77,492.54 		"/>
		<polygon class="st13" points="928.99,353.24 929.15,355.65 559.37,555.8 559.22,553.39 		"/>
		<polygon class="st14" points="919.17,411.23 919.32,413.63 882.71,539.69 882.56,537.28 		"/>
		<g>
			<path class="st15" d="M755.42,491.55l122.69,39.84l35.03-120.62c0.84-2.84,2.67-6.8,5.52-12c-5.27,3.88-9.97,6.96-14.08,9.22
				L755.42,491.55 M928.86,392.11c-5.29,8.88-8.55,15.3-9.69,19.12l-36.61,126.05l-137.79-44.74l155.91-87.34
				c5.87-3.24,13.15-8.36,21.68-15.19l1.66-1.32l5.75,1.87L928.86,392.11z"/>
		</g>
		<polygon class="st2" points="882.56,537.28 882.71,539.69 744.93,494.95 744.77,492.54 		"/>
		<polygon points="708.35,512.94 708.51,515.35 609.02,571.91 608.86,569.51 		"/>
		<polygon points="608.86,569.51 609.02,571.91 559.37,555.8 559.22,553.39 		"/>
		<polygon class="st2" points="609.5,574.15 609.66,576.55 548.6,556.73 548.44,554.32 		"/>
		<polygon class="st16" points="708.98,517.6 709.14,520 609.66,576.55 609.5,574.15 		"/>
		<polygon points="873.6,566.6 873.76,569 708.51,515.35 708.35,512.94 		"/>
		<polygon class="st2" points="866.79,568.84 866.95,571.24 709.14,520 708.98,517.6 		"/>
		<polygon class="st11" points="873.6,566.6 873.76,569 851.14,650.53 850.98,648.13 		"/>
		<polygon points="978.94,369.46 979.1,371.86 900.8,666.66 900.65,664.26 		"/>
		<polygon points="900.65,664.26 900.8,666.66 851.14,650.53 850.98,648.13 		"/>
		<g>
			<path class="st15" d="M873.6,566.6l-22.62,81.53l49.66,16.13l78.3-294.79l-49.95-16.22L559.22,553.39l49.64,16.12l99.49-56.57
				L873.6,566.6 M985.69,367.22l-80.44,302.96l-61.04-19.82l22.58-81.52L708.98,517.6l-99.48,56.55l-61.06-19.83l380-205.69
				L985.69,367.22z"/>
		</g>
		<g>
			<path d="M744.77,492.54l137.79,44.74l36.61-126.05c1.14-3.82,4.4-10.24,9.69-19.12l0.9-1.54l-5.75-1.87l-1.66,1.32
				c-8.53,6.83-15.81,11.95-21.68,15.19L744.77,492.54 M978.94,369.46l-78.3,294.79l-49.66-16.13l22.62-81.53l-165.25-53.66
				l-99.49,56.57l-49.64-16.12l369.78-200.15L978.94,369.46z"/>
		</g>
		<polygon class="st2" points="905.25,670.18 905.4,672.58 844.37,652.76 844.21,650.36 		"/>
		<polygon class="st11" points="985.69,367.22 985.85,369.63 905.4,672.58 905.25,670.18 		"/>
	</g>
	<g>
		<polygon class="st2" points="911.97,387.44 912.13,389.84 862.18,373.62 862.02,371.22 		"/>
		<polygon points="857.04,406.68 857.2,409.08 855.55,410.4 855.39,408 		"/>
		<polygon points="862.79,408.55 862.95,410.95 857.2,409.08 857.04,406.68 		"/>
		<polygon class="st3" points="862.79,408.55 862.95,410.95 862.05,412.49 861.89,410.09 		"/>
		<g class="st1">
			<path class="st17" d="M841.8,420.66c-0.05-0.8-0.11-1.6-0.16-2.4c4.13-2.8,8.72-6.23,13.74-10.26l0.16,2.4
				C850.52,414.42,845.93,417.85,841.8,420.66z"/>
			<g class="st1">
				<path d="M855.39,408l0.16,2.4c-3.12,2.5-6.07,4.77-8.85,6.8l-0.16-2.4C849.31,412.77,852.27,410.5,855.39,408"/>
				<path d="M846.54,414.8l0.16,2.4c-4.82,3.52-9.11,6.33-12.83,8.39l-0.16-2.4C837.43,421.13,841.72,418.32,846.54,414.8"/>
			</g>
		</g>
		<g class="st1">
			<path class="st17" d="M841.8,420.66c-2.88,1.95-5.52,3.6-7.93,4.93l-0.16-2.4c2.41-1.33,5.06-2.98,7.93-4.93
				C841.7,419.05,841.75,419.86,841.8,420.66z"/>
			<path d="M846.54,414.8l0.16,2.4c-4.82,3.52-9.11,6.33-12.83,8.39l-0.16-2.4C837.43,421.13,841.72,418.32,846.54,414.8"/>
		</g>
		<g class="st1">
			<path class="st17" d="M851.69,416.75l0.16,2.4c-5.27,3.88-9.97,6.96-14.08,9.22l-0.16-2.4
				C841.72,423.71,846.42,420.63,851.69,416.75z"/>
			<g class="st1">
				<path class="st7" d="M851.69,416.75l0.16,2.4c-0.16,0.12-0.33,0.24-0.49,0.36l-0.16-2.4
					C851.36,416.99,851.52,416.87,851.69,416.75"/>
				<path class="st8" d="M851.2,417.11l0.16,2.4c-5.07,3.71-9.61,6.67-13.59,8.86l-0.16-2.4
					C841.59,423.78,846.13,420.82,851.2,417.11"/>
			</g>
		</g>
		<g class="st1">
			<path class="st17" d="M861.89,410.09l0.16,2.4c-5.29,8.88-8.55,15.3-9.69,19.12l-0.16-2.4
				C853.34,425.39,856.6,418.97,861.89,410.09z"/>
			<g class="st1">
				<path class="st10" d="M861.89,410.09l0.16,2.4c-0.98,1.65-1.9,3.22-2.74,4.7l-0.16-2.4
					C859.99,413.31,860.9,411.74,861.89,410.09"/>
				<path class="st11" d="M859.15,414.79l0.16,2.4c-3.09,5.43-5.23,9.71-6.39,12.78l-0.16-2.4
					C853.91,424.5,856.05,420.22,859.15,414.79"/>
				<path class="st12" d="M852.76,427.57l0.16,2.4c-0.22,0.59-0.41,1.14-0.56,1.64l-0.16-2.4
					C852.35,428.71,852.53,428.16,852.76,427.57"/>
			</g>
		</g>
		<polygon class="st13" points="837.61,425.97 837.77,428.37 688.61,511.93 688.45,509.53 		"/>
		<polygon points="833.71,423.19 833.87,425.59 677.96,512.93 677.8,510.52 		"/>
		<polygon class="st13" points="862.02,371.22 862.18,373.62 492.41,573.78 492.25,571.37 		"/>
		<polygon class="st14" points="852.2,429.21 852.36,431.61 815.74,557.66 815.59,555.26 		"/>
		<g>
			<path class="st15" d="M688.45,509.53l122.69,39.84l35.03-120.62c0.84-2.84,2.67-6.8,5.52-12c-5.27,3.88-9.97,6.96-14.08,9.22
				L688.45,509.53 M861.89,410.09c-5.29,8.88-8.55,15.3-9.69,19.12l-36.61,126.05L677.8,510.52l155.91-87.34
				c5.87-3.24,13.15-8.36,21.68-15.19l1.66-1.32l5.75,1.87L861.89,410.09z"/>
		</g>
		<polygon class="st2" points="815.59,555.26 815.74,557.66 677.96,512.93 677.8,510.52 		"/>
		<polygon points="641.38,530.92 641.54,533.32 542.05,589.89 541.89,587.49 		"/>
		<polygon points="541.89,587.49 542.05,589.89 492.41,573.78 492.25,571.37 		"/>
		<polygon class="st2" points="542.53,592.13 542.69,594.53 481.63,574.71 481.47,572.3 		"/>
		<polygon class="st16" points="642.01,535.58 642.17,537.98 542.69,594.53 542.53,592.13 		"/>
		<polygon points="806.63,584.58 806.79,586.98 641.54,533.32 641.38,530.92 		"/>
		<polygon class="st2" points="799.82,586.82 799.98,589.22 642.17,537.98 642.01,535.58 		"/>
		<polygon class="st11" points="806.63,584.58 806.79,586.98 784.17,668.51 784.01,666.11 		"/>
		<polygon points="911.97,387.44 912.13,389.84 833.83,684.64 833.68,682.23 		"/>
		<polygon points="833.68,682.23 833.83,684.64 784.17,668.51 784.01,666.11 		"/>
		<g>
			<path class="st15" d="M806.63,584.58l-22.62,81.53l49.66,16.13l78.3-294.79l-49.95-16.22L492.25,571.37l49.64,16.12l99.49-56.57
				L806.63,584.58 M918.72,385.2l-80.44,302.96l-61.04-19.82l22.58-81.52l-157.82-51.24l-99.48,56.55l-61.06-19.83l380-205.69
				L918.72,385.2z"/>
		</g>
		<g>
			<path d="M677.8,510.52l137.79,44.74l36.61-126.05c1.14-3.82,4.4-10.24,9.69-19.12l0.9-1.54l-5.75-1.87l-1.66,1.32
				c-8.53,6.83-15.81,11.95-21.68,15.19L677.8,510.52 M911.97,387.44l-78.3,294.79l-49.66-16.13l22.62-81.53l-165.25-53.66
				l-99.49,56.57l-49.64-16.12l369.78-200.15L911.97,387.44z"/>
		</g>
		<polygon class="st2" points="838.28,688.16 838.44,690.56 777.4,670.74 777.24,668.34 		"/>
		<polygon class="st11" points="918.72,385.2 918.88,387.6 838.44,690.56 838.28,688.16 		"/>
	</g>
	<g>
		<polygon class="st2" points="978.65,329.47 978.8,331.88 928.85,315.66 928.7,313.25 		"/>
		<polygon points="923.72,348.71 923.87,351.11 922.22,352.43 922.06,350.03 		"/>
		<polygon points="929.46,350.58 929.62,352.98 923.87,351.11 923.72,348.71 		"/>
		<polygon class="st3" points="929.46,350.58 929.62,352.98 928.72,354.52 928.56,352.12 		"/>
		<g class="st1">
			<path class="st17" d="M908.47,362.69c-0.05-0.8-0.11-1.6-0.16-2.4c4.13-2.8,8.72-6.23,13.74-10.26l0.16,2.4
				C917.19,356.46,912.6,359.89,908.47,362.69z"/>
			<g class="st1">
				<path d="M922.06,350.03l0.16,2.4c-3.12,2.5-6.07,4.77-8.85,6.8l-0.16-2.4C915.99,354.8,918.94,352.53,922.06,350.03"/>
				<path d="M913.21,356.83l0.16,2.4c-4.82,3.52-9.11,6.33-12.83,8.39l-0.16-2.4C904.1,363.16,908.39,360.35,913.21,356.83"/>
			</g>
		</g>
		<g class="st1">
			<path class="st17" d="M908.47,362.69c-2.88,1.95-5.52,3.6-7.93,4.93l-0.16-2.4c2.41-1.33,5.06-2.98,7.93-4.93
				C908.37,361.09,908.42,361.89,908.47,362.69z"/>
			<path d="M913.21,356.83l0.16,2.4c-4.82,3.52-9.11,6.33-12.83,8.39l-0.16-2.4C904.1,363.16,908.39,360.35,913.21,356.83"/>
		</g>
		<g class="st1">
			<path class="st17" d="M918.36,358.78l0.16,2.4c-5.27,3.88-9.97,6.96-14.08,9.22l-0.16-2.4
				C908.39,365.74,913.09,362.66,918.36,358.78z"/>
			<g class="st1">
				<path class="st7" d="M918.36,358.78l0.16,2.4c-0.16,0.12-0.33,0.24-0.49,0.36l-0.16-2.4
					C918.03,359.03,918.2,358.91,918.36,358.78"/>
				<path class="st8" d="M917.87,359.14l0.16,2.4c-5.07,3.71-9.61,6.67-13.59,8.86l-0.16-2.4
					C908.26,365.81,912.8,362.85,917.87,359.14"/>
			</g>
		</g>
		<g class="st1">
			<path class="st17" d="M928.56,352.12l0.16,2.4c-5.29,8.88-8.55,15.3-9.69,19.12l-0.16-2.4
				C920.01,367.42,923.27,361,928.56,352.12z"/>
			<g class="st1">
				<path class="st10" d="M928.56,352.12l0.16,2.4c-0.98,1.65-1.9,3.22-2.74,4.7l-0.16-2.4
					C926.66,355.34,927.57,353.77,928.56,352.12"/>
				<path class="st11" d="M925.82,356.82l0.16,2.4c-3.09,5.43-5.23,9.71-6.39,12.78l-0.16-2.4
					C920.59,366.53,922.72,362.25,925.82,356.82"/>
				<path class="st12" d="M919.43,369.6l0.16,2.4c-0.22,0.59-0.41,1.14-0.56,1.64l-0.16-2.4
					C919.02,370.74,919.21,370.19,919.43,369.6"/>
			</g>
		</g>
		<polygon class="st13" points="904.28,368 904.44,370.4 755.28,453.96 755.12,451.56 		"/>
		<polygon points="900.38,365.22 900.54,367.62 744.63,454.96 744.47,452.55 		"/>
		<polygon class="st13" points="928.7,313.25 928.85,315.66 559.08,515.81 558.92,513.4 		"/>
		<polygon class="st14" points="918.87,371.24 919.03,373.64 882.42,499.7 882.26,497.29 		"/>
		<g>
			<path class="st15" d="M755.12,451.56l122.69,39.84l35.03-120.62c0.84-2.84,2.67-6.8,5.52-12c-5.27,3.88-9.97,6.96-14.08,9.22
				L755.12,451.56 M928.56,352.12c-5.29,8.88-8.55,15.3-9.69,19.12l-36.61,126.05l-137.79-44.74l155.91-87.34
				c5.87-3.24,13.15-8.36,21.68-15.19l1.66-1.32l5.75,1.87L928.56,352.12z"/>
		</g>
		<polygon class="st2" points="882.26,497.29 882.42,499.7 744.63,454.96 744.47,452.55 		"/>
		<polygon points="708.05,472.95 708.21,475.36 608.72,531.93 608.56,529.52 		"/>
		<polygon points="608.56,529.52 608.72,531.93 559.08,515.81 558.92,513.4 		"/>
		<polygon class="st2" points="609.2,534.16 609.36,536.56 548.3,516.74 548.14,514.33 		"/>
		<polygon class="st16" points="708.68,477.61 708.84,480.01 609.36,536.56 609.2,534.16 		"/>
		<polygon points="873.3,526.61 873.46,529.01 708.21,475.36 708.05,472.95 		"/>
		<polygon class="st2" points="866.5,528.85 866.65,531.25 708.84,480.01 708.68,477.61 		"/>
		<polygon class="st11" points="873.3,526.61 873.46,529.01 850.84,610.54 850.68,608.14 		"/>
		<polygon points="978.65,329.47 978.8,331.88 900.5,626.67 900.35,624.27 		"/>
		<polygon points="900.35,624.27 900.5,626.67 850.84,610.54 850.68,608.14 		"/>
		<g>
			<path class="st15" d="M873.3,526.61l-22.62,81.53l49.66,16.13l78.3-294.79l-49.95-16.22L558.92,513.4l49.64,16.12l99.49-56.57
				L873.3,526.61 M985.39,327.23l-80.44,302.96l-61.04-19.82l22.58-81.52l-157.82-51.24l-99.48,56.55l-61.06-19.83l380-205.69
				L985.39,327.23z"/>
		</g>
		<g>
			<path d="M744.47,452.55l137.79,44.74l36.61-126.05c1.14-3.82,4.4-10.24,9.69-19.12l0.9-1.54l-5.75-1.87l-1.66,1.32
				c-8.53,6.83-15.81,11.95-21.68,15.19L744.47,452.55 M978.65,329.47l-78.3,294.79l-49.66-16.13l22.62-81.53l-165.25-53.66
				l-99.49,56.57l-49.64-16.12L928.7,313.25L978.65,329.47z"/>
		</g>
		<polygon class="st2" points="904.95,630.19 905.11,632.59 844.07,612.77 843.91,610.37 		"/>
		<polygon class="st11" points="985.39,327.23 985.55,329.64 905.11,632.59 904.95,630.19 		"/>
	</g>
	<g>
		<polygon class="st2" points="1013.99,298.78 1014.15,301.18 964.2,284.96 964.04,282.56 		"/>
		<polygon points="959.06,318.02 959.22,320.42 957.57,321.74 957.41,319.33 		"/>
		<polygon points="964.81,319.88 964.97,322.28 959.22,320.42 959.06,318.02 		"/>
		<polygon class="st3" points="964.81,319.88 964.97,322.28 964.06,323.83 963.91,321.42 		"/>
		<g class="st1">
			<path class="st17" d="M943.82,331.99c-0.05-0.8-0.11-1.6-0.16-2.4c4.13-2.8,8.72-6.23,13.74-10.26l0.16,2.4
				C952.54,325.76,947.95,329.19,943.82,331.99z"/>
			<g class="st1">
				<path d="M957.41,319.33l0.16,2.4c-3.12,2.5-6.07,4.77-8.85,6.8l-0.16-2.4C951.33,324.1,954.29,321.83,957.41,319.33"/>
				<path d="M948.55,326.13l0.16,2.4c-4.82,3.52-9.11,6.33-12.83,8.39l-0.16-2.4C939.45,332.47,943.74,329.66,948.55,326.13"/>
			</g>
		</g>
		<g class="st1">
			<path class="st17" d="M943.82,331.99c-2.88,1.95-5.52,3.6-7.93,4.93l-0.16-2.4c2.41-1.33,5.06-2.98,7.93-4.93
				C943.72,330.39,943.77,331.19,943.82,331.99z"/>
			<path d="M948.55,326.13l0.16,2.4c-4.82,3.52-9.11,6.33-12.83,8.39l-0.16-2.4C939.45,332.47,943.74,329.66,948.55,326.13"/>
		</g>
		<g class="st1">
			<path class="st17" d="M953.71,328.09l0.16,2.4c-5.27,3.88-9.97,6.96-14.08,9.22l-0.16-2.4
				C943.74,335.05,948.44,331.97,953.71,328.09z"/>
			<g class="st1">
				<path class="st7" d="M953.71,328.09l0.16,2.4c-0.16,0.12-0.33,0.24-0.49,0.36l-0.16-2.4
					C953.38,328.33,953.54,328.21,953.71,328.09"/>
				<path class="st8" d="M953.22,328.45l0.16,2.4c-5.07,3.71-9.61,6.67-13.59,8.86l-0.16-2.4
					C943.61,335.12,948.15,332.16,953.22,328.45"/>
			</g>
		</g>
		<g class="st1">
			<path class="st17" d="M963.91,321.42l0.16,2.4c-5.29,8.88-8.55,15.3-9.69,19.12l-0.16-2.4
				C955.36,336.73,958.62,330.3,963.91,321.42z"/>
			<g class="st1">
				<path class="st10" d="M963.91,321.42l0.16,2.4c-0.98,1.65-1.9,3.22-2.74,4.7l-0.16-2.4
					C962.01,324.64,962.92,323.08,963.91,321.42"/>
				<path class="st11" d="M961.16,326.12l0.16,2.4c-3.09,5.43-5.23,9.71-6.39,12.78l-0.16-2.4
					C955.93,335.84,958.07,331.56,961.16,326.12"/>
				<path class="st12" d="M954.78,338.91l0.16,2.4c-0.22,0.59-0.41,1.14-0.56,1.64l-0.16-2.4
					C954.37,340.05,954.55,339.5,954.78,338.91"/>
			</g>
		</g>
		<polygon class="st13" points="939.63,337.31 939.78,339.71 790.62,423.27 790.47,420.87 		"/>
		<polygon points="935.73,334.52 935.89,336.93 779.98,424.26 779.82,421.86 		"/>
		<polygon class="st13" points="964.04,282.56 964.2,284.96 594.42,485.11 594.27,482.71 		"/>
		<polygon class="st14" points="954.22,340.55 954.37,342.95 917.76,469 917.61,466.6 		"/>
		<g>
			<path class="st15" d="M790.47,420.87l122.69,39.84l35.03-120.62c0.84-2.84,2.67-6.8,5.52-12c-5.27,3.88-9.97,6.96-14.08,9.22
				L790.47,420.87 M963.91,321.42c-5.29,8.88-8.55,15.3-9.69,19.12L917.61,466.6l-137.79-44.74l155.91-87.34
				c5.87-3.24,13.15-8.36,21.68-15.19l1.66-1.32l5.75,1.87L963.91,321.42z"/>
		</g>
		<polygon class="st2" points="917.61,466.6 917.76,469 779.98,424.26 779.82,421.86 		"/>
		<polygon points="743.4,442.26 743.56,444.66 644.07,501.23 643.91,498.83 		"/>
		<polygon points="643.91,498.83 644.07,501.23 594.42,485.11 594.27,482.71 		"/>
		<polygon class="st2" points="644.55,503.47 644.71,505.87 583.65,486.04 583.49,483.64 		"/>
		<polygon class="st16" points="744.03,446.91 744.19,449.31 644.71,505.87 644.55,503.47 		"/>
		<polygon points="908.65,495.92 908.81,498.32 743.56,444.66 743.4,442.26 		"/>
		<polygon class="st2" points="901.84,498.15 902,500.56 744.19,449.31 744.03,446.91 		"/>
		<polygon class="st11" points="908.65,495.92 908.81,498.32 886.19,579.85 886.03,577.44 		"/>
		<polygon points="1013.99,298.78 1014.15,301.18 935.85,595.97 935.69,593.57 		"/>
		<polygon points="935.69,593.57 935.85,595.97 886.19,579.85 886.03,577.44 		"/>
		<g>
			<path class="st15" d="M908.65,495.92l-22.62,81.53l49.66,16.13l78.3-294.79l-49.95-16.22L594.27,482.71l49.64,16.12l99.49-56.57
				L908.65,495.92 M1020.74,296.54L940.3,599.49l-61.04-19.82l22.58-81.52l-157.82-51.24l-99.48,56.55l-61.06-19.83l380-205.69
				L1020.74,296.54z"/>
		</g>
		<g>
			<path d="M779.82,421.86l137.79,44.74l36.61-126.05c1.14-3.82,4.4-10.24,9.69-19.12l0.9-1.54l-5.75-1.87l-1.66,1.32
				c-8.53,6.83-15.81,11.95-21.68,15.19L779.82,421.86 M1013.99,298.78l-78.3,294.79l-49.66-16.13l22.62-81.53L743.4,442.26
				l-99.49,56.57l-49.64-16.12l369.78-200.15L1013.99,298.78z"/>
		</g>
		<polygon class="st2" points="940.3,599.49 940.45,601.9 879.42,582.08 879.26,579.68 		"/>
		<polygon class="st11" points="1020.74,296.54 1020.9,298.94 940.45,601.9 940.3,599.49 		"/>
	</g>
	<g>
		<polygon class="st2" points="978.35,289.48 978.51,291.89 928.56,275.67 928.4,273.26 		"/>
		<polygon points="923.42,308.72 923.58,311.12 921.92,312.44 921.76,310.04 		"/>
		<polygon points="929.16,310.59 929.32,312.99 923.58,311.12 923.42,308.72 		"/>
		<polygon class="st3" points="929.16,310.59 929.32,312.99 928.42,314.53 928.26,312.13 		"/>
		<g class="st1">
			<path class="st17" d="M908.18,322.7c-0.05-0.8-0.11-1.6-0.16-2.4c4.13-2.8,8.72-6.23,13.74-10.26l0.16,2.4
				C916.9,316.47,912.3,319.9,908.18,322.7z"/>
			<g class="st1">
				<path d="M921.76,310.04l0.16,2.4c-3.12,2.5-6.07,4.77-8.85,6.8l-0.16-2.4C915.69,314.81,918.64,312.54,921.76,310.04"/>
				<path d="M912.91,316.84l0.16,2.4c-4.82,3.52-9.11,6.33-12.83,8.39l-0.16-2.4C903.8,323.17,908.09,320.36,912.91,316.84"/>
			</g>
		</g>
		<g class="st1">
			<path class="st17" d="M908.18,322.7c-2.88,1.95-5.52,3.6-7.93,4.93l-0.16-2.4c2.41-1.33,5.06-2.98,7.93-4.93
				C908.07,321.1,908.12,321.9,908.18,322.7z"/>
			<path d="M912.91,316.84l0.16,2.4c-4.82,3.52-9.11,6.33-12.83,8.39l-0.16-2.4C903.8,323.17,908.09,320.36,912.91,316.84"/>
		</g>
		<g class="st1">
			<path class="st17" d="M918.06,318.8l0.16,2.4c-5.27,3.88-9.97,6.96-14.08,9.22l-0.16-2.4
				C908.09,325.75,912.8,322.67,918.06,318.8z"/>
			<g class="st1">
				<path class="st7" d="M918.06,318.8l0.16,2.4c-0.16,0.12-0.33,0.24-0.49,0.36l-0.16-2.4C917.74,319.04,917.9,318.92,918.06,318.8
					"/>
				<path class="st8" d="M917.57,319.16l0.16,2.4c-5.07,3.71-9.61,6.67-13.59,8.86l-0.16-2.4
					C907.96,325.82,912.5,322.86,917.57,319.16"/>
			</g>
		</g>
		<g class="st1">
			<path class="st17" d="M928.26,312.13l0.16,2.4c-5.29,8.88-8.55,15.3-9.69,19.12l-0.16-2.4
				C919.72,327.43,922.97,321.01,928.26,312.13z"/>
			<g class="st1">
				<path class="st10" d="M928.26,312.13l0.16,2.4c-0.98,1.65-1.9,3.22-2.74,4.7l-0.16-2.4
					C926.36,315.35,927.28,313.78,928.26,312.13"/>
				<path class="st11" d="M925.52,316.83l0.16,2.4c-3.09,5.43-5.23,9.71-6.39,12.78l-0.16-2.4
					C920.29,326.54,922.43,322.27,925.52,316.83"/>
				<path class="st12" d="M919.13,329.62l0.16,2.4c-0.22,0.59-0.41,1.14-0.56,1.64l-0.16-2.4
					C918.72,330.75,918.91,330.21,919.13,329.62"/>
			</g>
		</g>
		<polygon class="st13" points="903.98,328.01 904.14,330.41 754.98,413.97 754.82,411.57 		"/>
		<polygon points="900.08,325.23 900.24,327.63 744.33,414.97 744.17,412.56 		"/>
		<polygon class="st13" points="928.4,273.26 928.56,275.67 558.78,475.82 558.62,473.41 		"/>
		<polygon class="st14" points="918.57,331.25 918.73,333.65 882.12,459.71 881.96,457.3 		"/>
		<g>
			<path class="st15" d="M754.82,411.57l122.69,39.84l35.03-120.62c0.84-2.84,2.67-6.8,5.52-12c-5.27,3.88-9.97,6.96-14.08,9.22
				L754.82,411.57 M928.26,312.13c-5.29,8.88-8.55,15.3-9.69,19.12L881.96,457.3l-137.79-44.74l155.91-87.34
				c5.87-3.24,13.15-8.36,21.68-15.19l1.66-1.32l5.75,1.87L928.26,312.13z"/>
		</g>
		<polygon class="st2" points="881.96,457.3 882.12,459.71 744.33,414.97 744.17,412.56 		"/>
		<polygon points="707.75,432.96 707.91,435.37 608.42,491.94 608.26,489.53 		"/>
		<polygon points="608.26,489.53 608.42,491.94 558.78,475.82 558.62,473.41 		"/>
		<polygon class="st2" points="608.91,494.17 609.06,496.57 548,476.75 547.84,474.35 		"/>
		<polygon class="st16" points="708.38,437.62 708.54,440.02 609.06,496.57 608.91,494.17 		"/>
		<polygon points="873.01,486.62 873.16,489.02 707.91,435.37 707.75,432.96 		"/>
		<polygon class="st2" points="866.2,488.86 866.36,491.26 708.54,440.02 708.38,437.62 		"/>
		<polygon class="st11" points="873.01,486.62 873.16,489.02 850.54,570.55 850.39,568.15 		"/>
		<polygon points="978.35,289.48 978.51,291.89 900.21,586.68 900.05,584.28 		"/>
		<polygon points="900.05,584.28 900.21,586.68 850.54,570.55 850.39,568.15 		"/>
		<g>
			<path class="st15" d="M873.01,486.62l-22.62,81.53l49.66,16.13l78.3-294.79l-49.95-16.22L558.62,473.41l49.64,16.12l99.49-56.57
				L873.01,486.62 M985.1,287.24L904.65,590.2l-61.04-19.82l22.58-81.52l-157.82-51.24l-99.48,56.55l-61.06-19.83l380-205.69
				L985.1,287.24z"/>
		</g>
		<g>
			<path d="M744.17,412.56l137.79,44.74l36.61-126.05c1.14-3.82,4.4-10.24,9.69-19.12l0.9-1.54l-5.75-1.87l-1.66,1.32
				c-8.53,6.83-15.81,11.95-21.68,15.19L744.17,412.56 M978.35,289.48l-78.3,294.79l-49.66-16.13l22.62-81.53l-165.25-53.66
				l-99.49,56.57l-49.64-16.12L928.4,273.26L978.35,289.48z"/>
		</g>
		<polygon class="st2" points="904.65,590.2 904.81,592.6 843.77,572.78 843.61,570.38 		"/>
		<polygon class="st11" points="985.1,287.24 985.25,289.65 904.81,592.6 904.65,590.2 		"/>
	</g>
	<g>
		<g class="st1">
			<g>
				<polygon class="st2" points="978.2,269.49 978.36,271.89 928.41,255.67 928.25,253.27 				"/>
			</g>
			<g>
				<polygon points="923.27,288.73 923.43,291.13 921.77,292.45 921.61,290.04 				"/>
			</g>
			<g>
				<polygon points="929.02,290.59 929.17,293 923.43,291.13 923.27,288.73 				"/>
			</g>
			<g>
				<polygon class="st3" points="929.02,290.59 929.17,293 928.27,294.54 928.11,292.14 				"/>
			</g>
			<g class="st1">
				<defs>
					<path id="SVGID_9_" class="st1" d="M908.03,302.7c-0.05-0.8-0.11-1.6-0.16-2.4c4.13-2.8,8.72-6.23,13.74-10.26l0.16,2.4
						C916.75,296.47,912.15,299.9,908.03,302.7z"/>
				</defs>
				<clipPath id="SVGID_10_">
					<use xlink:href="#SVGID_9_"  style="overflow:visible;"/>
				</clipPath>
				<g class="st18">
					<path d="M921.61,290.04l0.16,2.4c-3.12,2.5-6.07,4.77-8.85,6.8l-0.16-2.4C915.54,294.81,918.49,292.54,921.61,290.04"/>
					<path d="M912.76,296.85l0.16,2.4c-4.82,3.52-9.11,6.33-12.83,8.39l-0.16-2.4C903.65,303.18,907.94,300.37,912.76,296.85"/>
				</g>
			</g>
			<g class="st1">
				<defs>
					<path id="SVGID_11_" class="st1" d="M908.03,302.7c-2.88,1.95-5.52,3.6-7.93,4.93l-0.16-2.4c2.41-1.33,5.06-2.98,7.93-4.93
						C907.92,301.1,907.97,301.9,908.03,302.7z"/>
				</defs>
				<clipPath id="SVGID_12_">
					<use xlink:href="#SVGID_11_"  style="overflow:visible;"/>
				</clipPath>
				<g class="st19">
					<path d="M912.76,296.85l0.16,2.4c-4.82,3.52-9.11,6.33-12.83,8.39l-0.16-2.4C903.65,303.18,907.94,300.37,912.76,296.85"/>
				</g>
			</g>
			<g class="st1">
				<defs>
					<path id="SVGID_13_" class="st1" d="M917.91,298.8l0.16,2.4c-5.27,3.88-9.97,6.96-14.08,9.22l-0.16-2.4
						C907.94,305.76,912.65,302.68,917.91,298.8z"/>
				</defs>
				<clipPath id="SVGID_14_">
					<use xlink:href="#SVGID_13_"  style="overflow:visible;"/>
				</clipPath>
				<g class="st20">
					<path class="st7" d="M917.91,298.8l0.16,2.4c-0.16,0.12-0.33,0.24-0.49,0.36l-0.16-2.4
						C917.59,299.04,917.75,298.92,917.91,298.8"/>
					<path class="st8" d="M917.42,299.16l0.16,2.4c-5.07,3.71-9.61,6.67-13.59,8.86l-0.16-2.4
						C907.82,305.83,912.35,302.87,917.42,299.16"/>
				</g>
			</g>
			<g class="st1">
				<defs>
					<path id="SVGID_15_" class="st1" d="M928.11,292.14l0.16,2.4c-5.29,8.88-8.55,15.3-9.69,19.12l-0.16-2.4
						C919.57,307.44,922.82,301.01,928.11,292.14z"/>
				</defs>
				<clipPath id="SVGID_16_">
					<use xlink:href="#SVGID_15_"  style="overflow:visible;"/>
				</clipPath>
				<g class="st21">
					<path class="st10" d="M928.11,292.14l0.16,2.4c-0.98,1.65-1.9,3.22-2.74,4.7l-0.16-2.4
						C926.21,295.35,927.13,293.79,928.11,292.14"/>
					<path class="st11" d="M925.37,296.84l0.16,2.4c-3.09,5.43-5.23,9.71-6.39,12.78l-0.16-2.4
						C920.14,306.55,922.28,302.27,925.37,296.84"/>
					<path class="st12" d="M918.98,309.62l0.16,2.4c-0.22,0.59-0.41,1.14-0.56,1.64l-0.16-2.4
						C918.57,310.76,918.76,310.21,918.98,309.62"/>
				</g>
			</g>
			<g>
				<polygon class="st13" points="903.83,308.02 903.99,310.42 754.83,393.98 754.67,391.58 				"/>
			</g>
			<g>
				<polygon points="899.93,305.23 900.09,307.64 744.18,394.97 744.02,392.57 				"/>
			</g>
			<g>
				<polygon class="st13" points="928.25,253.27 928.41,255.67 558.63,455.82 558.47,453.42 				"/>
			</g>
			<g>
				<polygon class="st14" points="918.42,311.26 918.58,313.66 881.97,439.71 881.81,437.31 				"/>
			</g>
			<g>
				<path class="st15" d="M754.67,391.58l122.69,39.84l35.03-120.62c0.84-2.84,2.67-6.8,5.52-12c-5.27,3.88-9.97,6.96-14.08,9.22
					L754.67,391.58 M928.11,292.14c-5.29,8.88-8.55,15.3-9.69,19.12l-36.61,126.05l-137.79-44.74l155.91-87.34
					c5.87-3.24,13.15-8.36,21.68-15.19l1.66-1.32l5.75,1.87L928.11,292.14z"/>
			</g>
			<g>
				<polygon class="st2" points="881.81,437.31 881.97,439.71 744.18,394.97 744.02,392.57 				"/>
			</g>
			<g>
				<polygon points="707.6,412.97 707.76,415.37 608.27,471.94 608.11,469.54 				"/>
			</g>
			<g>
				<polygon points="608.11,469.54 608.27,471.94 558.63,455.82 558.47,453.42 				"/>
			</g>
			<g>
				<polygon class="st2" points="608.76,474.18 608.92,476.58 547.85,456.75 547.7,454.35 				"/>
			</g>
			<g>
				<polygon class="st16" points="708.23,417.62 708.39,420.03 608.92,476.58 608.76,474.18 				"/>
			</g>
			<g>
				<polygon points="872.86,466.63 873.02,469.03 707.76,415.37 707.6,412.97 				"/>
			</g>
			<g>
				<polygon class="st2" points="866.05,468.87 866.21,471.27 708.39,420.03 708.23,417.62 				"/>
			</g>
			<g>
				<polygon class="st11" points="872.86,466.63 873.02,469.03 850.39,550.56 850.24,548.16 				"/>
			</g>
			<g>
				<polygon points="978.2,269.49 978.36,271.89 900.06,566.68 899.9,564.28 				"/>
			</g>
			<g>
				<polygon points="899.9,564.28 900.06,566.68 850.39,550.56 850.24,548.16 				"/>
			</g>
			<g>
				<path class="st15" d="M872.86,466.63l-22.62,81.53l49.66,16.13l78.3-294.79l-49.95-16.22L558.47,453.42l49.64,16.12l99.49-56.57
					L872.86,466.63 M984.95,267.25L904.5,570.21l-61.04-19.82l22.58-81.52l-157.82-51.24l-99.48,56.55l-61.06-19.83l380-205.69
					L984.95,267.25z"/>
			</g>
			<g>
				<path d="M744.02,392.57l137.79,44.74l36.61-126.05c1.14-3.82,4.4-10.24,9.69-19.12l0.9-1.54l-5.75-1.87l-1.66,1.32
					c-8.53,6.83-15.81,11.95-21.68,15.19L744.02,392.57 M978.2,269.49l-78.3,294.79l-49.66-16.13l22.62-81.53L707.6,412.97
					l-99.49,56.57l-49.64-16.12l369.78-200.15L978.2,269.49z"/>
			</g>
			<g>
				<polygon class="st2" points="904.5,570.21 904.66,572.61 843.62,552.79 843.47,550.39 				"/>
			</g>
			<g>
				<polygon class="st11" points="984.95,267.25 985.1,269.65 904.66,572.61 904.5,570.21 				"/>
			</g>
		</g>
	</g>
	<g class="st1">
		<defs>
			<polygon id="SVGID_17_" class="st1" points="932.25,573.5 1005.49,474.24 1438.53,582.1 1365.29,681.37 			"/>
		</defs>
		<clipPath id="SVGID_18_">
			<use xlink:href="#SVGID_17_"  style="overflow:visible;"/>
		</clipPath>
		<g class="st22">
			<path class="st23" d="M985.15,524.54l2.06,0.46l0.46-0.33c5.91-4.3,12.57-7.24,19.79-8.71c7.16-1.47,14.43-1.4,21.59,0.2
				c0.56,0.13,1.1,0.25,1.64,0.39c3.24,0.81,5.99,1.75,8.2,2.81l-4.55,6.9c-2.25-1.68-5.5-3.06-9.68-4.1
				c-0.42-0.1-0.85-0.21-1.29-0.3c-9.43-2.1-19.05-1.03-28.56,3.2c-9.38,4.16-17.01,10.63-22.7,19.23l-21.29,32.24l-11.49-2.56
				l43.98-66.6l11.48,2.57L985.15,524.54 M1031.55,515.5c-0.58-0.14-1.18-0.29-1.79-0.42c-7.61-1.7-15.34-1.77-22.97-0.21
				c-6.43,1.31-12.4,3.71-17.81,7.13l8.41-12.74l-15.23-3.4l-45.04,68.22l-0.36,0.54l15.23,3.4l22-33.32
				c5.55-8.4,12.97-14.7,22.04-18.73c8.94-3.96,17.9-4.98,26.64-3.03c0.4,0.09,0.8,0.18,1.19,0.28c4.56,1.14,7.89,2.67,9.89,4.58
				l1.06,1.01l6.46-9.78l-0.52-0.27C1038.31,517.51,1035.23,516.42,1031.55,515.5"/>
			<path class="st23" d="M1042.77,527.37l3.88-5.88l20.6,4.6l11.41-17.28l13.29,0.42l-12.88,19.5l30.28,6.76l-3.88,5.87l-30.27-6.76
				l-28.26,42.78c-3.12,4.73-4.08,8.51-2.86,11.21c1.17,2.61,4.61,4.64,10.22,6.04c0.38,0.09,0.77,0.19,1.17,0.27
				c4.45,0.99,9.19,1.27,14.1,0.83l-3.82,5.77c-5.83,0.22-11.38-0.25-16.52-1.4c-0.59-0.13-1.16-0.27-1.72-0.41
				c-16.71-4.16-20.98-11.95-13.16-23.79l29.01-43.94L1042.77,527.37 M1094.79,508.15l-17.49-0.54l-11.21,16.98L1045.5,520
				l-5.31,8.03l20.6,4.59l-28.3,42.86c-8.18,12.39-3.38,20.89,14.25,25.28c0.58,0.14,1.17,0.28,1.78,0.42
				c5.6,1.25,11.67,1.74,18.03,1.45l0.63-0.03l5.56-8.42l-1.8,0.23c-5.17,0.64-10.12,0.45-14.74-0.58
				c-0.36-0.08-0.72-0.16-1.06-0.25c-5.03-1.25-8.09-3.02-9.11-5.27c-1.12-2.47-0.17-6.01,2.79-10.5l27.54-41.7l30.28,6.76l5.3-8.04
				l-30.27-6.75L1094.79,508.15"/>
			<path class="st23" d="M1091.17,607.83l43.97-66.6l11.71,2.61l-43.98,66.6L1091.17,607.83 M1149.44,543.19l-15.45-3.45
				l-45.04,68.22l-0.36,0.54l15.45,3.45l45.04-68.22L1149.44,543.19 M1152.48,524.28c-2.24-0.56-3.86-1.48-4.93-2.81
				c-1.14-1.39-1.18-2.85-0.14-4.42c0.91-1.37,2.52-2.36,4.94-3.02c2.41-0.65,4.84-0.69,7.41-0.11c0.16,0.03,0.32,0.07,0.47,0.11
				c2.35,0.59,4.04,1.5,5.14,2.78c1.15,1.35,1.22,2.75,0.21,4.29c-0.99,1.49-2.67,2.53-5.16,3.17c-2.49,0.64-4.95,0.67-7.55,0.09
				C1152.74,524.35,1152.61,524.32,1152.48,524.28 M1161,512.97c-0.17-0.04-0.35-0.08-0.52-0.12c-3.07-0.69-6.09-0.64-8.97,0.14
				c-2.87,0.77-4.88,2-5.96,3.64c-1.24,1.86-1.17,3.66,0.19,5.33c1.28,1.58,3.28,2.72,5.96,3.38c0.15,0.04,0.3,0.07,0.46,0.11
				c3.06,0.68,6.11,0.64,9.07-0.12c2.95-0.76,5.05-2.05,6.22-3.82c1.21-1.82,1.11-3.57-0.29-5.21
				C1165.86,514.79,1163.78,513.67,1161,512.97"/>
			<path class="st23" d="M1166.92,619.97c0.5,0.13,1.01,0.24,1.51,0.36c9,2.01,16.55,2.52,22.44,1.52
				c5.99-1.02,10.39-3.59,13.08-7.66c1.25-1.89,1.59-3.78,0.99-5.61c-0.59-1.8-2.02-3.68-4.26-5.6c-2.2-1.89-6.9-4.9-13.96-8.95
				c-9.58-5.28-15.71-9.9-18.2-13.73c-2.46-3.77-2.25-7.9,0.66-12.29c3.47-5.26,10.09-8.82,19.69-10.6
				c9.67-1.8,20.38-1.41,31.83,1.15c0.96,0.21,1.9,0.44,2.82,0.67c8.38,2.09,15.28,4.82,20.55,8.16l-4.67,7.07
				c-6.11-4.52-13.53-7.89-22.08-10.02c-0.65-0.16-1.31-0.32-1.98-0.47c-7.68-1.71-14.68-2-20.8-0.85
				c-6.2,1.17-10.52,3.53-12.84,7.04c-2.19,3.31-2.2,6.4-0.06,9.18c2.11,2.74,7.19,6.27,15.5,10.79
				c10.38,5.76,16.96,10.6,19.57,14.38c2.57,3.72,2.45,7.76-0.36,12.02c-3.66,5.55-10.42,9.19-20.08,10.84
				c-9.76,1.66-20.9,1.12-33.09-1.61c-0.95-0.21-1.89-0.43-2.81-0.66c-9.66-2.41-17.31-5.7-22.8-9.8l4.96-7.52
				c2.5,2.36,5.97,4.67,10.35,6.91C1157.45,617.01,1162.17,618.79,1166.92,619.97 M1224.35,558.17c-0.95-0.24-1.93-0.47-2.92-0.69
				c-11.89-2.65-23.05-3.04-33.17-1.17c-10.2,1.89-17.25,5.69-20.94,11.29c-3.09,4.66-3.31,9.08-0.67,13.12
				c2.6,3.98,8.89,8.74,18.68,14.15c6.96,3.99,11.57,6.93,13.7,8.76c2.08,1.79,3.41,3.53,3.95,5.17c0.53,1.61,0.23,3.29-0.89,4.98
				c-2.45,3.71-6.41,6.06-11.77,6.96c-5.47,0.93-12.58,0.43-21.16-1.49c-0.48-0.11-0.97-0.22-1.45-0.34
				c-4.58-1.14-9.1-2.85-13.49-5.09c-4.85-2.48-8.54-5.06-10.97-7.66l-1.03-1.11l-6.88,10.43l0.33,0.25
				c5.72,4.39,13.77,7.89,23.96,10.43c0.94,0.23,1.89,0.46,2.86,0.67c12.62,2.82,24.19,3.37,34.38,1.64
				c10.29-1.75,17.48-5.63,21.38-11.54c3-4.54,3.12-8.87,0.36-12.86c-2.72-3.93-9.47-8.91-20.06-14.79
				c-8-4.36-13.07-7.86-15.04-10.42c-1.92-2.49-1.88-5.28,0.1-8.29c2.12-3.21,5.91-5.28,11.59-6.36c5.67-1.06,12.23-0.79,19.47,0.83
				c0.63,0.14,1.25,0.29,1.87,0.44c8.76,2.18,16.29,5.71,22.39,10.49l1.08,0.85l6.4-9.69l-0.41-0.26
				C1240.48,563.3,1233.2,560.37,1224.35,558.17"/>
			<path class="st23" d="M1261.06,576.07l3.88-5.88l20.6,4.6l11.4-17.28l13.29,0.41l-12.87,19.51l30.27,6.75l-3.87,5.88l-30.28-6.76
				l-28.25,42.79c-3.12,4.73-4.08,8.5-2.85,11.21c1.17,2.61,4.59,4.63,10.21,6.03c0.38,0.09,0.77,0.19,1.17,0.28
				c4.45,0.99,9.19,1.27,14.09,0.82l-3.81,5.78c-5.82,0.22-11.38-0.26-16.52-1.4c-0.58-0.13-1.15-0.26-1.7-0.4
				c-16.72-4.16-21-11.95-13.18-23.8l29.01-43.94L1261.06,576.07 M1313.08,556.86l-17.49-0.54l-11.22,16.98l-20.6-4.6l-5.3,8.04
				l20.6,4.59l-28.3,42.86c-8.18,12.39-3.39,20.89,14.25,25.28c0.58,0.14,1.17,0.28,1.78,0.42c5.6,1.25,11.67,1.73,18.03,1.45
				l0.63-0.03l5.56-8.43l-1.81,0.22c-5.16,0.64-10.12,0.45-14.73-0.58c-0.35-0.08-0.7-0.16-1.03-0.24
				c-5.05-1.26-8.13-3.03-9.14-5.28c-1.12-2.47-0.18-6,2.79-10.5l27.54-41.7l30.28,6.76l5.3-8.04l-30.28-6.76L1313.08,556.86"/>
			<path class="st23" d="M1334,657.26c0.5,0.13,1.01,0.24,1.51,0.36c9,2.01,16.55,2.52,22.44,1.52c5.99-1.02,10.39-3.59,13.08-7.66
				c1.25-1.9,1.59-3.78,0.99-5.61c-0.58-1.8-2.02-3.68-4.26-5.61c-2.2-1.89-6.9-4.89-13.97-8.94c-9.57-5.29-15.7-9.9-18.19-13.73
				c-2.46-3.77-2.24-7.9,0.66-12.29c3.47-5.26,10.09-8.83,19.69-10.6c9.67-1.8,20.39-1.41,31.83,1.15c0.98,0.22,1.94,0.44,2.88,0.68
				c8.36,2.08,15.24,4.82,20.51,8.14l-4.67,7.07c-6.11-4.53-13.53-7.9-22.09-10.03c-0.65-0.16-1.31-0.32-1.97-0.46
				c-7.68-1.71-14.68-2-20.81-0.85c-6.21,1.16-10.52,3.53-12.84,7.04c-2.19,3.31-2.21,6.4-0.06,9.18c2.11,2.74,7.18,6.28,15.49,10.8
				c10.38,5.76,16.96,10.6,19.57,14.38c2.57,3.71,2.45,7.76-0.36,12.02c-3.66,5.54-10.42,9.19-20.08,10.84
				c-9.76,1.66-20.9,1.12-33.1-1.6c-0.94-0.21-1.87-0.43-2.77-0.65c-9.67-2.41-17.34-5.7-22.83-9.81l4.96-7.52
				c2.5,2.36,5.97,4.68,10.34,6.91C1324.53,654.29,1329.24,656.07,1334,657.26 M1391.44,595.45c-0.96-0.24-1.93-0.47-2.93-0.69
				c-11.89-2.65-23.05-3.05-33.17-1.17c-10.2,1.89-17.25,5.69-20.94,11.29c-3.09,4.67-3.31,9.08-0.67,13.12
				c2.6,3.99,8.89,8.75,18.67,14.15c6.97,3.99,11.57,6.93,13.7,8.76c2.08,1.79,3.41,3.53,3.95,5.17c0.52,1.62,0.23,3.29-0.89,4.98
				c-2.46,3.71-6.41,6.06-11.78,6.97c-5.46,0.92-12.58,0.43-21.16-1.49c-0.48-0.11-0.96-0.22-1.44-0.34
				c-4.58-1.14-9.11-2.86-13.5-5.1c-4.85-2.48-8.54-5.05-10.97-7.65l-1.03-1.11l-6.88,10.43l0.33,0.26
				c5.72,4.39,13.77,7.89,23.96,10.43c0.94,0.23,1.89,0.46,2.86,0.67c12.62,2.82,24.19,3.37,34.38,1.63
				c10.3-1.75,17.49-5.63,21.38-11.53c3-4.54,3.12-8.87,0.35-12.86c-2.72-3.93-9.46-8.9-20.05-14.79
				c-8.01-4.35-13.07-7.86-15.04-10.42c-1.92-2.49-1.89-5.28,0.1-8.29c2.12-3.2,5.91-5.28,11.59-6.35
				c5.68-1.07,12.23-0.79,19.47,0.83c0.63,0.14,1.25,0.29,1.87,0.44c8.76,2.18,16.29,5.71,22.39,10.49l1.09,0.85l6.39-9.69
				l-0.4-0.26C1407.56,600.58,1400.29,597.66,1391.44,595.45"/>
		</g>
	</g>
</g>
</svg>
