<?xml version="1.0" encoding="utf-8"?>
<!-- Generator: Adobe Illustrator 24.3.0, SVG Export Plug-In . SVG Version: 6.00 Build 0)  -->
<svg version="1.1" id="Слой_1" xmlns="http://www.w3.org/2000/svg" xmlns:xlink="http://www.w3.org/1999/xlink" x="0px" y="0px"
	 viewBox="0 0 1920 1080" style="enable-background:new 0 0 1920 1080;" xml:space="preserve">
<style type="text/css">
	.st0{display:none;fill:#E6E6E6;}
	.st1{enable-background:new    ;}
	.st2{fill:none;}
	.st3{clip-path:url(#SVGID_2_);enable-background:new    ;}
	.st4{clip-path:url(#SVGID_4_);enable-background:new    ;}
	.st5{clip-path:url(#SVGID_6_);enable-background:new    ;}
	.st6{clip-path:url(#SVGID_8_);enable-background:new    ;}
	.st7{clip-path:url(#SVGID_10_);enable-background:new    ;}
	.st8{clip-path:url(#SVGID_12_);enable-background:new    ;}
	.st9{clip-path:url(#SVGID_14_);enable-background:new    ;}
	.st10{clip-path:url(#SVGID_16_);enable-background:new    ;}
	.st11{clip-path:url(#SVGID_18_);enable-background:new    ;}
	.st12{clip-path:url(#SVGID_20_);enable-background:new    ;}
	.st13{clip-path:url(#SVGID_22_);enable-background:new    ;}
	.st14{clip-path:url(#SVGID_24_);enable-background:new    ;}
	.st15{clip-path:url(#SVGID_26_);enable-background:new    ;}
	.st16{clip-path:url(#SVGID_28_);enable-background:new    ;}
	.st17{clip-path:url(#SVGID_30_);enable-background:new    ;}
	.st18{clip-path:url(#SVGID_32_);enable-background:new    ;}
	.st19{clip-path:url(#SVGID_34_);enable-background:new    ;}
	.st20{clip-path:url(#SVGID_36_);enable-background:new    ;}
	.st21{clip-path:url(#SVGID_38_);enable-background:new    ;}
	.st22{clip-path:url(#SVGID_40_);enable-background:new    ;}
	.st23{clip-path:url(#SVGID_42_);enable-background:new    ;}
	.st24{clip-path:url(#SVGID_44_);enable-background:new    ;}
	.st25{clip-path:url(#SVGID_46_);enable-background:new    ;}
	.st26{clip-path:url(#SVGID_48_);enable-background:new    ;}
	.st27{clip-path:url(#SVGID_50_);enable-background:new    ;}
	.st28{clip-path:url(#SVGID_52_);enable-background:new    ;}
	.st29{clip-path:url(#SVGID_54_);enable-background:new    ;}
	.st30{clip-path:url(#SVGID_56_);enable-background:new    ;}
	.st31{clip-path:url(#SVGID_58_);enable-background:new    ;}
	.st32{clip-path:url(#SVGID_60_);enable-background:new    ;}
	.st33{clip-path:url(#SVGID_62_);enable-background:new    ;}
	.st34{clip-path:url(#SVGID_64_);enable-background:new    ;}
	.st35{clip-path:url(#SVGID_66_);enable-background:new    ;}
	.st36{clip-path:url(#SVGID_68_);enable-background:new    ;}
	.st37{clip-path:url(#SVGID_70_);enable-background:new    ;}
	.st38{clip-path:url(#SVGID_72_);enable-background:new    ;}
</style>
<rect class="st0" width="1920" height="1075"/>
<g>
	<g>
		<g class="st1">
			<g>
				<polygon points="670.28,391.14 670.23,407.44 657.07,418.75 657.12,402.45 				"/>
			</g>
			<g>
				<path d="M519.47,437.58l0.05-16.3c0.02-7.89,4.78-15.92,14.29-24.09c12.3-10.57,27.15-16.98,44.57-19.22
					c17.41-2.24,34.2-0.2,50.37,6.13c12.42,4.86,21.89,10.98,28.39,18.35l-0.05,16.3c-6.5-7.37-15.97-13.49-28.39-18.35
					c-16.16-6.33-32.96-8.37-50.37-6.13c-17.41,2.24-32.27,8.65-44.57,19.22C524.25,421.66,519.49,429.69,519.47,437.58z"/>
			</g>
			<g>
				<polygon points="591.2,459.11 591.16,475.41 579.07,485.8 579.12,469.5 				"/>
			</g>
			<g>
				<path d="M495.7,436.62l0.05-16.3c-0.01,2.47,0.34,4.93,1.04,7.4c3.55,12.49,15.71,22.8,36.5,30.94
					c16.1,6.3,31.38,9.92,45.83,10.85l-0.05,16.3c-14.45-0.93-29.73-4.55-45.83-10.85c-20.79-8.13-32.95-18.45-36.5-30.94
					C496.04,441.55,495.7,439.09,495.7,436.62z"/>
			</g>
			<g>
				<path d="M639.88,374.28c13.86,5.42,23.99,11.05,30.4,16.86l-13.16,11.31c-6.5-7.37-15.97-13.49-28.39-18.35
					c-16.16-6.33-32.96-8.37-50.37-6.13c-17.41,2.24-32.27,8.65-44.57,19.22c-11.67,10.03-16.19,19.85-13.57,29.46
					c2.63,9.61,11.62,17.42,26.97,23.43c14.35,5.62,29.02,8.62,44,9.03l-12.09,10.39c-14.45-0.93-29.73-4.55-45.83-10.85
					c-20.79-8.13-32.95-18.45-36.5-30.94c-3.55-12.5,1.99-25.02,16.59-37.57c15.7-13.49,35.32-21.62,58.87-24.37
					C595.8,363.02,618.35,365.86,639.88,374.28z"/>
			</g>
		</g>
		<g class="st1">
			<g>
				<path d="M774.85,457.55l-0.05,16.3c0-1.2-0.11-2.39-0.34-3.56c-1.81-9.26-10.23-16.84-25.28-22.73
					c-14.79-5.79-30.39-7.37-46.77-4.76c-16.4,2.62-30.45,8.95-42.16,19.02c-10.18,8.75-15.28,17.3-15.3,25.66l0.05-16.3
					c0.02-8.36,5.13-16.91,15.3-25.66c11.71-10.07,25.76-16.4,42.16-19.02c16.39-2.61,31.99-1.03,46.77,4.76
					c15.04,5.89,23.47,13.46,25.28,22.73C774.74,455.16,774.85,456.35,774.85,457.55z"/>
			</g>
			<g>
				<path d="M797.58,459.62l-0.05,16.3c-0.03,10.34-6.02,20.64-17.99,30.93c-15.82,13.6-34.67,21.92-56.55,24.96
					c-21.89,3.04-43.38,0.43-64.47-7.82c-20.6-8.06-32.56-18.44-35.87-31.13c-0.62-2.37-0.92-4.74-0.92-7.11l0.05-16.3
					c-0.01,2.37,0.3,4.74,0.92,7.11c3.32,12.69,15.27,23.06,35.87,31.13c21.09,8.25,42.58,10.87,64.47,7.82
					c21.88-3.04,40.73-11.35,56.55-24.96C791.55,480.26,797.55,469.96,797.58,459.62z"/>
			</g>
			<g>
				<path d="M796.72,452.76c3.19,12.64-2.52,25.23-17.13,37.79c-15.82,13.6-34.67,21.92-56.55,24.96
					c-21.89,3.04-43.38,0.43-64.47-7.82c-20.6-8.06-32.56-18.44-35.87-31.13c-3.31-12.69,2.33-25.31,16.94-37.87
					c15.74-13.53,34.6-21.82,56.6-24.87c21.98-3.05,43.81-0.34,65.47,8.14C781.85,429.84,793.53,440.11,796.72,452.76z
					 M716.46,503.52c15.66-2.4,29.61-8.87,41.86-19.41c12.59-10.83,17.98-20.87,16.19-30.13c-1.81-9.26-10.23-16.84-25.28-22.73
					c-14.79-5.79-30.39-7.37-46.77-4.76c-16.4,2.62-30.45,8.95-42.16,19.02c-11.8,10.14-16.77,20.01-14.93,29.64
					c1.84,9.62,9.97,17.25,24.39,22.9C685.24,504.11,700.81,505.93,716.46,503.52"/>
			</g>
		</g>
		<g class="st1">
			<g>
				<polygon points="858.23,480.93 858.19,497.23 857.63,497.01 857.67,480.71 				"/>
			</g>
			<g>
				<path d="M857.67,480.71l-0.05,16.3c-1.68,2.07-5.99,6.08-12.91,12.03l0.05-16.3C851.69,486.79,856,482.78,857.67,480.71z"/>
			</g>
			<g>
				<polygon points="776.2,551.67 776.16,567.97 757.62,560.72 757.67,544.42 				"/>
			</g>
			<g>
				<polygon points="844.76,492.74 844.72,509.04 776.16,567.97 776.2,551.67 				"/>
			</g>
			<g>
				<polygon points="878.68,469.79 878.64,486.09 875.07,577.94 875.12,561.63 				"/>
			</g>
			<g>
				<path d="M875.12,561.63l-0.05,16.3c-0.16,4.35-0.4,7.06-0.75,8.14l0.05-16.3C874.72,568.7,874.96,565.98,875.12,561.63z"/>
			</g>
			<g>
				<polygon points="973.62,506.94 973.58,523.25 876.06,607.07 876.1,590.77 				"/>
			</g>
			<g>
				<path d="M973.62,506.94l-97.52,83.82l-22.19-8.68l2.92-93.75c0.09-2.64,0.55-5.11,1.4-7.41l-0.56-0.22
					c-1.68,2.07-5.99,6.08-12.91,12.03l-68.56,58.93l-18.54-7.25l97.52-83.82l23.5,9.2l-3.57,91.85c-0.16,4.35-0.4,7.06-0.75,8.14
					c2.53-2.48,6.95-6.68,13.67-12.45l67.05-57.64L973.62,506.94z"/>
			</g>
			<g>
				<polygon points="876.1,590.77 876.06,607.07 853.87,598.39 853.91,582.08 				"/>
			</g>
		</g>
		<g class="st1">
			<g>
				<polygon points="1026.83,541.79 1026.78,558.09 985.12,541.79 985.17,525.48 				"/>
			</g>
			<g>
				<polygon points="1087.51,565.53 1087.46,581.84 1045.61,565.46 1045.65,549.15 				"/>
			</g>
			<g>
				<polygon points="1098.71,555.9 1098.67,572.2 1087.46,581.84 1087.51,565.53 				"/>
			</g>
			<g>
				<polygon points="1141.48,588.23 1141.44,604.54 1140.97,604.36 1141.02,588.05 				"/>
			</g>
			<g>
				<path d="M1141.02,588.05l-0.05,16.3c-3.63,2.25-6.67,3.9-9.14,4.92l0.05-16.3C1134.35,591.95,1137.39,590.31,1141.02,588.05z"/>
			</g>
			<g>
				<polygon points="1131.88,592.98 1131.83,609.28 1069.57,635.63 1069.62,619.33 				"/>
			</g>
			<g>
				<polygon points="1098.71,555.9 1087.51,565.53 1045.65,549.15 959.34,623.34 940.52,615.98 1026.83,541.79 985.17,525.48 
					996.38,515.85 				"/>
			</g>
			<g>
				<polygon points="959.34,623.34 959.29,639.65 940.47,632.28 940.52,615.98 				"/>
			</g>
			<g>
				<polygon points="1045.65,549.15 1045.61,565.46 959.29,639.65 959.34,623.34 				"/>
			</g>
			<g>
				<polygon points="1052.7,626.49 1052.65,642.79 1012.01,660.28 1012.05,643.97 				"/>
			</g>
			<g>
				<polygon points="1012.05,643.97 1012.01,660.28 991.31,652.18 991.36,635.87 				"/>
			</g>
			<g>
				<polygon points="1113.09,650.12 1113.04,666.43 1052.65,642.79 1052.7,626.49 				"/>
			</g>
			<g>
				<path d="M1164.16,581.51l-42.28,105.44l-20.69-8.1l11.9-28.73l-60.39-23.63l-40.64,17.48l-20.7-8.1l152.77-62.2L1164.16,581.51z
					 M1069.62,619.33l48.69,19.05l18.63-43.43c0.61-1.38,2.13-3.63,4.55-6.72l-0.46-0.18c-3.63,2.25-6.67,3.9-9.14,4.92
					L1069.62,619.33"/>
			</g>
			<g>
				<polygon points="1164.16,581.51 1164.12,597.82 1121.83,703.26 1121.88,686.95 				"/>
			</g>
			<g>
				<polygon points="1121.88,686.95 1121.83,703.26 1101.15,695.16 1101.19,678.86 				"/>
			</g>
		</g>
		<g class="st1">
			<g>
				<polygon points="1334.57,651.12 1334.53,667.42 1321.37,678.73 1321.42,662.43 				"/>
			</g>
			<g>
				<path d="M1183.76,697.56l0.05-16.3c0.02-7.89,4.78-15.92,14.29-24.09c12.3-10.57,27.15-16.98,44.57-19.22
					c17.41-2.24,34.2-0.2,50.37,6.13c12.42,4.86,21.89,10.98,28.39,18.35l-0.05,16.3c-6.5-7.37-15.97-13.49-28.39-18.35
					c-16.16-6.33-32.96-8.37-50.37-6.13c-17.41,2.24-32.27,8.65-44.57,19.22C1188.55,681.64,1183.78,689.67,1183.76,697.56z"/>
			</g>
			<g>
				<polygon points="1255.5,719.09 1255.45,735.39 1243.37,745.78 1243.41,729.48 				"/>
			</g>
			<g>
				<path d="M1160,696.6l0.05-16.3c-0.01,2.47,0.34,4.93,1.04,7.39c3.55,12.49,15.71,22.8,36.5,30.94
					c16.1,6.3,31.38,9.92,45.83,10.85l-0.05,16.3c-14.45-0.93-29.73-4.55-45.83-10.85c-20.79-8.13-32.95-18.45-36.5-30.94
					C1160.34,701.53,1160,699.07,1160,696.6z"/>
			</g>
			<g>
				<path d="M1304.18,634.26c13.86,5.42,23.99,11.05,30.4,16.86l-13.16,11.31c-6.5-7.37-15.97-13.49-28.39-18.35
					c-16.16-6.33-32.96-8.37-50.37-6.13c-17.41,2.24-32.27,8.65-44.57,19.22c-11.67,10.03-16.19,19.85-13.57,29.46
					c2.63,9.61,11.62,17.42,26.97,23.43c14.35,5.62,29.02,8.62,44,9.03l-12.09,10.39c-14.45-0.93-29.73-4.55-45.83-10.85
					c-20.79-8.13-32.95-18.45-36.5-30.94c-3.54-12.49,1.99-25.02,16.59-37.57c15.7-13.49,35.32-21.62,58.87-24.37
					C1260.1,623,1282.65,625.83,1304.18,634.26z"/>
			</g>
		</g>
		<g class="st1">
			<g>
				<polygon points="1381.69,680.66 1381.64,696.97 1339.97,680.66 1340.02,664.36 				"/>
			</g>
			<g>
				<polygon points="1442.35,704.41 1442.31,720.71 1400.46,704.33 1400.51,688.03 				"/>
			</g>
			<g>
				<polygon points="1453.56,694.77 1453.52,711.08 1442.31,720.71 1442.35,704.41 				"/>
			</g>
			<g>
				<polygon points="1314.2,762.22 1314.15,778.52 1295.33,771.16 1295.38,754.85 				"/>
			</g>
			<g>
				<polygon points="1400.51,688.03 1400.46,704.33 1314.15,778.52 1314.2,762.22 				"/>
			</g>
			<g>
				<polygon points="1453.56,694.77 1442.35,704.41 1400.51,688.03 1314.2,762.22 1295.38,754.85 1381.69,680.66 1340.02,664.36 
					1351.23,654.72 				"/>
			</g>
		</g>
	</g>
</g>
<rect x="637.81" y="291.87" class="st2" width="677" height="378.63"/>
<g>
	<g class="st1">
		<g>
			<polygon points="1030.13,704.67 1030.13,705.48 1027.98,707.43 1027.98,706.63 			"/>
		</g>
		<g>
			<polygon points="1027.98,706.63 1027.98,707.43 1016.78,703.15 1016.79,702.34 			"/>
		</g>
		<g>
			<polygon points="1016.79,702.34 1016.78,703.15 1010.51,708.85 1010.51,708.04 			"/>
		</g>
		<g>
			<polygon points="1020.88,712.02 1020.88,712.82 1018.75,714.76 1018.75,713.95 			"/>
		</g>
		<g>
			<polygon points="1018.75,713.95 1018.75,714.76 1008.39,710.79 1008.39,709.98 			"/>
		</g>
		<g>
			<polygon points="1008.39,709.98 1008.39,710.79 1000.19,718.24 1000.19,717.43 			"/>
		</g>
		<g>
			<polygon points="1000.19,717.43 1000.19,718.24 996.45,716.81 996.45,716 			"/>
		</g>
		<g>
			<polygon points="1030.13,704.67 1027.98,706.63 1016.79,702.34 1010.51,708.04 1020.88,712.02 1018.75,713.95 1008.39,709.98 
				1000.19,717.43 996.45,716 1015.2,698.95 			"/>
		</g>
	</g>
	<g class="st1">
		<g class="st1">
			<defs>
				<path id="SVGID_1_" class="st1" d="M1039.04,718.78l0,0.81c0-0.15-0.02-0.29-0.05-0.44c-0.21-0.93-1.11-1.71-2.69-2.31
					c-1.47-0.56-3.08-0.72-4.84-0.5c-1.77,0.23-3.36,0.81-4.76,1.73l0-0.81c1.4-0.92,2.99-1.5,4.76-1.73
					c1.76-0.23,3.38-0.06,4.84,0.5c1.58,0.61,2.48,1.38,2.69,2.31C1039.02,718.49,1039.04,718.63,1039.04,718.78z"/>
			</defs>
			<clipPath id="SVGID_2_">
				<use xlink:href="#SVGID_1_"  style="overflow:visible;"/>
			</clipPath>
			<g class="st3">
				<path d="M1039.04,718.78l0,0.81c0-0.15-0.02-0.29-0.05-0.44c-0.21-0.92-1.09-1.69-2.64-2.3l0-0.81c1.55,0.6,2.44,1.37,2.64,2.3
					C1039.02,718.49,1039.04,718.63,1039.04,718.78"/>
				<path d="M1036.35,716.05l0,0.81c-0.02-0.01-0.03-0.01-0.05-0.02c-0.26-0.1-0.52-0.18-0.78-0.26l0-0.81
					c0.27,0.07,0.53,0.16,0.78,0.26C1036.32,716.04,1036.33,716.04,1036.35,716.05"/>
				<path d="M1035.52,715.77l0,0.81c-0.22-0.06-0.43-0.11-0.66-0.16l0-0.81C1035.09,715.66,1035.31,715.71,1035.52,715.77"/>
				<path d="M1034.87,715.62l0,0.81c-0.2-0.04-0.39-0.07-0.6-0.1l0-0.81C1034.47,715.54,1034.67,715.58,1034.87,715.62"/>
				<path d="M1034.27,715.52l0,0.81c-0.19-0.03-0.39-0.04-0.58-0.06l0-0.81C1033.88,715.47,1034.08,715.49,1034.27,715.52"/>
				<path d="M1033.69,715.46l0,0.81c-0.2-0.01-0.41-0.02-0.61-0.02l0-0.81C1033.28,715.44,1033.48,715.44,1033.69,715.46"/>
				<path d="M1033.07,715.43l0,0.81c-0.23,0-0.45,0-0.69,0.01l0-0.81C1032.62,715.44,1032.85,715.43,1033.07,715.43"/>
				<path d="M1032.39,715.45l0,0.81c-0.28,0.01-0.55,0.04-0.84,0.07l0-0.81C1031.83,715.49,1032.11,715.46,1032.39,715.45"/>
				<path d="M1031.55,715.52l0,0.81c-0.03,0-0.06,0.01-0.09,0.01c-0.33,0.04-0.66,0.1-0.99,0.17l0-0.81
					c0.32-0.07,0.65-0.12,0.99-0.17C1031.49,715.53,1031.52,715.52,1031.55,715.52"/>
				<path d="M1030.47,715.7l0,0.81c-1.38,0.29-2.64,0.81-3.77,1.56l0-0.81C1027.84,716.51,1029.1,715.99,1030.47,715.7"/>
			</g>
		</g>
		<g class="st1">
			<defs>
				<path id="SVGID_3_" class="st1" d="M1023.18,722.75l0-0.81c0-0.93,0.54-1.92,1.62-2.95l0,0.81
					C1023.72,720.84,1023.19,721.82,1023.18,722.75z"/>
			</defs>
			<clipPath id="SVGID_4_">
				<use xlink:href="#SVGID_3_"  style="overflow:visible;"/>
			</clipPath>
			<g class="st4">
				<path d="M1024.8,718.99l0,0.81c-0.27,0.26-0.5,0.51-0.7,0.76l0-0.81C1024.3,719.5,1024.54,719.25,1024.8,718.99"/>
				<path d="M1024.1,719.75l0,0.81c-0.19,0.23-0.34,0.46-0.47,0.69l0-0.81C1023.76,720.22,1023.92,719.99,1024.1,719.75"/>
				<path d="M1023.63,720.44l0,0.81c-0.1,0.18-0.19,0.36-0.26,0.54l0-0.81C1023.44,720.81,1023.52,720.63,1023.63,720.44"/>
				<path d="M1023.37,720.98l0,0.81c-0.06,0.16-0.1,0.31-0.14,0.47l0-0.81C1023.27,721.3,1023.31,721.14,1023.37,720.98"/>
				<path d="M1023.24,721.45l0,0.81c-0.03,0.15-0.05,0.29-0.05,0.43l0-0.81C1023.19,721.74,1023.21,721.6,1023.24,721.45"/>
				<path d="M1023.19,721.88l0,0.81c0,0.02,0,0.04,0,0.06l0-0.81C1023.19,721.93,1023.19,721.9,1023.19,721.88"/>
			</g>
		</g>
		<g class="st1">
			<defs>
				<path id="SVGID_5_" class="st1" d="M1043.02,719.08l0,0.81c0,1.38-0.85,2.83-2.54,4.37l0-0.81
					C1042.17,721.91,1043.02,720.46,1043.02,719.08z"/>
			</defs>
			<clipPath id="SVGID_6_">
				<use xlink:href="#SVGID_5_"  style="overflow:visible;"/>
			</clipPath>
			<g class="st5">
				<path d="M1043.02,719.08l0,0.81c0,0.03,0,0.06,0,0.09l0-0.81C1043.02,719.14,1043.02,719.11,1043.02,719.08"/>
				<path d="M1043.02,719.17l0,0.81c-0.01,0.2-0.03,0.4-0.07,0.6l0-0.81C1042.99,719.56,1043.01,719.37,1043.02,719.17"/>
				<path d="M1042.95,719.77l0,0.81c-0.04,0.21-0.1,0.43-0.19,0.64l0-0.81C1042.84,720.19,1042.91,719.98,1042.95,719.77"/>
				<path d="M1042.76,720.41l0,0.81c-0.09,0.25-0.21,0.49-0.35,0.74l0-0.81C1042.55,720.9,1042.67,720.66,1042.76,720.41"/>
				<path d="M1042.41,721.15l0,0.81c-0.18,0.31-0.39,0.63-0.65,0.95l0-0.81C1042.02,721.78,1042.23,721.47,1042.41,721.15"/>
				<path d="M1041.76,722.1l0,0.81c-0.35,0.44-0.78,0.89-1.28,1.35l0-0.81C1040.98,722.99,1041.41,722.54,1041.76,722.1"/>
			</g>
		</g>
		<g>
			<polygon points="1039.28,724.54 1039.28,725.35 1024.8,719.8 1024.8,718.99 			"/>
		</g>
		<g>
			<polygon points="1040.48,723.45 1040.47,724.26 1039.28,725.35 1039.28,724.54 			"/>
		</g>
		<g>
			<polygon points="1034.77,726.74 1034.77,727.54 1032.64,729.47 1032.65,728.67 			"/>
		</g>
		<g class="st1">
			<defs>
				<path id="SVGID_7_" class="st1" d="M1018.87,722.55l0-0.81c0,0.31,0.04,0.62,0.12,0.92c0.45,1.76,2.17,3.21,5.17,4.36
					c3,1.15,5.83,1.7,8.49,1.64l0,0.81c-2.65,0.06-5.49-0.49-8.49-1.64c-3-1.15-4.72-2.6-5.17-4.36
					C1018.91,723.17,1018.87,722.86,1018.87,722.55z"/>
			</defs>
			<clipPath id="SVGID_8_">
				<use xlink:href="#SVGID_7_"  style="overflow:visible;"/>
			</clipPath>
			<g class="st6">
				<path d="M1032.65,728.67l0,0.81c-0.19,0-0.38,0.01-0.57,0l0-0.81C1032.26,728.67,1032.46,728.67,1032.65,728.67"/>
				<path d="M1032.07,728.67l0,0.81c-0.36,0-0.73-0.02-1.09-0.04l0-0.81C1031.35,728.65,1031.71,728.67,1032.07,728.67"/>
				<path d="M1030.98,728.63l0,0.81c-0.39-0.03-0.78-0.07-1.18-0.12l0-0.81C1030.19,728.56,1030.59,728.6,1030.98,728.63"/>
				<path d="M1029.8,728.51l0,0.81c-0.45-0.06-0.91-0.14-1.37-0.23l0-0.81C1028.88,728.37,1029.34,728.45,1029.8,728.51"/>
				<path d="M1028.42,728.28l0,0.81c-0.58-0.11-1.16-0.25-1.75-0.42l0-0.81C1027.26,728.02,1027.85,728.16,1028.42,728.28"/>
				<path d="M1026.67,727.86l0,0.81c-0.82-0.23-1.66-0.51-2.51-0.83c-0.03-0.01-0.06-0.02-0.09-0.03l0-0.81
					c0.03,0.01,0.06,0.02,0.09,0.03C1025.01,727.35,1025.85,727.63,1026.67,727.86"/>
				<path d="M1024.07,726.99l0,0.81c-2.95-1.14-4.64-2.59-5.08-4.33c-0.08-0.3-0.12-0.61-0.12-0.92l0-0.81
					c0,0.31,0.04,0.62,0.12,0.92C1019.44,724.41,1021.13,725.85,1024.07,726.99"/>
			</g>
		</g>
		<g>
			<path d="M1040.48,723.45l-1.2,1.09l-14.48-5.55c-1.37,1.32-1.87,2.56-1.5,3.71s1.58,2.12,3.64,2.9c2.32,0.89,4.93,1.27,7.83,1.13
				l-2.12,1.93c-2.65,0.06-5.49-0.49-8.49-1.64c-3-1.15-4.72-2.6-5.17-4.36c-0.45-1.76,0.42-3.63,2.6-5.6
				c2.05-1.87,4.65-3.05,7.83-3.56c3.17-0.51,6.12-0.23,8.85,0.81c2.71,1.04,4.26,2.36,4.65,3.96
				C1043.32,719.89,1042.5,721.61,1040.48,723.45z M1026.7,717.26l10.81,4.14c1.19-1.1,1.69-2.13,1.48-3.06
				c-0.21-0.93-1.11-1.71-2.69-2.31c-1.47-0.56-3.08-0.72-4.84-0.5C1029.69,715.76,1028.1,716.34,1026.7,717.26"/>
		</g>
	</g>
	<g class="st1">
		<g class="st1">
			<defs>
				<path id="SVGID_9_" class="st1" d="M1059.49,726.25l0,0.81c0-0.89-0.78-1.64-2.35-2.24c-2.48-0.95-5.29-1.32-8.41-1.12l0-0.81
					c3.12-0.2,5.93,0.17,8.41,1.12C1058.71,724.61,1059.49,725.36,1059.49,726.25z"/>
			</defs>
			<clipPath id="SVGID_10_">
				<use xlink:href="#SVGID_9_"  style="overflow:visible;"/>
			</clipPath>
			<g class="st7">
				<path d="M1059.49,726.25l0,0.81c0-0.88-0.77-1.63-2.31-2.22l0-0.81C1058.72,724.63,1059.49,725.37,1059.49,726.25"/>
				<path d="M1057.18,724.03l0,0.81c-0.01-0.01-0.03-0.01-0.04-0.02c-0.48-0.19-0.98-0.35-1.49-0.49l0-0.81
					c0.51,0.14,1.01,0.31,1.49,0.49C1057.15,724.02,1057.17,724.02,1057.18,724.03"/>
				<path d="M1055.65,723.52l0,0.81c-0.42-0.12-0.85-0.22-1.29-0.31l0-0.81C1054.79,723.3,1055.22,723.4,1055.65,723.52"/>
				<path d="M1054.35,723.21l0,0.81c-0.4-0.08-0.8-0.15-1.22-0.2l0-0.81C1053.55,723.07,1053.96,723.13,1054.35,723.21"/>
				<path d="M1053.14,723.01l0,0.81c-0.4-0.05-0.81-0.09-1.23-0.12l0-0.81C1052.33,722.92,1052.73,722.96,1053.14,723.01"/>
				<path d="M1051.91,722.89l0,0.81c-0.43-0.03-0.87-0.05-1.32-0.05l0-0.81C1051.03,722.84,1051.48,722.86,1051.91,722.89"/>
				<path d="M1050.59,722.84l0,0.81c-0.5-0.01-1.01,0.01-1.52,0.03l0-0.81C1049.58,722.84,1050.09,722.83,1050.59,722.84"/>
				<path d="M1049.06,722.87l0,0.81c-0.11,0.01-0.22,0.01-0.34,0.02l0-0.81C1048.84,722.88,1048.95,722.87,1049.06,722.87"/>
			</g>
		</g>
		<g class="st1">
			<defs>
				<path id="SVGID_11_" class="st1" d="M1063.84,726.44l0,0.81c0,1.05-0.69,2.2-2.06,3.45l0-0.81
					C1063.15,728.65,1063.84,727.5,1063.84,726.44z"/>
			</defs>
			<clipPath id="SVGID_12_">
				<use xlink:href="#SVGID_11_"  style="overflow:visible;"/>
			</clipPath>
			<g class="st8">
				<path d="M1063.84,726.44l0,0.81c0,0.02,0,0.04,0,0.06l0-0.81C1063.84,726.49,1063.84,726.46,1063.84,726.44"/>
				<path d="M1063.84,726.51l0,0.81c0,0.15-0.02,0.29-0.05,0.44l0-0.81C1063.82,726.8,1063.84,726.65,1063.84,726.51"/>
				<path d="M1063.79,726.95l0,0.81c-0.03,0.16-0.08,0.32-0.14,0.49l0-0.81C1063.71,727.27,1063.76,727.11,1063.79,726.95"/>
				<path d="M1063.65,727.44l0,0.81c-0.07,0.19-0.16,0.38-0.28,0.58l0-0.81C1063.49,727.82,1063.58,727.63,1063.65,727.44"/>
				<path d="M1063.37,728.02l0,0.81c-0.14,0.25-0.32,0.5-0.53,0.76l0-0.81C1063.06,728.52,1063.23,728.27,1063.37,728.02"/>
				<path d="M1062.85,728.78l0,0.81c-0.29,0.36-0.65,0.73-1.06,1.11l0-0.81C1062.2,729.51,1062.56,729.14,1062.85,728.78"/>
			</g>
		</g>
		<g>
			<polygon points="1056.26,730.23 1056.26,731.04 1050.99,729.57 1050.99,728.76 			"/>
		</g>
		<g class="st1">
			<defs>
				<path id="SVGID_13_" class="st1" d="M1043.35,731.37l0-0.81c0-0.42,0.22-0.83,0.65-1.22c0.73-0.66,1.62-1.05,2.66-1.17
					c1.04-0.12,2.48,0.08,4.33,0.6l0,0.81c-1.85-0.52-3.29-0.72-4.33-0.6c-1.05,0.12-1.94,0.51-2.66,1.17
					C1043.57,730.54,1043.35,730.95,1043.35,731.37z"/>
			</defs>
			<clipPath id="SVGID_14_">
				<use xlink:href="#SVGID_13_"  style="overflow:visible;"/>
			</clipPath>
			<g class="st9">
				<path d="M1050.99,728.76l0,0.81c-0.02-0.01-0.04-0.01-0.06-0.02l0-0.81C1050.95,728.75,1050.97,728.76,1050.99,728.76"/>
				<path d="M1050.93,728.74l0,0.81c-0.56-0.16-1.09-0.28-1.57-0.38l0-0.81C1049.85,728.46,1050.37,728.59,1050.93,728.74"/>
				<path d="M1049.36,728.36l0,0.81c-0.32-0.06-0.62-0.11-0.91-0.15l0-0.81C1048.74,728.25,1049.04,728.3,1049.36,728.36"/>
				<path d="M1048.45,728.21l0,0.81c-0.21-0.03-0.42-0.05-0.62-0.06l0-0.81C1048.03,728.16,1048.24,728.19,1048.45,728.21"/>
				<path d="M1047.84,728.15l0,0.81c-0.16-0.01-0.32-0.02-0.47-0.02l0-0.81C1047.52,728.13,1047.68,728.14,1047.84,728.15"/>
				<path d="M1047.37,728.13l0,0.81c-0.13,0-0.26,0-0.38,0.01l0-0.81C1047.11,728.13,1047.24,728.13,1047.37,728.13"/>
				<path d="M1046.99,728.14l0,0.81c-0.11,0.01-0.22,0.01-0.32,0.03c-0.01,0-0.02,0-0.03,0l0-0.81c0.01,0,0.02,0,0.03,0
					C1046.77,728.15,1046.87,728.14,1046.99,728.14"/>
				<path d="M1046.64,728.17l0,0.81c-0.17,0.02-0.33,0.05-0.49,0.08l0-0.81C1046.31,728.22,1046.47,728.19,1046.64,728.17"/>
				<path d="M1046.15,728.25l0,0.81c-0.81,0.17-1.52,0.52-2.12,1.06l0-0.81C1044.63,728.77,1045.34,728.42,1046.15,728.25"/>
				<path d="M1044.03,729.31l0,0.81c-0.01,0.01-0.02,0.02-0.03,0.03c-0.11,0.1-0.21,0.21-0.3,0.31l0-0.81
					c0.08-0.1,0.18-0.21,0.3-0.31C1044.01,729.33,1044.02,729.32,1044.03,729.31"/>
				<path d="M1043.71,729.65l0,0.81c-0.07,0.08-0.12,0.17-0.17,0.25l0-0.81C1043.58,729.82,1043.64,729.73,1043.71,729.65"/>
				<path d="M1043.53,729.9l0,0.81c-0.04,0.07-0.08,0.14-0.1,0.22l0-0.81C1043.46,730.04,1043.49,729.97,1043.53,729.9"/>
				<path d="M1043.43,730.12l0,0.81c-0.03,0.07-0.05,0.14-0.06,0.2l0-0.81C1043.39,730.25,1043.4,730.19,1043.43,730.12"/>
				<path d="M1043.37,730.32l0,0.81c-0.01,0.07-0.02,0.14-0.02,0.21l0-0.81C1043.35,730.46,1043.36,730.39,1043.37,730.32"/>
				<path d="M1043.35,730.53l0,0.81c0,0.01,0,0.02,0,0.03l0-0.81C1043.35,730.55,1043.35,730.54,1043.35,730.53"/>
			</g>
		</g>
		<g>
			<polygon points="1051.61,734.46 1051.61,735.27 1051.52,735.23 1051.52,734.42 			"/>
		</g>
		<g class="st1">
			<defs>
				<path id="SVGID_15_" class="st1" d="M1038.85,731.22l0-0.81c0,0.32,0.07,0.64,0.21,0.96c0.47,1.09,1.72,2.03,3.73,2.79
					c2.8,1.07,5.71,1.16,8.73,0.26l0,0.81c-3.02,0.9-5.94,0.81-8.73-0.26c-2-0.77-3.25-1.7-3.73-2.79
					C1038.92,731.86,1038.85,731.54,1038.85,731.22z"/>
			</defs>
			<clipPath id="SVGID_16_">
				<use xlink:href="#SVGID_15_"  style="overflow:visible;"/>
			</clipPath>
			<g class="st10">
				<path d="M1051.52,734.42l0,0.81c-0.4,0.12-0.79,0.22-1.18,0.3l0-0.81C1050.73,734.64,1051.13,734.54,1051.52,734.42"/>
				<path d="M1050.34,734.73l0,0.81c-0.42,0.09-0.84,0.16-1.26,0.21l0-0.81C1049.5,734.89,1049.92,734.82,1050.34,734.73"/>
				<path d="M1049.08,734.94l0,0.81c-0.32,0.04-0.63,0.07-0.94,0.08l0-0.81C1048.45,735,1048.76,734.98,1049.08,734.94"/>
				<path d="M1048.13,735.02l0,0.81c-0.27,0.01-0.55,0.02-0.82,0.02l0-0.81C1047.59,735.04,1047.86,735.03,1048.13,735.02"/>
				<path d="M1047.32,735.04l0,0.81c-0.26,0-0.51-0.01-0.77-0.03l0-0.81C1046.8,735.02,1047.06,735.03,1047.32,735.04"/>
				<path d="M1046.55,735.01l0,0.81c-0.26-0.02-0.51-0.04-0.77-0.08l0-0.81C1046.03,734.96,1046.29,734.99,1046.55,735.01"/>
				<path d="M1045.78,734.93l0,0.81c-0.28-0.04-0.55-0.08-0.82-0.14l0-0.81C1045.23,734.85,1045.5,734.89,1045.78,734.93"/>
				<path d="M1044.96,734.79l0,0.81c-0.32-0.06-0.64-0.14-0.95-0.23l0-0.81C1044.32,734.65,1044.64,734.73,1044.96,734.79"/>
				<path d="M1044,734.57l0,0.81c-0.41-0.11-0.81-0.25-1.22-0.4c-0.02-0.01-0.05-0.02-0.07-0.03l0-0.81
					c0.02,0.01,0.05,0.02,0.07,0.03C1043.19,734.32,1043.6,734.45,1044,734.57"/>
				<path d="M1042.72,734.14l0,0.81c-1.96-0.76-3.19-1.69-3.66-2.77c-0.14-0.32-0.21-0.64-0.21-0.96l0-0.81
					c0,0.32,0.07,0.64,0.21,0.96C1039.53,732.45,1040.76,733.38,1042.72,734.14"/>
			</g>
		</g>
		<g>
			<polygon points="1061.78,729.89 1061.78,730.7 1053.17,738.54 1053.17,737.73 			"/>
		</g>
		<g>
			<path d="M1059.39,722.4c4.99,1.91,5.79,4.4,2.4,7.49l-8.61,7.84l-3.63-1.39l2.07-1.88l-0.09-0.03c-3.02,0.9-5.94,0.81-8.73-0.26
				c-2-0.77-3.25-1.7-3.73-2.79c-0.49-1.09-0.14-2.18,1.06-3.27c2.5-2.28,6.25-2.73,11.24-1.34l6.69,1.84
				c2.19-1.99,1.88-3.52-0.91-4.59c-2.48-0.95-5.29-1.32-8.41-1.12l2.29-2.08C1053.9,720.84,1056.69,721.37,1059.39,722.4z
				 M1054.97,731.4l1.29-1.17l-5.27-1.47c-1.85-0.52-3.29-0.72-4.33-0.6c-1.05,0.12-1.94,0.51-2.66,1.17
				c-0.64,0.58-0.81,1.19-0.51,1.82c0.29,0.64,1.01,1.17,2.16,1.61c1.59,0.61,3.27,0.79,5.03,0.52
				C1052.44,733.03,1053.88,732.4,1054.97,731.4"/>
		</g>
		<g>
			<polygon points="1053.17,737.73 1053.17,738.54 1049.54,737.15 1049.54,736.34 			"/>
		</g>
	</g>
	<g class="st1">
		<g>
			<polygon points="1076.3,729.29 1076.3,730.09 1073.58,732.57 1073.58,731.76 			"/>
		</g>
		<g>
			<polygon points="1083.78,732.09 1083.78,732.9 1081.38,735.07 1081.38,734.27 			"/>
		</g>
		<g class="st1">
			<defs>
				<path id="SVGID_17_" class="st1" d="M1081.38,734.27l0,0.81c-0.33-0.49-1.03-0.94-2.1-1.35c-1.43-0.55-3.03-0.6-4.81-0.17
					c-1.78,0.43-3.37,1.28-4.78,2.56l0-0.81c1.4-1.28,3-2.13,4.78-2.56c1.78-0.43,3.38-0.37,4.81,0.17
					C1080.35,733.33,1081.05,733.78,1081.38,734.27z"/>
			</defs>
			<clipPath id="SVGID_18_">
				<use xlink:href="#SVGID_17_"  style="overflow:visible;"/>
			</clipPath>
			<g class="st11">
				<path d="M1081.38,734.27l0,0.81c-0.33-0.48-1.01-0.92-2.06-1.33l0-0.81C1080.38,733.34,1081.06,733.79,1081.38,734.27"/>
				<path d="M1079.33,732.94l0,0.81c-0.02-0.01-0.03-0.01-0.05-0.02c-0.2-0.08-0.4-0.14-0.61-0.2l0-0.81
					c0.21,0.06,0.41,0.12,0.61,0.2C1079.3,732.92,1079.31,732.93,1079.33,732.94"/>
				<path d="M1078.68,732.72l0,0.81c-0.17-0.05-0.33-0.09-0.5-0.12l0-0.81C1078.34,732.63,1078.51,732.67,1078.68,732.72"/>
				<path d="M1078.17,732.6l0,0.81c-0.15-0.03-0.3-0.05-0.46-0.08l0-0.81C1077.87,732.54,1078.02,732.57,1078.17,732.6"/>
				<path d="M1077.72,732.52l0,0.81c-0.15-0.02-0.3-0.03-0.45-0.04l0-0.81C1077.42,732.49,1077.57,732.5,1077.72,732.52"/>
				<path d="M1077.27,732.48l0,0.81c-0.15-0.01-0.31-0.02-0.46-0.02l0-0.81C1076.96,732.46,1077.12,732.47,1077.27,732.48"/>
				<path d="M1076.81,732.46l0,0.81c-0.17,0-0.34,0-0.52,0.01l0-0.81C1076.46,732.46,1076.64,732.46,1076.81,732.46"/>
				<path d="M1076.29,732.47l0,0.81c-0.21,0.01-0.42,0.03-0.63,0.05l0-0.81C1075.87,732.5,1076.08,732.48,1076.29,732.47"/>
				<path d="M1075.66,732.53l0,0.81c-0.29,0.04-0.59,0.09-0.89,0.15l0-0.81C1075.07,732.61,1075.37,732.56,1075.66,732.53"/>
				<path d="M1074.77,732.68l0,0.81c-0.1,0.02-0.2,0.04-0.3,0.07c-1.74,0.42-3.31,1.25-4.69,2.48l0-0.81
					c1.38-1.24,2.95-2.07,4.69-2.48C1074.57,732.72,1074.67,732.7,1074.77,732.68"/>
				<path d="M1069.78,735.23l0,0.81c-0.03,0.02-0.05,0.05-0.08,0.07l0-0.81C1069.72,735.28,1069.75,735.25,1069.78,735.23"/>
			</g>
		</g>
		<g>
			<polygon points="1062.92,741.46 1062.92,742.27 1059.25,740.87 1059.25,740.06 			"/>
		</g>
		<g>
			<polygon points="1069.69,735.3 1069.69,736.11 1062.92,742.27 1062.92,741.46 			"/>
		</g>
		<g>
			<path d="M1082.03,731.19c0.83,0.32,1.41,0.62,1.75,0.9l-2.4,2.18c-0.33-0.49-1.03-0.94-2.1-1.35c-1.43-0.55-3.03-0.6-4.81-0.17
				c-1.78,0.43-3.37,1.28-4.78,2.56l-6.78,6.16l-3.66-1.4l13.39-12.18l3.66,1.4l-2.72,2.48l0.08,0.03
				C1076.67,730.41,1079.47,730.2,1082.03,731.19z"/>
		</g>
	</g>
	<g class="st1">
		<g>
			<polygon points="1097.33,729.04 1097.33,729.85 1077.52,747.87 1077.52,747.06 			"/>
		</g>
		<g>
			<polygon points="1077.52,747.06 1077.52,747.87 1073.86,746.46 1073.86,745.66 			"/>
		</g>
		<g>
			<polygon points="1097.33,729.04 1077.52,747.06 1073.86,745.66 1093.67,727.63 			"/>
		</g>
	</g>
	<g class="st1">
		<g class="st1">
			<defs>
				<path id="SVGID_19_" class="st1" d="M1106.78,744.73l0,0.81c0-0.15-0.02-0.3-0.05-0.44c-0.21-0.93-1.11-1.71-2.69-2.31
					c-1.46-0.56-3.07-0.72-4.84-0.49c-1.78,0.23-3.36,0.81-4.77,1.73l0-0.81c1.41-0.92,2.99-1.5,4.77-1.73
					c1.76-0.23,3.38-0.06,4.84,0.49c1.58,0.61,2.48,1.38,2.69,2.31C1106.76,744.44,1106.78,744.58,1106.78,744.73z"/>
			</defs>
			<clipPath id="SVGID_20_">
				<use xlink:href="#SVGID_19_"  style="overflow:visible;"/>
			</clipPath>
			<g class="st12">
				<path d="M1106.78,744.73l0,0.81c0-0.15-0.02-0.3-0.05-0.44c-0.21-0.92-1.09-1.69-2.64-2.3l0-0.81c1.55,0.6,2.44,1.37,2.64,2.3
					C1106.76,744.44,1106.78,744.58,1106.78,744.73"/>
				<path d="M1104.08,742l0,0.81c-0.01-0.01-0.03-0.01-0.04-0.02c-0.25-0.1-0.51-0.18-0.78-0.26l0-0.81
					c0.26,0.07,0.52,0.16,0.78,0.26C1104.05,741.98,1104.07,741.99,1104.08,742"/>
				<path d="M1103.26,741.72l0,0.81c-0.21-0.06-0.43-0.11-0.65-0.16l0-0.81C1102.83,741.61,1103.05,741.66,1103.26,741.72"/>
				<path d="M1102.61,741.57l0,0.81c-0.2-0.04-0.39-0.07-0.59-0.1l0-0.81C1102.21,741.5,1102.41,741.53,1102.61,741.57"/>
				<path d="M1102.01,741.47l0,0.81c-0.19-0.03-0.39-0.04-0.58-0.06l0-0.81C1101.63,741.42,1101.82,741.44,1102.01,741.47"/>
				<path d="M1101.43,741.41l0,0.81c-0.2-0.01-0.41-0.02-0.61-0.02l0-0.81C1101.02,741.39,1101.23,741.4,1101.43,741.41"/>
				<path d="M1100.82,741.39l0,0.81c-0.23,0-0.45,0-0.69,0.01l0-0.81C1100.36,741.39,1100.59,741.38,1100.82,741.39"/>
				<path d="M1100.13,741.4l0,0.81c-0.28,0.01-0.55,0.04-0.84,0.07l0-0.81C1099.58,741.44,1099.86,741.41,1100.13,741.4"/>
				<path d="M1099.29,741.47l0,0.81c-0.03,0-0.06,0.01-0.09,0.01c-0.34,0.04-0.67,0.1-1,0.17l0-0.81c0.33-0.07,0.66-0.13,1-0.17
					C1099.23,741.48,1099.26,741.48,1099.29,741.47"/>
				<path d="M1098.2,741.66l0,0.81c-1.38,0.29-2.63,0.81-3.77,1.56l0-0.81C1095.58,742.47,1096.83,741.95,1098.2,741.66"/>
			</g>
		</g>
		<g class="st1">
			<defs>
				<path id="SVGID_21_" class="st1" d="M1090.92,748.71l0-0.81c0-0.93,0.54-1.92,1.61-2.96l0,0.81
					C1091.46,746.79,1090.92,747.78,1090.92,748.71z"/>
			</defs>
			<clipPath id="SVGID_22_">
				<use xlink:href="#SVGID_21_"  style="overflow:visible;"/>
			</clipPath>
			<g class="st13">
				<path d="M1092.53,744.94l0,0.81c-0.26,0.25-0.49,0.5-0.68,0.75l0-0.81C1092.05,745.44,1092.28,745.19,1092.53,744.94"/>
				<path d="M1091.85,745.69l0,0.81c-0.19,0.24-0.35,0.47-0.48,0.7l0-0.81C1091.5,746.16,1091.66,745.92,1091.85,745.69"/>
				<path d="M1091.37,746.39l0,0.81c-0.11,0.18-0.19,0.37-0.26,0.55l0-0.81C1091.18,746.76,1091.27,746.57,1091.37,746.39"/>
				<path d="M1091.11,746.94l0,0.81c-0.06,0.16-0.11,0.32-0.14,0.47l0-0.81C1091.01,747.25,1091.05,747.1,1091.11,746.94"/>
				<path d="M1090.97,747.41l0,0.81c-0.03,0.15-0.05,0.29-0.05,0.43l0-0.81C1090.93,747.7,1090.95,747.56,1090.97,747.41"/>
				<path d="M1090.92,747.84l0,0.81c0,0.02,0,0.04,0,0.06l0-0.81C1090.92,747.89,1090.92,747.86,1090.92,747.84"/>
			</g>
		</g>
		<g class="st1">
			<defs>
				<path id="SVGID_23_" class="st1" d="M1110.75,745.03l0,0.81c0,1.38-0.85,2.83-2.54,4.37l0-0.81
					C1109.9,747.86,1110.75,746.41,1110.75,745.03z"/>
			</defs>
			<clipPath id="SVGID_24_">
				<use xlink:href="#SVGID_23_"  style="overflow:visible;"/>
			</clipPath>
			<g class="st14">
				<path d="M1110.75,745.03l0,0.81c0,0.03,0,0.06,0,0.09l0-0.81C1110.75,745.09,1110.75,745.06,1110.75,745.03"/>
				<path d="M1110.75,745.12l0,0.81c-0.01,0.2-0.03,0.4-0.07,0.6l0-0.81C1110.72,745.51,1110.75,745.32,1110.75,745.12"/>
				<path d="M1110.68,745.71l0,0.81c-0.04,0.21-0.1,0.43-0.19,0.64l0-0.81C1110.58,746.14,1110.64,745.93,1110.68,745.71"/>
				<path d="M1110.5,746.36l0,0.81c-0.09,0.25-0.21,0.49-0.35,0.74l0-0.81C1110.29,746.85,1110.4,746.61,1110.5,746.36"/>
				<path d="M1110.14,747.1l0,0.81c-0.18,0.31-0.39,0.63-0.65,0.95l0-0.81C1109.75,747.73,1109.97,747.42,1110.14,747.1"/>
				<path d="M1109.49,748.05l0,0.81c-0.35,0.44-0.78,0.89-1.28,1.35l0-0.81C1108.71,748.94,1109.14,748.49,1109.49,748.05"/>
			</g>
		</g>
		<g>
			<polygon points="1107.01,750.49 1107.01,751.3 1092.53,745.75 1092.53,744.94 			"/>
		</g>
		<g>
			<polygon points="1108.21,749.4 1108.21,750.21 1107.01,751.3 1107.01,750.49 			"/>
		</g>
		<g>
			<polygon points="1102.5,752.69 1102.5,753.49 1100.38,755.42 1100.38,754.62 			"/>
		</g>
		<g class="st1">
			<defs>
				<path id="SVGID_25_" class="st1" d="M1086.62,748.5l0-0.81c0,0.31,0.04,0.62,0.12,0.92c0.45,1.76,2.17,3.21,5.16,4.36
					c3.01,1.15,5.83,1.7,8.49,1.64l0,0.81c-2.65,0.06-5.48-0.49-8.49-1.64c-2.99-1.15-4.71-2.6-5.16-4.36
					C1086.65,749.12,1086.62,748.81,1086.62,748.5z"/>
			</defs>
			<clipPath id="SVGID_26_">
				<use xlink:href="#SVGID_25_"  style="overflow:visible;"/>
			</clipPath>
			<g class="st15">
				<path d="M1100.38,754.62l0,0.81c-0.19,0-0.38,0.01-0.58,0l0-0.81C1100,754.62,1100.19,754.62,1100.38,754.62"/>
				<path d="M1099.8,754.62l0,0.81c-0.36,0-0.73-0.02-1.1-0.04l0-0.81C1099.08,754.6,1099.44,754.62,1099.8,754.62"/>
				<path d="M1098.71,754.58l0,0.81c-0.39-0.03-0.78-0.07-1.18-0.12l0-0.81C1097.92,754.51,1098.32,754.55,1098.71,754.58"/>
				<path d="M1097.53,754.46l0,0.81c-0.45-0.06-0.91-0.14-1.37-0.23l0-0.81C1096.62,754.32,1097.07,754.4,1097.53,754.46"/>
				<path d="M1096.16,754.23l0,0.81c-0.57-0.11-1.16-0.25-1.74-0.42l0-0.81C1095,753.98,1095.58,754.11,1096.16,754.23"/>
				<path d="M1094.41,753.81l0,0.81c-0.82-0.23-1.66-0.51-2.52-0.83c-0.03-0.01-0.06-0.02-0.09-0.03l0-0.81
					c0.03,0.01,0.06,0.02,0.09,0.03C1092.75,753.3,1093.59,753.58,1094.41,753.81"/>
				<path d="M1091.81,752.94l0,0.81c-2.94-1.14-4.63-2.58-5.07-4.33c-0.08-0.3-0.12-0.61-0.12-0.92l0-0.81
					c0,0.31,0.04,0.62,0.12,0.92C1087.18,750.36,1088.87,751.8,1091.81,752.94"/>
			</g>
		</g>
		<g>
			<path d="M1108.21,749.4l-1.2,1.09l-14.48-5.55c-1.36,1.32-1.86,2.56-1.5,3.71c0.37,1.15,1.58,2.12,3.64,2.91
				c2.32,0.89,4.92,1.27,7.82,1.13l-2.12,1.93c-2.65,0.06-5.48-0.49-8.49-1.64c-2.99-1.15-4.71-2.6-5.16-4.36
				c-0.45-1.76,0.41-3.63,2.59-5.61c2.05-1.87,4.65-3.05,7.83-3.56c3.17-0.51,6.12-0.23,8.85,0.81c2.71,1.04,4.26,2.36,4.65,3.96
				C1111.05,745.84,1110.23,747.56,1108.21,749.4z M1094.44,743.21l10.81,4.14c1.2-1.1,1.69-2.13,1.48-3.06
				c-0.21-0.93-1.11-1.71-2.69-2.31c-1.46-0.56-3.07-0.72-4.84-0.49C1097.42,741.71,1095.85,742.29,1094.44,743.21"/>
		</g>
	</g>
	<g class="st1">
		<g>
			<polygon points="1130.74,750.5 1130.74,751.31 1128.45,753.39 1128.45,752.58 			"/>
		</g>
		<g class="st1">
			<defs>
				<path id="SVGID_27_" class="st1" d="M1117.84,751.63l0-0.81c0-0.33,0.19-0.67,0.56-1c0.54-0.49,1.34-0.75,2.41-0.77
					c1.06-0.02,2.18,0.2,3.36,0.65c1.96,0.75,3.39,1.71,4.28,2.89l0,0.81c-0.9-1.18-2.33-2.14-4.28-2.89
					c-1.18-0.45-2.3-0.67-3.36-0.65c-1.07,0.02-1.87,0.28-2.41,0.77C1118.02,750.96,1117.84,751.29,1117.84,751.63z"/>
			</defs>
			<clipPath id="SVGID_28_">
				<use xlink:href="#SVGID_27_"  style="overflow:visible;"/>
			</clipPath>
			<g class="st16">
				<path d="M1128.45,752.58l0,0.81c-0.89-1.16-2.29-2.12-4.21-2.87l0-0.81C1126.16,750.46,1127.57,751.42,1128.45,752.58"/>
				<path d="M1124.24,749.72l0,0.81c-0.02-0.01-0.05-0.02-0.07-0.03c-0.33-0.13-0.66-0.23-0.98-0.32l0-0.81
					c0.32,0.09,0.65,0.2,0.98,0.32C1124.19,749.7,1124.22,749.71,1124.24,749.72"/>
				<path d="M1123.19,749.37l0,0.81c-0.23-0.06-0.46-0.12-0.69-0.17l0-0.81C1122.73,749.25,1122.96,749.3,1123.19,749.37"/>
				<path d="M1122.5,749.2l0,0.81c-0.19-0.04-0.37-0.07-0.55-0.09l0-0.81C1122.13,749.13,1122.31,749.16,1122.5,749.2"/>
				<path d="M1121.94,749.11l0,0.81c-0.16-0.02-0.32-0.04-0.48-0.05l0-0.81C1121.62,749.07,1121.78,749.09,1121.94,749.11"/>
				<path d="M1121.46,749.06l0,0.81c-0.15-0.01-0.3-0.02-0.45-0.02l0-0.81C1121.16,749.04,1121.31,749.05,1121.46,749.06"/>
				<path d="M1121.01,749.04l0,0.81c-0.07,0-0.13,0-0.2,0c-0.08,0-0.15,0-0.23,0.01l0-0.81c0.07,0,0.15-0.01,0.23-0.01
					C1120.88,749.04,1120.94,749.04,1121.01,749.04"/>
				<path d="M1120.58,749.05l0,0.81c-0.14,0.01-0.27,0.02-0.4,0.03l0-0.81C1120.31,749.07,1120.44,749.06,1120.58,749.05"/>
				<path d="M1120.18,749.09l0,0.81c-0.14,0.02-0.28,0.04-0.41,0.07l0-0.81C1119.9,749.13,1120.04,749.1,1120.18,749.09"/>
				<path d="M1119.77,749.15l0,0.81c-0.56,0.12-1.01,0.33-1.36,0.65l0-0.81C1118.76,749.49,1119.21,749.27,1119.77,749.15"/>
				<path d="M1118.41,749.8l0,0.81c-0.01,0-0.01,0.01-0.02,0.01c-0.1,0.09-0.19,0.19-0.27,0.28l0-0.81
					c0.07-0.09,0.16-0.19,0.27-0.28C1118.4,749.81,1118.41,749.8,1118.41,749.8"/>
				<path d="M1118.13,750.09l0,0.81c-0.06,0.07-0.1,0.14-0.15,0.21l0-0.81C1118.03,750.23,1118.08,750.16,1118.13,750.09"/>
				<path d="M1117.99,750.3l0,0.81c-0.03,0.06-0.06,0.12-0.08,0.18l0-0.81C1117.93,750.42,1117.95,750.36,1117.99,750.3"/>
				<path d="M1117.9,750.48l0,0.81c-0.02,0.05-0.04,0.11-0.05,0.16l0-0.81C1117.87,750.59,1117.88,750.53,1117.9,750.48"/>
				<path d="M1117.86,750.64l0,0.81c-0.01,0.05-0.02,0.1-0.02,0.15l0-0.81C1117.84,750.74,1117.85,750.69,1117.86,750.64"/>
				<path d="M1117.84,750.79l0,0.81c0,0.01,0,0.02,0,0.02l0-0.81C1117.84,750.81,1117.84,750.8,1117.84,750.79"/>
			</g>
		</g>
		<g class="st1">
			<defs>
				<path id="SVGID_29_" class="st1" d="M1113.34,751.43l0-0.81c0,0.09,0.01,0.18,0.02,0.27c0.09,0.79,1,1.91,2.69,3.33l0,0.81
					c-1.69-1.42-2.6-2.53-2.69-3.33C1113.34,751.61,1113.34,751.52,1113.34,751.43z"/>
			</defs>
			<clipPath id="SVGID_30_">
				<use xlink:href="#SVGID_29_"  style="overflow:visible;"/>
			</clipPath>
			<g class="st17">
				<path d="M1116.05,754.22l0,0.81c-1.69-1.42-2.6-2.53-2.69-3.33c-0.01-0.09-0.02-0.18-0.02-0.27l0-0.81
					c0,0.09,0.01,0.18,0.02,0.27C1113.45,751.68,1114.36,752.8,1116.05,754.22"/>
			</g>
		</g>
		<g class="st1">
			<defs>
				<path id="SVGID_31_" class="st1" d="M1118.81,757.33l0,0.81c0-0.19-0.05-0.38-0.16-0.57c-0.29-0.54-1.16-1.39-2.61-2.54l0-0.81
					c1.45,1.15,2.31,2,2.61,2.54C1118.76,756.95,1118.81,757.14,1118.81,757.33z"/>
			</defs>
			<clipPath id="SVGID_32_">
				<use xlink:href="#SVGID_31_"  style="overflow:visible;"/>
			</clipPath>
			<g class="st18">
				<path d="M1118.81,757.33l0,0.81c0-0.19-0.05-0.38-0.16-0.57c-0.29-0.54-1.16-1.39-2.61-2.54l0-0.81c1.45,1.15,2.31,2,2.61,2.54
					C1118.76,756.95,1118.81,757.14,1118.81,757.33"/>
			</g>
		</g>
		<g class="st1">
			<defs>
				<path id="SVGID_33_" class="st1" d="M1123.33,757.52l0,0.81c0,0.68-0.36,1.33-1.06,1.97c-1.23,1.12-2.97,1.7-5.23,1.75
					c-2.25,0.05-4.62-0.4-7.09-1.34c-2.15-0.82-3.76-1.78-4.83-2.87l0-0.81c1.07,1.09,2.68,2.04,4.83,2.87
					c2.47,0.95,4.84,1.39,7.09,1.34c2.26-0.04,4-0.63,5.23-1.75C1122.97,758.85,1123.33,758.19,1123.33,757.52z"/>
			</defs>
			<clipPath id="SVGID_34_">
				<use xlink:href="#SVGID_33_"  style="overflow:visible;"/>
			</clipPath>
			<g class="st19">
				<path d="M1123.33,757.52l0,0.81c0,0.02,0,0.03,0,0.05l0-0.81C1123.33,757.55,1123.33,757.54,1123.33,757.52"/>
				<path d="M1123.33,757.57l0,0.81c0,0.11-0.02,0.22-0.04,0.33l0-0.81C1123.31,757.79,1123.32,757.68,1123.33,757.57"/>
				<path d="M1123.29,757.9l0,0.81c-0.02,0.11-0.05,0.22-0.09,0.33l0-0.81C1123.24,758.11,1123.27,758.01,1123.29,757.9"/>
				<path d="M1123.2,758.22l0,0.81c-0.04,0.12-0.1,0.23-0.17,0.35l0-0.81C1123.1,758.46,1123.15,758.34,1123.2,758.22"/>
				<path d="M1123.03,758.57l0,0.81c-0.08,0.14-0.17,0.27-0.28,0.41l0-0.81C1122.86,758.84,1122.95,758.71,1123.03,758.57"/>
				<path d="M1122.75,758.98l0,0.81c-0.14,0.17-0.3,0.34-0.49,0.51c-0.01,0.01-0.03,0.02-0.04,0.03l0-0.81
					c0.01-0.01,0.03-0.02,0.04-0.03C1122.45,759.32,1122.61,759.15,1122.75,758.98"/>
				<path d="M1122.23,759.53l0,0.81c-0.81,0.72-1.84,1.22-3.08,1.48l0-0.81C1120.39,760.74,1121.42,760.25,1122.23,759.53"/>
				<path d="M1119.14,761.01l0,0.81c-0.28,0.06-0.57,0.11-0.86,0.14l0-0.81C1118.58,761.12,1118.87,761.07,1119.14,761.01"/>
				<path d="M1118.28,761.15l0,0.81c-0.26,0.03-0.54,0.06-0.82,0.07l0-0.81C1117.74,761.21,1118.02,761.19,1118.28,761.15"/>
				<path d="M1117.46,761.22l0,0.81c-0.14,0.01-0.28,0.01-0.43,0.02c-0.16,0-0.33,0-0.49,0l0-0.81c0.16,0,0.33,0,0.49,0
					C1117.18,761.24,1117.32,761.23,1117.46,761.22"/>
				<path d="M1116.55,761.24l0,0.81c-0.32,0-0.64-0.02-0.96-0.04l0-0.81C1115.91,761.22,1116.23,761.24,1116.55,761.24"/>
				<path d="M1115.59,761.2l0,0.81c-0.34-0.02-0.68-0.06-1.02-0.1l0-0.81C1114.91,761.14,1115.25,761.18,1115.59,761.2"/>
				<path d="M1114.57,761.1l0,0.81c-0.38-0.05-0.77-0.11-1.16-0.19l0-0.81C1113.8,760.98,1114.19,761.05,1114.57,761.1"/>
				<path d="M1113.41,760.91l0,0.81c-0.48-0.09-0.96-0.21-1.45-0.34l0-0.81C1112.45,760.7,1112.93,760.81,1113.41,760.91"/>
				<path d="M1111.96,760.56l0,0.81c-0.66-0.18-1.34-0.41-2.02-0.67c-0.03-0.01-0.07-0.03-0.1-0.04l0-0.81
					c0.03,0.01,0.07,0.03,0.1,0.04C1110.63,760.15,1111.3,760.38,1111.96,760.56"/>
				<path d="M1109.84,759.85l0,0.81c-2.09-0.81-3.67-1.76-4.72-2.83l0-0.81C1106.17,758.1,1107.75,759.04,1109.84,759.85"/>
			</g>
		</g>
		<g>
			<path d="M1126.44,748.09c1.75,0.67,3.19,1.47,4.3,2.41l-2.29,2.08c-0.9-1.18-2.33-2.14-4.28-2.89c-1.18-0.45-2.3-0.67-3.36-0.65
				c-1.07,0.02-1.87,0.28-2.41,0.77c-0.53,0.48-0.68,0.96-0.45,1.44c0.23,0.47,1.03,1.27,2.38,2.4c1.75,1.39,2.73,2.51,2.94,3.36
				c0.22,0.86-0.12,1.68-1,2.48c-1.23,1.12-2.97,1.7-5.23,1.75c-2.25,0.05-4.62-0.4-7.09-1.34c-2.15-0.82-3.76-1.78-4.83-2.87
				l2.42-2.2c0.98,1.49,2.55,2.64,4.68,3.46c2.86,1.09,4.89,1.09,6.1-0.01c0.51-0.47,0.63-0.98,0.34-1.52
				c-0.29-0.54-1.16-1.39-2.61-2.54c-1.69-1.42-2.6-2.53-2.69-3.33c-0.11-0.79,0.26-1.57,1.09-2.32c1.19-1.08,2.91-1.65,5.18-1.7
				C1121.89,746.81,1124.16,747.22,1126.44,748.09z"/>
		</g>
	</g>
	<g class="st1">
		<g>
			<polygon points="1148.47,757.3 1148.47,758.1 1146.18,760.19 1146.19,759.38 			"/>
		</g>
		<g class="st1">
			<defs>
				<path id="SVGID_35_" class="st1" d="M1135.57,758.42l0-0.81c0-0.33,0.19-0.67,0.56-1c0.54-0.49,1.34-0.75,2.41-0.77
					c1.06-0.02,2.18,0.2,3.35,0.65c1.96,0.75,3.39,1.71,4.29,2.9l0,0.81c-0.9-1.18-2.33-2.14-4.29-2.9
					c-1.17-0.45-2.29-0.66-3.35-0.65c-1.07,0.02-1.87,0.28-2.41,0.77C1135.76,757.75,1135.57,758.09,1135.57,758.42z"/>
			</defs>
			<clipPath id="SVGID_36_">
				<use xlink:href="#SVGID_35_"  style="overflow:visible;"/>
			</clipPath>
			<g class="st20">
				<path d="M1146.19,759.38l0,0.81c-0.89-1.17-2.29-2.12-4.22-2.87l0-0.81C1143.89,757.26,1145.29,758.21,1146.19,759.38"/>
				<path d="M1141.97,756.51l0,0.81c-0.02-0.01-0.05-0.02-0.07-0.03c-0.33-0.13-0.65-0.23-0.97-0.32l0-0.81
					c0.32,0.09,0.64,0.2,0.97,0.32C1141.92,756.49,1141.94,756.5,1141.97,756.51"/>
				<path d="M1140.93,756.16l0,0.81c-0.23-0.06-0.46-0.12-0.69-0.17l0-0.81C1140.46,756.04,1140.69,756.1,1140.93,756.16"/>
				<path d="M1140.23,756l0,0.81c-0.19-0.04-0.37-0.07-0.55-0.09l0-0.81C1139.86,755.93,1140.05,755.96,1140.23,756"/>
				<path d="M1139.68,755.9l0,0.81c-0.16-0.02-0.32-0.04-0.48-0.05l0-0.81C1139.36,755.87,1139.52,755.88,1139.68,755.9"/>
				<path d="M1139.2,755.86l0,0.81c-0.15-0.01-0.3-0.02-0.45-0.02l0-0.81C1138.89,755.84,1139.04,755.84,1139.2,755.86"/>
				<path d="M1138.74,755.84l0,0.81c-0.07,0-0.13,0-0.2,0c-0.08,0-0.15,0-0.23,0.01l0-0.81c0.07,0,0.15-0.01,0.23-0.01
					C1138.61,755.84,1138.68,755.84,1138.74,755.84"/>
				<path d="M1138.32,755.85l0,0.81c-0.14,0.01-0.27,0.02-0.4,0.03l0-0.81C1138.05,755.86,1138.18,755.85,1138.32,755.85"/>
				<path d="M1137.92,755.88l0,0.81c-0.14,0.02-0.28,0.04-0.41,0.07l0-0.81C1137.64,755.92,1137.77,755.9,1137.92,755.88"/>
				<path d="M1137.51,755.95l0,0.81c-0.56,0.12-1.01,0.33-1.36,0.65l0-0.81C1136.5,756.28,1136.95,756.07,1137.51,755.95"/>
				<path d="M1136.15,756.59l0,0.81c-0.01,0-0.01,0.01-0.02,0.01c-0.1,0.09-0.19,0.19-0.27,0.28l0-0.81
					c0.07-0.09,0.16-0.19,0.26-0.28C1136.14,756.6,1136.14,756.6,1136.15,756.59"/>
				<path d="M1135.87,756.89l0,0.81c-0.06,0.07-0.1,0.14-0.15,0.21l0-0.81C1135.76,757.03,1135.81,756.96,1135.87,756.89"/>
				<path d="M1135.72,757.1l0,0.81c-0.03,0.06-0.06,0.12-0.08,0.18l0-0.81C1135.66,757.22,1135.69,757.16,1135.72,757.1"/>
				<path d="M1135.64,757.27l0,0.81c-0.02,0.05-0.04,0.11-0.05,0.16l0-0.81C1135.6,757.38,1135.62,757.33,1135.64,757.27"/>
				<path d="M1135.59,757.43l0,0.81c-0.01,0.05-0.02,0.1-0.02,0.15l0-0.81C1135.58,757.54,1135.58,757.49,1135.59,757.43"/>
				<path d="M1135.57,757.59l0,0.81c0,0.01,0,0.02,0,0.02l0-0.81C1135.57,757.6,1135.57,757.6,1135.57,757.59"/>
			</g>
		</g>
		<g class="st1">
			<defs>
				<path id="SVGID_37_" class="st1" d="M1131.07,758.22l0-0.81c0,0.09,0.01,0.18,0.02,0.27c0.09,0.79,1,1.91,2.69,3.33l0,0.81
					c-1.69-1.42-2.6-2.53-2.69-3.33C1131.08,758.4,1131.07,758.31,1131.07,758.22z"/>
			</defs>
			<clipPath id="SVGID_38_">
				<use xlink:href="#SVGID_37_"  style="overflow:visible;"/>
			</clipPath>
			<g class="st21">
				<path d="M1133.78,761.01l0,0.81c-1.69-1.42-2.6-2.53-2.69-3.33c-0.01-0.09-0.02-0.18-0.02-0.27l0-0.81
					c0,0.09,0.01,0.18,0.02,0.27C1131.19,758.48,1132.09,759.59,1133.78,761.01"/>
			</g>
		</g>
		<g class="st1">
			<defs>
				<path id="SVGID_39_" class="st1" d="M1136.55,764.12l0,0.81c0-0.19-0.05-0.38-0.15-0.57c-0.29-0.54-1.16-1.39-2.61-2.54l0-0.81
					c1.45,1.15,2.31,2,2.61,2.54C1136.49,763.75,1136.55,763.94,1136.55,764.12z"/>
			</defs>
			<clipPath id="SVGID_40_">
				<use xlink:href="#SVGID_39_"  style="overflow:visible;"/>
			</clipPath>
			<g class="st22">
				<path d="M1136.55,764.12l0,0.81c0-0.19-0.05-0.38-0.15-0.57c-0.29-0.54-1.16-1.39-2.61-2.54l0-0.81c1.45,1.15,2.31,2,2.61,2.54
					C1136.49,763.75,1136.55,763.94,1136.55,764.12"/>
			</g>
		</g>
		<g class="st1">
			<defs>
				<path id="SVGID_41_" class="st1" d="M1141.06,764.31l0,0.81c0,0.68-0.36,1.33-1.06,1.97c-1.23,1.12-2.97,1.7-5.23,1.75
					c-2.25,0.05-4.63-0.4-7.09-1.34c-2.15-0.82-3.76-1.78-4.83-2.87l0-0.81c1.07,1.09,2.68,2.04,4.83,2.87
					c2.46,0.94,4.84,1.39,7.09,1.34c2.26-0.04,4-0.63,5.23-1.75C1140.7,765.65,1141.06,764.99,1141.06,764.31z"/>
			</defs>
			<clipPath id="SVGID_42_">
				<use xlink:href="#SVGID_41_"  style="overflow:visible;"/>
			</clipPath>
			<g class="st23">
				<path d="M1141.06,764.31l0,0.81c0,0.02,0,0.03,0,0.05l0-0.81C1141.06,764.35,1141.06,764.33,1141.06,764.31"/>
				<path d="M1141.06,764.36l0,0.81c0,0.11-0.02,0.22-0.04,0.33l0-0.81C1141.05,764.58,1141.06,764.47,1141.06,764.36"/>
				<path d="M1141.02,764.69l0,0.81c-0.02,0.11-0.05,0.22-0.09,0.33l0-0.81C1140.97,764.91,1141,764.8,1141.02,764.69"/>
				<path d="M1140.93,765.02l0,0.81c-0.04,0.12-0.1,0.23-0.17,0.35l0-0.81C1140.83,765.25,1140.89,765.13,1140.93,765.02"/>
				<path d="M1140.76,765.37l0,0.81c-0.08,0.14-0.17,0.27-0.28,0.41l0-0.81C1140.59,765.64,1140.69,765.5,1140.76,765.37"/>
				<path d="M1140.49,765.77l0,0.81c-0.14,0.17-0.3,0.34-0.49,0.51c-0.01,0.01-0.03,0.02-0.04,0.03l0-0.81
					c0.01-0.01,0.03-0.02,0.04-0.03C1140.19,766.12,1140.35,765.95,1140.49,765.77"/>
				<path d="M1139.96,766.32l0,0.81c-0.81,0.72-1.84,1.22-3.08,1.48l0-0.81C1138.13,767.54,1139.15,767.04,1139.96,766.32"/>
				<path d="M1136.88,767.8l0,0.81c-0.28,0.06-0.57,0.11-0.86,0.14l0-0.81C1136.31,767.91,1136.6,767.86,1136.88,767.8"/>
				<path d="M1136.01,767.95l0,0.81c-0.26,0.03-0.54,0.06-0.82,0.07l0-0.81C1135.48,768,1135.75,767.98,1136.01,767.95"/>
				<path d="M1135.2,768.02l0,0.81c-0.14,0.01-0.28,0.01-0.43,0.02c-0.16,0-0.33,0-0.49,0l0-0.81c0.16,0,0.33,0,0.49,0
					C1134.92,768.03,1135.06,768.02,1135.2,768.02"/>
				<path d="M1134.28,768.04l0,0.81c-0.32,0-0.64-0.02-0.96-0.04l0-0.81C1133.65,768.02,1133.97,768.03,1134.28,768.04"/>
				<path d="M1133.33,768l0,0.81c-0.34-0.02-0.68-0.06-1.02-0.1l0-0.81C1132.65,767.94,1132.99,767.97,1133.33,768"/>
				<path d="M1132.31,767.89l0,0.81c-0.39-0.05-0.77-0.11-1.16-0.19l0-0.81C1131.53,767.78,1131.92,767.84,1132.31,767.89"/>
				<path d="M1131.14,767.7l0,0.81c-0.48-0.1-0.96-0.21-1.45-0.35l0-0.81C1130.18,767.49,1130.66,767.61,1131.14,767.7"/>
				<path d="M1129.7,767.35l0,0.81c-0.66-0.18-1.34-0.41-2.01-0.67c-0.03-0.01-0.07-0.03-0.1-0.04l0-0.81
					c0.03,0.01,0.07,0.03,0.1,0.04C1128.36,766.95,1129.03,767.17,1129.7,767.35"/>
				<path d="M1127.58,766.65l0,0.81c-2.09-0.81-3.67-1.76-4.72-2.83l0-0.81C1123.91,764.89,1125.48,765.83,1127.58,766.65"/>
			</g>
		</g>
		<g>
			<path d="M1144.16,754.88c1.76,0.67,3.2,1.48,4.31,2.42l-2.29,2.08c-0.9-1.18-2.33-2.14-4.29-2.9c-1.17-0.45-2.29-0.66-3.35-0.65
				c-1.07,0.02-1.87,0.28-2.41,0.77c-0.53,0.48-0.68,0.96-0.45,1.44c0.23,0.47,1.02,1.27,2.37,2.39c1.75,1.39,2.73,2.51,2.95,3.37
				c0.22,0.86-0.12,1.68-1,2.48c-1.23,1.12-2.97,1.7-5.23,1.75c-2.25,0.05-4.63-0.4-7.09-1.34c-2.15-0.82-3.76-1.78-4.83-2.87
				l2.42-2.2c0.98,1.49,2.54,2.64,4.68,3.46c2.86,1.09,4.89,1.09,6.1-0.01c0.51-0.47,0.63-0.98,0.34-1.52
				c-0.29-0.54-1.16-1.39-2.61-2.54c-1.69-1.42-2.6-2.53-2.69-3.33c-0.11-0.79,0.26-1.57,1.09-2.33c1.19-1.08,2.91-1.65,5.19-1.7
				C1139.63,753.6,1141.9,754.01,1144.16,754.88z"/>
		</g>
	</g>
	<g class="st1">
		<g>
			<polygon points="1175.57,760.39 1175.57,761.2 1158.97,776.3 1158.97,775.49 			"/>
		</g>
		<g>
			<polygon points="1170.51,779.92 1170.5,780.72 1168.36,782.67 1168.37,781.86 			"/>
		</g>
		<g>
			<polygon points="1168.37,781.86 1168.36,782.67 1153.08,776.81 1153.08,776.01 			"/>
		</g>
		<g>
			<polygon points="1175.57,760.39 1158.97,775.49 1170.51,779.92 1168.37,781.86 1153.08,776.01 1171.82,758.95 			"/>
		</g>
	</g>
	<g class="st1">
		<g class="st1">
			<defs>
				<path id="SVGID_43_" class="st1" d="M1193.69,777.66l0,0.81c0-0.89-0.78-1.64-2.35-2.24c-2.49-0.95-5.3-1.33-8.42-1.13l0-0.81
					c3.12-0.2,5.93,0.17,8.42,1.13C1192.91,776.03,1193.69,776.77,1193.69,777.66z"/>
			</defs>
			<clipPath id="SVGID_44_">
				<use xlink:href="#SVGID_43_"  style="overflow:visible;"/>
			</clipPath>
			<g class="st24">
				<path d="M1193.69,777.66l0,0.81c0-0.88-0.77-1.62-2.3-2.22l0-0.81C1192.92,776.04,1193.69,776.78,1193.69,777.66"/>
				<path d="M1191.39,775.44l0,0.81c-0.01-0.01-0.03-0.01-0.04-0.02c-0.49-0.19-0.99-0.35-1.5-0.49l0-0.81
					c0.51,0.14,1.01,0.31,1.5,0.49C1191.36,775.43,1191.37,775.44,1191.39,775.44"/>
				<path d="M1189.85,774.93l0,0.81c-0.42-0.12-0.86-0.22-1.3-0.31l0-0.81C1188.99,774.71,1189.42,774.82,1189.85,774.93"/>
				<path d="M1188.55,774.63l0,0.81c-0.4-0.08-0.8-0.15-1.22-0.2l0-0.81C1187.75,774.48,1188.15,774.55,1188.55,774.63"/>
				<path d="M1187.33,774.43l0,0.81c-0.4-0.05-0.81-0.09-1.23-0.12l0-0.81C1186.52,774.33,1186.93,774.37,1187.33,774.43"/>
				<path d="M1186.11,774.3l0,0.81c-0.43-0.03-0.87-0.05-1.32-0.05l0-0.81C1185.23,774.25,1185.67,774.27,1186.11,774.3"/>
				<path d="M1184.78,774.25l0,0.81c-0.5-0.01-1.01,0.01-1.52,0.03l0-0.81C1183.78,774.25,1184.29,774.24,1184.78,774.25"/>
				<path d="M1183.26,774.28l0,0.81c-0.11,0.01-0.22,0.01-0.34,0.02l0-0.81C1183.04,774.29,1183.15,774.29,1183.26,774.28"/>
			</g>
		</g>
		<g class="st1">
			<defs>
				<path id="SVGID_45_" class="st1" d="M1198.04,777.86l0,0.81c0,1.05-0.69,2.2-2.06,3.45l0-0.81
					C1197.35,780.06,1198.04,778.91,1198.04,777.86z"/>
			</defs>
			<clipPath id="SVGID_46_">
				<use xlink:href="#SVGID_45_"  style="overflow:visible;"/>
			</clipPath>
			<g class="st25">
				<path d="M1198.04,777.86l0,0.81c0,0.02,0,0.04,0,0.06l0-0.81C1198.04,777.9,1198.04,777.88,1198.04,777.86"/>
				<path d="M1198.04,777.92l0,0.81c0,0.15-0.02,0.29-0.05,0.44l0-0.81C1198.02,778.21,1198.04,778.07,1198.04,777.92"/>
				<path d="M1197.99,778.36l0,0.81c-0.03,0.16-0.08,0.32-0.14,0.49l0-0.81C1197.91,778.69,1197.96,778.52,1197.99,778.36"/>
				<path d="M1197.85,778.85l0,0.81c-0.07,0.19-0.16,0.38-0.28,0.58l0-0.81C1197.68,779.23,1197.78,779.04,1197.85,778.85"/>
				<path d="M1197.57,779.43l0,0.81c-0.14,0.25-0.32,0.5-0.53,0.76l0-0.81C1197.25,779.93,1197.43,779.68,1197.57,779.43"/>
				<path d="M1197.05,780.19l0,0.81c-0.29,0.36-0.65,0.73-1.06,1.11l0-0.81C1196.4,780.93,1196.76,780.56,1197.05,780.19"/>
			</g>
		</g>
		<g>
			<polygon points="1190.46,781.64 1190.46,782.45 1185.19,780.98 1185.19,780.17 			"/>
		</g>
		<g class="st1">
			<defs>
				<path id="SVGID_47_" class="st1" d="M1177.54,782.78l0-0.81c0-0.42,0.22-0.83,0.65-1.22c0.73-0.66,1.62-1.05,2.66-1.17
					c1.04-0.12,2.48,0.08,4.33,0.6l0,0.81c-1.85-0.52-3.28-0.71-4.33-0.6c-1.05,0.12-1.94,0.51-2.66,1.17
					C1177.77,781.95,1177.55,782.36,1177.54,782.78z"/>
			</defs>
			<clipPath id="SVGID_48_">
				<use xlink:href="#SVGID_47_"  style="overflow:visible;"/>
			</clipPath>
			<g class="st26">
				<path d="M1185.19,780.17l0,0.81c-0.02-0.01-0.04-0.01-0.06-0.02l0-0.81C1185.15,780.16,1185.17,780.17,1185.19,780.17"/>
				<path d="M1185.13,780.16l0,0.81c-0.56-0.16-1.08-0.28-1.57-0.38l0-0.81C1184.05,779.88,1184.57,780,1185.13,780.16"/>
				<path d="M1183.56,779.78l0,0.81c-0.32-0.06-0.62-0.11-0.91-0.15l0-0.81C1182.95,779.67,1183.25,779.72,1183.56,779.78"/>
				<path d="M1182.66,779.63l0,0.81c-0.22-0.03-0.42-0.05-0.62-0.06l0-0.81C1182.24,779.58,1182.44,779.6,1182.66,779.63"/>
				<path d="M1182.04,779.57l0,0.81c-0.16-0.01-0.32-0.02-0.47-0.02l0-0.81C1181.72,779.55,1181.88,779.55,1182.04,779.57"/>
				<path d="M1181.57,779.55l0,0.81c-0.14,0-0.27,0-0.39,0.01l0-0.81C1181.3,779.55,1181.43,779.54,1181.57,779.55"/>
				<path d="M1181.18,779.55l0,0.81c-0.11,0.01-0.21,0.01-0.31,0.03c-0.01,0-0.02,0-0.03,0l0-0.81c0.01,0,0.02,0,0.03,0
					C1180.96,779.57,1181.07,779.56,1181.18,779.55"/>
				<path d="M1180.84,779.58l0,0.81c-0.17,0.02-0.33,0.05-0.49,0.08l0-0.81C1180.51,779.63,1180.67,779.6,1180.84,779.58"/>
				<path d="M1180.35,779.66l0,0.81c-0.81,0.17-1.52,0.52-2.12,1.06l0-0.81C1178.83,780.19,1179.54,779.84,1180.35,779.66"/>
				<path d="M1178.23,780.72l0,0.81c-0.01,0.01-0.02,0.02-0.03,0.03c-0.11,0.1-0.21,0.21-0.3,0.31l0-0.81
					c0.08-0.1,0.18-0.21,0.3-0.31C1178.21,780.74,1178.22,780.73,1178.23,780.72"/>
				<path d="M1177.9,781.06l0,0.81c-0.07,0.08-0.12,0.17-0.17,0.25l0-0.81C1177.78,781.23,1177.84,781.15,1177.9,781.06"/>
				<path d="M1177.73,781.31l0,0.81c-0.04,0.07-0.08,0.14-0.1,0.22l0-0.81C1177.66,781.46,1177.69,781.39,1177.73,781.31"/>
				<path d="M1177.63,781.53l0,0.81c-0.03,0.07-0.05,0.14-0.06,0.2l0-0.81C1177.58,781.67,1177.6,781.6,1177.63,781.53"/>
				<path d="M1177.57,781.74l0,0.81c-0.01,0.07-0.02,0.14-0.02,0.21l0-0.81C1177.55,781.87,1177.56,781.8,1177.57,781.74"/>
				<path d="M1177.55,781.94l0,0.81c0,0.01,0,0.02,0,0.03l0-0.81C1177.55,781.96,1177.55,781.95,1177.55,781.94"/>
			</g>
		</g>
		<g>
			<polygon points="1185.81,785.87 1185.81,786.68 1185.72,786.65 1185.72,785.84 			"/>
		</g>
		<g class="st1">
			<defs>
				<path id="SVGID_49_" class="st1" d="M1173.05,782.64l0-0.81c0,0.32,0.07,0.63,0.21,0.95c0.47,1.09,1.72,2.03,3.73,2.79
					c2.8,1.07,5.71,1.16,8.73,0.26l0,0.81c-3.02,0.9-5.94,0.81-8.73-0.26c-2-0.77-3.25-1.7-3.73-2.79
					C1173.12,783.28,1173.05,782.96,1173.05,782.64z"/>
			</defs>
			<clipPath id="SVGID_50_">
				<use xlink:href="#SVGID_49_"  style="overflow:visible;"/>
			</clipPath>
			<g class="st27">
				<path d="M1185.72,785.84l0,0.81c-0.4,0.12-0.79,0.22-1.18,0.3l0-0.81C1184.93,786.06,1185.32,785.96,1185.72,785.84"/>
				<path d="M1184.54,786.14l0,0.81c-0.42,0.09-0.84,0.16-1.26,0.21l0-0.81C1183.7,786.3,1184.12,786.23,1184.54,786.14"/>
				<path d="M1183.28,786.35l0,0.81c-0.32,0.04-0.63,0.07-0.94,0.08l0-0.81C1182.65,786.42,1182.96,786.39,1183.28,786.35"/>
				<path d="M1182.33,786.43l0,0.81c-0.27,0.01-0.55,0.02-0.82,0.02l0-0.81C1181.79,786.45,1182.06,786.45,1182.33,786.43"/>
				<path d="M1181.52,786.45l0,0.81c-0.26,0-0.51-0.01-0.77-0.03l0-0.81C1181,786.44,1181.26,786.45,1181.52,786.45"/>
				<path d="M1180.75,786.42l0,0.81c-0.26-0.02-0.51-0.04-0.77-0.08l0-0.81C1180.23,786.37,1180.49,786.4,1180.75,786.42"/>
				<path d="M1179.98,786.34l0,0.81c-0.28-0.04-0.55-0.08-0.82-0.14l0-0.81C1179.43,786.26,1179.7,786.31,1179.98,786.34"/>
				<path d="M1179.16,786.21l0,0.81c-0.32-0.06-0.64-0.14-0.95-0.23l0-0.81C1178.52,786.07,1178.84,786.14,1179.16,786.21"/>
				<path d="M1178.2,785.98l0,0.81c-0.41-0.11-0.81-0.25-1.22-0.4c-0.02-0.01-0.05-0.02-0.07-0.03l0-0.81
					c0.02,0.01,0.05,0.02,0.07,0.03C1177.39,785.73,1177.79,785.87,1178.2,785.98"/>
				<path d="M1176.92,785.55l0,0.81c-1.96-0.76-3.19-1.69-3.66-2.77c-0.14-0.32-0.21-0.63-0.21-0.95l0-0.81
					c0,0.32,0.07,0.63,0.21,0.95C1173.73,783.86,1174.96,784.79,1176.92,785.55"/>
			</g>
		</g>
		<g>
			<polygon points="1195.98,781.31 1195.98,782.11 1187.37,789.95 1187.37,789.14 			"/>
		</g>
		<g>
			<path d="M1193.59,773.81c4.99,1.91,5.79,4.4,2.4,7.49l-8.61,7.84l-3.63-1.39l2.07-1.88l-0.09-0.03c-3.02,0.9-5.94,0.81-8.73-0.26
				c-2-0.77-3.25-1.7-3.73-2.79c-0.49-1.09-0.13-2.18,1.06-3.26c2.5-2.28,6.24-2.73,11.23-1.35l6.69,1.84
				c2.19-1.99,1.88-3.52-0.91-4.59c-2.49-0.95-5.3-1.33-8.42-1.13l2.29-2.08C1188.1,772.25,1190.9,772.78,1193.59,773.81z
				 M1189.17,782.81l1.29-1.17l-5.27-1.47c-1.85-0.52-3.28-0.71-4.33-0.6c-1.05,0.12-1.94,0.51-2.66,1.17
				c-0.64,0.58-0.81,1.19-0.51,1.82c0.29,0.64,1.01,1.17,2.16,1.61c1.59,0.61,3.28,0.79,5.04,0.52
				C1186.65,784.44,1188.08,783.81,1189.17,782.81"/>
		</g>
		<g>
			<polygon points="1187.37,789.14 1187.37,789.95 1183.74,788.56 1183.74,787.75 			"/>
		</g>
	</g>
	<g class="st1">
		<g>
			<polygon points="1216.93,774.86 1216.93,775.66 1208.19,783.61 1208.19,782.8 			"/>
		</g>
		<g class="st1">
			<defs>
				<path id="SVGID_51_" class="st1" d="M1218,787.72l0,0.81c0-0.14-0.01-0.27-0.03-0.41c-0.19-1.15-1.17-2.07-2.94-2.75
					c-1.8-0.69-3.7-0.88-5.69-0.57c-1.99,0.31-3.63,1.05-4.92,2.22l0-0.81c1.29-1.17,2.92-1.91,4.92-2.22s3.89-0.12,5.69,0.57
					c1.77,0.68,2.75,1.59,2.94,2.75C1217.99,787.44,1218,787.58,1218,787.72z"/>
			</defs>
			<clipPath id="SVGID_52_">
				<use xlink:href="#SVGID_51_"  style="overflow:visible;"/>
			</clipPath>
			<g class="st28">
				<path d="M1218,787.72l0,0.81c0-0.14-0.01-0.27-0.03-0.41c-0.19-1.14-1.16-2.05-2.9-2.73l0-0.81c1.74,0.68,2.71,1.58,2.9,2.73
					C1217.99,787.44,1218,787.58,1218,787.72"/>
				<path d="M1215.07,784.58l0,0.81c-0.02-0.01-0.03-0.01-0.05-0.02c-0.32-0.12-0.65-0.23-0.97-0.32l0-0.81
					c0.33,0.09,0.65,0.2,0.97,0.32C1215.04,784.57,1215.06,784.58,1215.07,784.58"/>
				<path d="M1214.05,784.24l0,0.81c-0.26-0.07-0.52-0.13-0.78-0.19l0-0.81C1213.54,784.11,1213.8,784.17,1214.05,784.24"/>
				<path d="M1213.28,784.06l0,0.81c-0.23-0.04-0.45-0.08-0.68-0.11l0-0.81C1212.82,783.97,1213.05,784.01,1213.28,784.06"/>
				<path d="M1212.59,783.94l0,0.81c-0.21-0.03-0.43-0.05-0.65-0.07l0-0.81C1212.16,783.89,1212.38,783.92,1212.59,783.94"/>
				<path d="M1211.94,783.88l0,0.81c-0.22-0.02-0.44-0.02-0.66-0.03l0-0.81C1211.51,783.85,1211.73,783.86,1211.94,783.88"/>
				<path d="M1211.29,783.85l0,0.81c-0.23,0-0.47,0-0.71,0.01l0-0.81C1210.82,783.85,1211.05,783.85,1211.29,783.85"/>
				<path d="M1210.58,783.87l0,0.81c-0.28,0.01-0.55,0.04-0.83,0.07l0-0.81C1210.03,783.91,1210.31,783.88,1210.58,783.87"/>
				<path d="M1209.75,783.94l0,0.81c-0.14,0.02-0.27,0.04-0.41,0.06c-0.23,0.04-0.45,0.08-0.67,0.12l0-0.81
					c0.22-0.05,0.44-0.09,0.67-0.12C1209.48,783.97,1209.61,783.96,1209.75,783.94"/>
				<path d="M1208.67,784.12l0,0.81c-1.67,0.36-3.07,1.04-4.2,2.05l0-0.81C1205.61,785.15,1207,784.47,1208.67,784.12"/>
				<path d="M1204.48,786.16l0,0.81c-0.02,0.02-0.04,0.03-0.06,0.05l0-0.81C1204.44,786.2,1204.46,786.18,1204.48,786.16"/>
			</g>
		</g>
		<g>
			<polygon points="1204.42,786.21 1204.42,787.02 1202.6,788.67 1202.61,787.86 			"/>
		</g>
		<g class="st1">
			<defs>
				<path id="SVGID_53_" class="st1" d="M1201.37,791.01l0-0.81c0-0.81,0.42-1.59,1.24-2.34l0,0.81
					C1201.78,789.42,1201.37,790.2,1201.37,791.01z"/>
			</defs>
			<clipPath id="SVGID_54_">
				<use xlink:href="#SVGID_53_"  style="overflow:visible;"/>
			</clipPath>
			<g class="st29">
				<path d="M1202.61,787.86l0,0.81c-0.21,0.19-0.4,0.39-0.56,0.59l0-0.81C1202.21,788.25,1202.39,788.06,1202.61,787.86"/>
				<path d="M1202.05,788.45l0,0.81c-0.13,0.16-0.23,0.32-0.32,0.48l0-0.81C1201.82,788.77,1201.92,788.61,1202.05,788.45"/>
				<path d="M1201.73,788.93l0,0.81c-0.08,0.14-0.14,0.28-0.2,0.42l0-0.81C1201.58,789.2,1201.65,789.06,1201.73,788.93"/>
				<path d="M1201.53,789.34l0,0.81c-0.05,0.13-0.09,0.26-0.11,0.4l0-0.81C1201.44,789.61,1201.48,789.47,1201.53,789.34"/>
				<path d="M1201.41,789.74l0,0.81c-0.03,0.13-0.04,0.27-0.05,0.4l0-0.81C1201.37,790.01,1201.39,789.87,1201.41,789.74"/>
				<path d="M1201.37,790.14l0,0.81c0,0.02,0,0.04,0,0.06l0-0.81C1201.37,790.18,1201.37,790.16,1201.37,790.14"/>
			</g>
		</g>
		<g>
			<polygon points="1197.12,792.88 1197.11,793.69 1193.45,792.28 1193.45,791.47 			"/>
		</g>
		<g>
			<polygon points="1199.08,791.19 1199.08,792 1197.11,793.69 1197.12,792.88 			"/>
		</g>
		<g class="st1">
			<defs>
				<path id="SVGID_55_" class="st1" d="M1222.48,787.89l0,0.81c0,1.44-0.88,2.96-2.63,4.55c-2.26,2.05-4.91,3.36-7.96,3.92
					c-3.05,0.56-6.01,0.29-8.87-0.8c-2.63-1.01-3.95-2.43-3.95-4.25l0-0.81c0,1.82,1.31,3.24,3.95,4.25
					c2.86,1.09,5.82,1.36,8.87,0.8c3.05-0.56,5.7-1.87,7.96-3.92C1221.6,790.85,1222.48,789.33,1222.48,787.89z"/>
			</defs>
			<clipPath id="SVGID_56_">
				<use xlink:href="#SVGID_55_"  style="overflow:visible;"/>
			</clipPath>
			<g class="st30">
				<path d="M1222.48,787.89l0,0.81c0,0.03,0,0.06,0,0.09l0-0.81C1222.48,787.95,1222.48,787.92,1222.48,787.89"/>
				<path d="M1222.48,787.98l0,0.81c-0.01,0.21-0.03,0.42-0.07,0.63l0-0.81C1222.45,788.4,1222.48,788.19,1222.48,787.98"/>
				<path d="M1222.41,788.61l0,0.81c-0.05,0.22-0.11,0.45-0.2,0.68l0-0.81C1222.3,789.06,1222.36,788.83,1222.41,788.61"/>
				<path d="M1222.21,789.29l0,0.81c-0.1,0.26-0.22,0.52-0.37,0.78l0-0.81C1221.99,789.81,1222.12,789.55,1222.21,789.29"/>
				<path d="M1221.84,790.07l0,0.81c-0.18,0.32-0.41,0.65-0.67,0.98l0-0.81C1221.43,790.72,1221.66,790.39,1221.84,790.07"/>
				<path d="M1221.17,791.05l0,0.81c-0.36,0.45-0.8,0.92-1.32,1.38c-0.04,0.03-0.08,0.07-0.11,0.1l0-0.81
					c0.04-0.03,0.08-0.07,0.11-0.1C1220.37,791.97,1220.8,791.51,1221.17,791.05"/>
				<path d="M1219.74,792.54l0,0.81c-2.11,1.88-4.56,3.13-7.35,3.72l0-0.81C1215.18,795.66,1217.63,794.42,1219.74,792.54"/>
				<path d="M1212.39,796.26l0,0.81c-0.17,0.04-0.33,0.07-0.5,0.1c-0.35,0.06-0.69,0.12-1.04,0.16l0-0.81
					c0.34-0.04,0.69-0.09,1.04-0.16C1212.06,796.33,1212.23,796.29,1212.39,796.26"/>
				<path d="M1210.85,796.52l0,0.81c-0.39,0.05-0.79,0.08-1.18,0.1l0-0.81C1210.07,796.6,1210.46,796.56,1210.85,796.52"/>
				<path d="M1209.68,796.62l0,0.81c-0.34,0.02-0.68,0.02-1.02,0.02l0-0.81C1209,796.64,1209.34,796.64,1209.68,796.62"/>
				<path d="M1208.66,796.64l0,0.81c-0.32,0-0.64-0.02-0.96-0.04l0-0.81C1208.02,796.62,1208.34,796.64,1208.66,796.64"/>
				<path d="M1207.7,796.6l0,0.81c-0.32-0.02-0.64-0.05-0.96-0.1l0-0.81C1207.06,796.55,1207.38,796.58,1207.7,796.6"/>
				<path d="M1206.75,796.5l0,0.81c-0.34-0.05-0.68-0.1-1.02-0.17l0-0.81C1206.06,796.4,1206.4,796.46,1206.75,796.5"/>
				<path d="M1205.72,796.33l0,0.81c-0.4-0.08-0.79-0.17-1.19-0.28l0-0.81C1204.93,796.16,1205.32,796.26,1205.72,796.33"/>
				<path d="M1204.53,796.05l0,0.81c-0.51-0.14-1.01-0.31-1.51-0.5c-0.02-0.01-0.04-0.02-0.06-0.02l0-0.81
					c0.02,0.01,0.04,0.02,0.06,0.02C1203.53,795.74,1204.03,795.91,1204.53,796.05"/>
				<path d="M1202.97,795.53l0,0.81c-2.59-1.01-3.89-2.42-3.89-4.22l0-0.81C1199.07,793.11,1200.37,794.52,1202.97,795.53"/>
			</g>
		</g>
		<g>
			<path d="M1222.41,787.15c0.35,1.66-0.51,3.42-2.56,5.29c-2.26,2.05-4.91,3.36-7.96,3.92c-3.05,0.56-6.01,0.29-8.87-0.8
				c-2.69-1.03-4.01-2.49-3.95-4.36l-1.96,1.69l-3.66-1.4l19.81-18.02l3.66,1.4l-8.74,7.95c3.45-0.94,6.69-0.83,9.81,0.36
				C1220.59,784.16,1222.07,785.49,1222.41,787.15z M1210.47,793.99c2.06-0.46,3.95-1.47,5.66-3.02c1.41-1.29,2.02-2.51,1.84-3.66
				c-0.19-1.15-1.17-2.07-2.94-2.75c-1.8-0.69-3.7-0.88-5.69-0.57s-3.63,1.05-4.92,2.22l-1.81,1.65c-1.08,0.98-1.46,2.02-1.12,3.12
				c0.34,1.09,1.33,1.96,2.96,2.58C1206.39,794.31,1208.4,794.45,1210.47,793.99"/>
		</g>
	</g>
	<g class="st1">
		<g class="st1">
			<defs>
				<path id="SVGID_57_" class="st1" d="M1240.62,796l0,0.81c0-0.14-0.02-0.29-0.05-0.43c-0.22-0.94-1.12-1.71-2.7-2.32
					c-1.46-0.56-3.07-0.72-4.84-0.49c-1.78,0.23-3.36,0.81-4.77,1.73l0-0.81c1.41-0.92,2.99-1.5,4.77-1.73
					c1.76-0.23,3.38-0.06,4.84,0.49c1.58,0.61,2.48,1.38,2.7,2.32C1240.61,795.71,1240.62,795.85,1240.62,796z"/>
			</defs>
			<clipPath id="SVGID_58_">
				<use xlink:href="#SVGID_57_"  style="overflow:visible;"/>
			</clipPath>
			<g class="st31">
				<path d="M1240.62,796l0,0.81c0-0.14-0.02-0.29-0.05-0.43c-0.21-0.93-1.1-1.7-2.65-2.3l0-0.81c1.55,0.6,2.44,1.37,2.65,2.3
					C1240.61,795.71,1240.62,795.85,1240.62,796"/>
				<path d="M1237.93,793.27l0,0.81c-0.01-0.01-0.03-0.01-0.04-0.02c-0.25-0.1-0.51-0.18-0.78-0.26l0-0.81
					c0.26,0.07,0.52,0.16,0.78,0.26C1237.9,793.26,1237.91,793.27,1237.93,793.27"/>
				<path d="M1237.11,793l0,0.81c-0.21-0.06-0.43-0.11-0.65-0.16l0-0.81C1236.67,792.89,1236.89,792.94,1237.11,793"/>
				<path d="M1236.45,792.84l0,0.81c-0.2-0.04-0.39-0.07-0.59-0.1l0-0.81C1236.06,792.77,1236.26,792.81,1236.45,792.84"/>
				<path d="M1235.86,792.75l0,0.81c-0.19-0.03-0.39-0.04-0.58-0.06l0-0.81C1235.47,792.7,1235.67,792.72,1235.86,792.75"/>
				<path d="M1235.27,792.69l0,0.81c-0.2-0.01-0.41-0.02-0.61-0.02l0-0.81C1234.87,792.67,1235.07,792.67,1235.27,792.69"/>
				<path d="M1234.66,792.66l0,0.81c-0.23,0-0.45,0-0.69,0.01l0-0.81C1234.21,792.67,1234.43,792.66,1234.66,792.66"/>
				<path d="M1233.97,792.68l0,0.81c-0.28,0.01-0.55,0.04-0.84,0.07l0-0.81C1233.42,792.72,1233.7,792.69,1233.97,792.68"/>
				<path d="M1233.14,792.75l0,0.81c-0.03,0-0.06,0.01-0.09,0.01c-0.34,0.04-0.67,0.1-1,0.17l0-0.81c0.33-0.07,0.66-0.13,1-0.17
					C1233.08,792.76,1233.11,792.75,1233.14,792.75"/>
				<path d="M1232.05,792.93l0,0.81c-1.38,0.29-2.63,0.81-3.77,1.56l0-0.81C1229.42,793.74,1230.67,793.23,1232.05,792.93"/>
			</g>
		</g>
		<g class="st1">
			<defs>
				<path id="SVGID_59_" class="st1" d="M1224.77,799.99l0-0.81c0-0.93,0.54-1.92,1.61-2.97l0,0.81
					C1225.31,798.07,1224.77,799.06,1224.77,799.99z"/>
			</defs>
			<clipPath id="SVGID_60_">
				<use xlink:href="#SVGID_59_"  style="overflow:visible;"/>
			</clipPath>
			<g class="st32">
				<path d="M1226.38,796.22l0,0.81c-0.26,0.25-0.49,0.5-0.68,0.75l0-0.81C1225.89,796.72,1226.12,796.47,1226.38,796.22"/>
				<path d="M1225.7,796.97l0,0.81c-0.19,0.24-0.35,0.47-0.48,0.7l0-0.81C1225.35,797.44,1225.51,797.2,1225.7,796.97"/>
				<path d="M1225.22,797.67l0,0.81c-0.11,0.18-0.19,0.37-0.26,0.55l0-0.81C1225.02,798.03,1225.11,797.85,1225.22,797.67"/>
				<path d="M1224.96,798.21l0,0.81c-0.06,0.16-0.11,0.32-0.14,0.47l0-0.81C1224.85,798.53,1224.9,798.37,1224.96,798.21"/>
				<path d="M1224.82,798.69l0,0.81c-0.03,0.15-0.05,0.29-0.05,0.43l0-0.81C1224.77,798.98,1224.79,798.83,1224.82,798.69"/>
				<path d="M1224.77,799.12l0,0.81c0,0.02,0,0.04,0,0.06l0-0.81C1224.77,799.16,1224.77,799.14,1224.77,799.12"/>
			</g>
		</g>
		<g class="st1">
			<defs>
				<path id="SVGID_61_" class="st1" d="M1244.6,796.31l0,0.81c0,1.38-0.85,2.83-2.54,4.37l0-0.81
					C1243.74,799.14,1244.59,797.68,1244.6,796.31z"/>
			</defs>
			<clipPath id="SVGID_62_">
				<use xlink:href="#SVGID_61_"  style="overflow:visible;"/>
			</clipPath>
			<g class="st33">
				<path d="M1244.6,796.31l0,0.81c0,0.03,0,0.06,0,0.09l0-0.81C1244.6,796.37,1244.6,796.34,1244.6,796.31"/>
				<path d="M1244.6,796.4l0,0.81c-0.01,0.2-0.03,0.4-0.07,0.6l0-0.81C1244.57,796.79,1244.59,796.59,1244.6,796.4"/>
				<path d="M1244.53,796.99l0,0.81c-0.04,0.21-0.1,0.43-0.19,0.64l0-0.81C1244.42,797.42,1244.48,797.21,1244.53,796.99"/>
				<path d="M1244.34,797.64l0,0.81c-0.09,0.25-0.21,0.49-0.35,0.74l0-0.81C1244.13,798.13,1244.25,797.88,1244.34,797.64"/>
				<path d="M1243.99,798.38l0,0.81c-0.18,0.31-0.39,0.63-0.65,0.95l0-0.81C1243.59,799.01,1243.81,798.69,1243.99,798.38"/>
				<path d="M1243.34,799.33l0,0.81c-0.35,0.44-0.78,0.89-1.28,1.35l0-0.81C1242.56,800.22,1242.98,799.77,1243.34,799.33"/>
			</g>
		</g>
		<g>
			<polygon points="1240.86,801.77 1240.85,802.57 1226.38,797.03 1226.38,796.22 			"/>
		</g>
		<g>
			<polygon points="1242.05,800.68 1242.05,801.48 1240.85,802.57 1240.86,801.77 			"/>
		</g>
		<g>
			<polygon points="1236.35,803.96 1236.35,804.77 1234.22,806.7 1234.23,805.89 			"/>
		</g>
		<g class="st1">
			<defs>
				<path id="SVGID_63_" class="st1" d="M1220.46,799.78l0-0.81c0,0.31,0.04,0.62,0.12,0.92c0.45,1.76,2.17,3.21,5.16,4.36
					c3.01,1.15,5.83,1.7,8.49,1.64l0,0.81c-2.65,0.06-5.48-0.49-8.49-1.64c-2.99-1.15-4.71-2.6-5.16-4.36
					C1220.5,800.4,1220.46,800.09,1220.46,799.78z"/>
			</defs>
			<clipPath id="SVGID_64_">
				<use xlink:href="#SVGID_63_"  style="overflow:visible;"/>
			</clipPath>
			<g class="st34">
				<path d="M1234.23,805.89l0,0.81c-0.19,0-0.38,0.01-0.58,0l0-0.81C1233.84,805.9,1234.03,805.9,1234.23,805.89"/>
				<path d="M1233.65,805.9l0,0.81c-0.36,0-0.73-0.02-1.1-0.04l0-0.81C1232.92,805.88,1233.29,805.89,1233.65,805.9"/>
				<path d="M1232.55,805.85l0,0.81c-0.39-0.03-0.78-0.07-1.18-0.12l0-0.81C1231.77,805.78,1232.16,805.82,1232.55,805.85"/>
				<path d="M1231.37,805.73l0,0.81c-0.45-0.06-0.91-0.14-1.37-0.23l0-0.81C1230.46,805.6,1230.92,805.67,1231.37,805.73"/>
				<path d="M1230,805.51l0,0.81c-0.57-0.11-1.16-0.25-1.74-0.42l0-0.81C1228.84,805.25,1229.43,805.39,1230,805.51"/>
				<path d="M1228.26,805.09l0,0.81c-0.82-0.23-1.66-0.51-2.52-0.83c-0.03-0.01-0.06-0.02-0.09-0.03l0-0.81
					c0.03,0.01,0.06,0.02,0.09,0.03C1226.59,804.58,1227.43,804.86,1228.26,805.09"/>
				<path d="M1225.65,804.22l0,0.81c-2.94-1.14-4.63-2.58-5.07-4.33c-0.08-0.3-0.12-0.61-0.12-0.92l0-0.81
					c0,0.31,0.04,0.62,0.12,0.92C1221.02,801.64,1222.71,803.08,1225.65,804.22"/>
			</g>
		</g>
		<g>
			<path d="M1242.05,800.68l-1.2,1.09l-14.48-5.55c-1.36,1.32-1.86,2.56-1.5,3.71c0.37,1.15,1.58,2.12,3.64,2.91
				c2.32,0.89,4.92,1.27,7.82,1.13l-2.12,1.93c-2.65,0.06-5.48-0.49-8.49-1.64c-2.99-1.15-4.71-2.6-5.16-4.36
				c-0.45-1.76,0.41-3.63,2.59-5.61c2.05-1.87,4.65-3.05,7.83-3.56c3.17-0.51,6.12-0.23,8.85,0.81c2.71,1.04,4.26,2.36,4.65,3.96
				C1244.9,797.11,1244.08,798.83,1242.05,800.68z M1228.28,794.49l10.81,4.14c1.2-1.1,1.69-2.13,1.48-3.06
				c-0.22-0.94-1.12-1.71-2.7-2.32c-1.46-0.56-3.07-0.72-4.84-0.49C1231.27,792.99,1229.69,793.57,1228.28,794.49"/>
		</g>
	</g>
	<g class="st1">
		<g>
			<polygon points="1263.11,792.55 1263.11,793.36 1243.3,811.38 1243.3,810.57 			"/>
		</g>
		<g>
			<polygon points="1243.3,810.57 1243.3,811.38 1239.63,809.98 1239.64,809.17 			"/>
		</g>
		<g>
			<polygon points="1263.11,792.55 1243.3,810.57 1239.64,809.17 1259.45,791.15 			"/>
		</g>
	</g>
	<g class="st1">
		<g>
			<polygon points="1274.78,805.68 1274.78,806.49 1272.49,808.57 1272.49,807.77 			"/>
		</g>
		<g class="st1">
			<defs>
				<path id="SVGID_65_" class="st1" d="M1261.88,806.81l0-0.81c0-0.33,0.19-0.67,0.56-1c0.54-0.49,1.35-0.75,2.41-0.77
					c1.06-0.02,2.19,0.2,3.36,0.65c1.96,0.75,3.39,1.71,4.28,2.89l0,0.81c-0.9-1.18-2.33-2.14-4.28-2.89
					c-1.17-0.45-2.3-0.67-3.36-0.65c-1.07,0.02-1.87,0.28-2.41,0.77C1262.06,806.14,1261.88,806.48,1261.88,806.81z"/>
			</defs>
			<clipPath id="SVGID_66_">
				<use xlink:href="#SVGID_65_"  style="overflow:visible;"/>
			</clipPath>
			<g class="st35">
				<path d="M1272.49,807.77l0,0.81c-0.89-1.16-2.29-2.12-4.21-2.87l0-0.81C1270.2,805.65,1271.6,806.6,1272.49,807.77"/>
				<path d="M1268.28,804.9l0,0.81c-0.02-0.01-0.05-0.02-0.07-0.03c-0.33-0.13-0.65-0.23-0.97-0.32l0-0.81
					c0.32,0.09,0.65,0.2,0.97,0.32C1268.23,804.88,1268.25,804.89,1268.28,804.9"/>
				<path d="M1267.23,804.55l0,0.81c-0.23-0.07-0.47-0.12-0.7-0.17l0-0.81C1266.77,804.43,1267,804.49,1267.23,804.55"/>
				<path d="M1266.54,804.38l0,0.81c-0.19-0.04-0.37-0.07-0.56-0.09l0-0.81C1266.16,804.32,1266.35,804.35,1266.54,804.38"/>
				<path d="M1265.98,804.29l0,0.81c-0.16-0.02-0.32-0.04-0.48-0.05l0-0.81C1265.65,804.25,1265.82,804.27,1265.98,804.29"/>
				<path d="M1265.49,804.24l0,0.81c-0.15-0.01-0.3-0.02-0.45-0.02l0-0.81C1265.19,804.23,1265.34,804.23,1265.49,804.24"/>
				<path d="M1265.04,804.23l0,0.81c-0.07,0-0.13,0-0.2,0c-0.07,0-0.14,0-0.21,0.01l0-0.81c0.07,0,0.14-0.01,0.21-0.01
					C1264.91,804.22,1264.98,804.22,1265.04,804.23"/>
				<path d="M1264.64,804.23l0,0.81c-0.14,0.01-0.28,0.02-0.41,0.03l0-0.81C1264.36,804.25,1264.5,804.24,1264.64,804.23"/>
				<path d="M1264.23,804.27l0,0.81c-0.14,0.02-0.28,0.04-0.42,0.07l0-0.81C1263.95,804.31,1264.08,804.29,1264.23,804.27"/>
				<path d="M1263.81,804.34l0,0.81c-0.56,0.12-1.01,0.33-1.36,0.64l0-0.81C1262.8,804.67,1263.25,804.46,1263.81,804.34"/>
				<path d="M1262.45,804.98l0,0.81c-0.01,0-0.01,0.01-0.02,0.01c-0.1,0.09-0.19,0.19-0.27,0.28l0-0.81
					c0.07-0.09,0.16-0.19,0.27-0.28C1262.44,804.99,1262.45,804.99,1262.45,804.98"/>
				<path d="M1262.17,805.27l0,0.81c-0.06,0.07-0.1,0.14-0.15,0.21l0-0.81C1262.06,805.42,1262.11,805.34,1262.17,805.27"/>
				<path d="M1262.02,805.49l0,0.81c-0.03,0.06-0.06,0.12-0.08,0.18l0-0.81C1261.96,805.6,1261.99,805.54,1262.02,805.49"/>
				<path d="M1261.94,805.66l0,0.81c-0.02,0.05-0.04,0.11-0.05,0.16l0-0.81C1261.91,805.77,1261.92,805.72,1261.94,805.66"/>
				<path d="M1261.9,805.82l0,0.81c-0.01,0.05-0.02,0.1-0.02,0.15l0-0.81C1261.88,805.93,1261.88,805.87,1261.9,805.82"/>
				<path d="M1261.88,805.98l0,0.81c0,0.01,0,0.02,0,0.02l0-0.81C1261.88,805.99,1261.88,805.98,1261.88,805.98"/>
			</g>
		</g>
		<g class="st1">
			<defs>
				<path id="SVGID_67_" class="st1" d="M1257.38,806.61l0-0.81c0,0.09,0.01,0.18,0.02,0.27c0.1,0.8,1,1.91,2.7,3.33l0,0.81
					c-1.7-1.42-2.6-2.53-2.7-3.33C1257.38,806.79,1257.38,806.7,1257.38,806.61z"/>
			</defs>
			<clipPath id="SVGID_68_">
				<use xlink:href="#SVGID_67_"  style="overflow:visible;"/>
			</clipPath>
			<g class="st36">
				<path d="M1260.09,809.4l0,0.81c-1.7-1.42-2.6-2.53-2.7-3.33c-0.01-0.09-0.02-0.18-0.02-0.27l0-0.81c0,0.09,0.01,0.18,0.02,0.27
					C1257.5,806.87,1258.39,807.98,1260.09,809.4"/>
			</g>
		</g>
		<g class="st1">
			<defs>
				<path id="SVGID_69_" class="st1" d="M1262.85,812.51l0,0.81c0-0.19-0.05-0.38-0.16-0.57c-0.29-0.54-1.16-1.39-2.6-2.54l0-0.81
					c1.44,1.15,2.31,2,2.6,2.54C1262.8,812.14,1262.85,812.33,1262.85,812.51z"/>
			</defs>
			<clipPath id="SVGID_70_">
				<use xlink:href="#SVGID_69_"  style="overflow:visible;"/>
			</clipPath>
			<g class="st37">
				<path d="M1262.85,812.51l0,0.81c0-0.19-0.05-0.38-0.16-0.57c-0.29-0.54-1.16-1.39-2.6-2.54l0-0.81c1.44,1.15,2.31,2,2.6,2.54
					C1262.8,812.14,1262.85,812.33,1262.85,812.51"/>
			</g>
		</g>
		<g class="st1">
			<defs>
				<path id="SVGID_71_" class="st1" d="M1267.37,812.7l0,0.81c0,0.68-0.35,1.34-1.06,1.98c-1.23,1.12-2.97,1.7-5.23,1.74
					c-2.25,0.05-4.62-0.4-7.09-1.34c-2.15-0.82-3.75-1.78-4.83-2.87l0-0.81c1.08,1.09,2.68,2.04,4.83,2.87
					c2.47,0.95,4.84,1.39,7.09,1.34c2.26-0.04,4.01-0.63,5.23-1.74C1267.02,814.04,1267.37,813.37,1267.37,812.7z"/>
			</defs>
			<clipPath id="SVGID_72_">
				<use xlink:href="#SVGID_71_"  style="overflow:visible;"/>
			</clipPath>
			<g class="st38">
				<path d="M1267.37,812.7l0,0.81c0,0.02,0,0.03,0,0.05l0-0.81C1267.37,812.73,1267.37,812.72,1267.37,812.7"/>
				<path d="M1267.37,812.75l0,0.81c0,0.11-0.02,0.22-0.04,0.33l0-0.81C1267.35,812.97,1267.37,812.86,1267.37,812.75"/>
				<path d="M1267.33,813.08l0,0.81c-0.02,0.11-0.05,0.22-0.1,0.33l0-0.81C1267.28,813.3,1267.31,813.19,1267.33,813.08"/>
				<path d="M1267.24,813.41l0,0.81c-0.04,0.12-0.1,0.24-0.17,0.35l0-0.81C1267.14,813.65,1267.19,813.53,1267.24,813.41"/>
				<path d="M1267.07,813.76l0,0.81c-0.08,0.14-0.17,0.27-0.28,0.41l0-0.81C1266.9,814.04,1266.99,813.9,1267.07,813.76"/>
				<path d="M1266.79,814.17l0,0.81c-0.14,0.17-0.3,0.34-0.48,0.51c-0.01,0.01-0.03,0.02-0.04,0.03l0-0.81
					c0.01-0.01,0.03-0.02,0.04-0.03C1266.49,814.51,1266.66,814.34,1266.79,814.17"/>
				<path d="M1266.27,814.71l0,0.81c-0.81,0.72-1.83,1.21-3.08,1.48l0-0.81C1264.44,815.93,1265.47,815.43,1266.27,814.71"/>
				<path d="M1263.19,816.19l0,0.81c-0.28,0.06-0.57,0.11-0.87,0.14l0-0.81C1262.62,816.3,1262.91,816.25,1263.19,816.19"/>
				<path d="M1262.32,816.34l0,0.81c-0.26,0.03-0.54,0.06-0.82,0.07l0-0.81C1261.79,816.39,1262.06,816.37,1262.32,816.34"/>
				<path d="M1261.5,816.41l0,0.81c-0.14,0.01-0.28,0.01-0.43,0.02c-0.16,0-0.33,0-0.49,0l0-0.81c0.16,0,0.33,0,0.49,0
					C1261.22,816.42,1261.36,816.41,1261.5,816.41"/>
				<path d="M1260.58,816.42l0,0.81c-0.32,0-0.64-0.02-0.96-0.04l0-0.81C1259.95,816.41,1260.27,816.42,1260.58,816.42"/>
				<path d="M1259.63,816.38l0,0.81c-0.34-0.02-0.68-0.06-1.02-0.1l0-0.81C1258.95,816.33,1259.29,816.36,1259.63,816.38"/>
				<path d="M1258.61,816.28l0,0.81c-0.38-0.05-0.77-0.11-1.16-0.19l0-0.81C1257.84,816.17,1258.22,816.23,1258.61,816.28"/>
				<path d="M1257.45,816.09l0,0.81c-0.48-0.09-0.96-0.21-1.45-0.34l0-0.81C1256.49,815.88,1256.97,815.99,1257.45,816.09"/>
				<path d="M1256,815.74l0,0.81c-0.66-0.18-1.34-0.41-2.02-0.67c-0.03-0.01-0.07-0.03-0.1-0.04l0-0.81
					c0.03,0.01,0.07,0.03,0.1,0.04C1254.67,815.34,1255.34,815.56,1256,815.74"/>
				<path d="M1253.88,815.04l0,0.81c-2.09-0.81-3.66-1.76-4.72-2.83l0-0.81C1250.22,813.28,1251.79,814.22,1253.88,815.04"/>
			</g>
		</g>
		<g>
			<path d="M1270.47,803.27c1.76,0.67,3.2,1.48,4.3,2.41l-2.29,2.08c-0.9-1.18-2.33-2.14-4.28-2.89c-1.17-0.45-2.3-0.67-3.36-0.65
				c-1.07,0.02-1.87,0.28-2.41,0.77c-0.53,0.48-0.68,0.96-0.45,1.44c0.23,0.47,1.03,1.27,2.38,2.4c1.75,1.39,2.73,2.51,2.95,3.37
				c0.21,0.85-0.12,1.68-1,2.48c-1.23,1.12-2.97,1.7-5.23,1.74c-2.25,0.05-4.62-0.4-7.09-1.34c-2.15-0.82-3.75-1.78-4.83-2.87
				l2.42-2.2c0.99,1.49,2.55,2.64,4.68,3.46c2.86,1.09,4.89,1.09,6.1-0.01c0.51-0.47,0.63-0.98,0.34-1.52
				c-0.29-0.54-1.16-1.39-2.6-2.54c-1.7-1.42-2.6-2.53-2.7-3.33c-0.11-0.79,0.26-1.57,1.09-2.32c1.19-1.08,2.91-1.65,5.18-1.7
				C1265.94,801.99,1268.2,802.4,1270.47,803.27z"/>
		</g>
	</g>
</g>
</svg>
